<?xml version="1.0" encoding="UTF-8"?><svg id="a" xmlns="http://www.w3.org/2000/svg" viewBox="0 0 720 720"><rect x="360" width="360" height="360" style="fill:#009669;"/><polygon points="675 45 450 135.22 450 45 405 45 405 315 450 315 450 224.87 675 315 675 266.6 459.18 180.03 675 93.5 675 45" style="fill:#fff;"/><rect width="360" height="360" style="fill:#015b99;"/><path d="m265.3,225c-16.1,26.9-46.2,45-80.6,45-51.4,0-93.1-40.3-93.1-90s41.7-90,93.1-90c34.5,0,64.5,18.1,80.6,45h49.1c-19.3-51.8-70.6-88.8-130.8-88.8-76.8,0-139,60.2-139,134.4s62.2,134.4,139,134.4c60.7,0,112.3-37.6,131.2-90h-49.5Z" style="fill:#fff;"/><rect y="360" width="360" height="360" style="fill:#ac015d;"/><rect x="360" y="360" width="360" height="360" style="fill:#ff5425;"/><polygon points="674.94 405 404.94 405 404.94 450 598.24 450 404.98 643.27 436.8 675.09 629.94 481.95 629.94 675.06 674.94 675.06 674.94 450 674.94 450 674.94 405" style="fill:#fff;"/><path d="m269.69,630.06v-225h-.03v-.03H89.67v45h.03v180.03h-44.69v45h270v-45h-45.31Zm-135-180.03h90v180.03h-90v-180.03Z" style="fill:#fff;"/><style>._black { fill: #333; }</style></svg>