<svg xmlns="http://www.w3.org/2000/svg" viewBox="0 0 268.32 479.45">
    <path class="_black" d="M115.88,112.51v-2.45c0-20.41,0-40.83,0-61.24A3.85,3.85,0,0,1,118.12,45c15.94-9.27,32.37-17.5,49.89-23.37a206.9,206.9,0,0,1,40.28-9.46,210.13,210.13,0,0,1,42.9-1.26c24.22,2,47.49,7.62,68.7,20.05,24.28,14.23,40.95,34.94,51.45,60.85,5.28,13,8.34,26.64,11,40.4,1.79,9.26,2,18.54,1.74,27.86-.15,5.74-2.92,10.72-5.72,15.55-2.66,4.61-5.54,9.1-8.51,13.52a8.47,8.47,0,0,0-1.32,6.12c1,9.63,4.66,18.53,7.5,27.66,1.8,5.8,3.67,11.58,5.32,17.43,1.74,6.17.19,8.9-6,10.55-4.74,1.26-9.56,2.23-14.35,3.33-.32.07-.66.1-1,.18-5.65,1.37-7.32,3.32-7.68,9.14-.15,2.41-.12,4.83-.19,7.24-.1,3.24-1.08,6-3.89,8-1.81,1.26-2.54,2.78-1.6,5.14,1.49,3.7.44,7.1-2.25,9.89-2.25,2.34-4.85,4.35-7,6.76a8.41,8.41,0,0,0-2.11,4.48c-.57,6-.93,12.12-1.14,18.19-.33,9.67-8.26,14.33-15.62,14.69a83.26,83.26,0,0,1-36.11-6.37c-7.39-3-14.9-5.78-22.3-8.79-2.76-1.12-4.72-.63-6.92,1.43-8.15,7.61-11.74,17-11.38,28,.26,7.8.82,15.6,1.35,23.39.09,1.39-.29,2.1-1.63,2.21-1.58.14-3.16.3-4.74.3q-24.24-.12-48.49-.28c-1.88,0-3.1-.74-3.13-2.73-.13-10.91-.64-21.83-.23-32.71.46-12.26,4.88-23.52,10.17-34.49,8.74-18.09,21.24-33.38,35.15-47.63Q252,238,273.71,216a185.85,185.85,0,0,0,28.71-37.32A81.12,81.12,0,0,0,313,128.94c-1.7-17.26-8.57-31.87-21.46-43.5-9.38-8.47-20.48-13.86-32.46-17.61-10.63-3.32-21.58-3.82-32.59-4.09-33.3-.83-62.62,10.09-88.7,30.25-6.64,5.13-12.63,11.09-18.91,16.68-.79.7-1.56,1.42-2.34,2.13Zm150.34-12c0-3,.11-6.09-.06-9.11A11.54,11.54,0,0,0,265,87.82c-1.45-3.46-4.51-4.07-7.76-4.14A6.7,6.7,0,0,1,250.9,80c-.91-1.69-2.38-2.31-4.28-2.55-7.19-.87-14.39-1.77-21.54-2.93-2.88-.47-5.26-.14-7.26,2a10.21,10.21,0,0,1-11.28,3c-.16,0-.34,0-.49-.07a5.83,5.83,0,0,0-6.37,1.65,10.15,10.15,0,0,1-11.27,3c-.16,0-.34,0-.49-.07-1.77-.55-3.14.07-4.57,1.18-8.17,6.33-16.41,12.56-24.61,18.84a12,12,0,0,0-2.17,2c-4.18,5.3-8.38,10.58-12.44,16-1.77,2.34-4.26,4.35-4.18,7.73a4.91,4.91,0,0,1-2.72,4.7,5,5,0,0,0-2.5,4.29c-.47,4.39-.92,8.8-1.79,13.12-.73,3.58-.19,6.54,2.5,9s3.21,5.37,2.43,8.84a5,5,0,0,0,.88,3.58c3.82,5.25,7.77,10.4,11.77,15.52a4.74,4.74,0,0,0,2.61,1.6c3.44.63,6.91,1.15,10.39,1.45a5.77,5.77,0,0,0,3.64-1q25.32-19.15,50.52-38.47c2.24-1.71,2.37-2.56.71-4.75Q207.19,133,196,118.34c-1.68-2.19-2.58-2.3-4.76-.64-5.51,4.18-10.94,8.47-16.54,12.54a5.16,5.16,0,0,0-2,5.93c1,3.85,2.46,7.6,3.84,11.35.2.54,1.05.84,1.6,1.26a5.44,5.44,0,0,0,.88-1.61c.47-3,.7-6,1.28-8.9a6.21,6.21,0,0,1,1.85-3.27c2.66-2.27,5.59-4.23,8.28-6.45,1.57-1.29,2.44-1,3.58.56,4.32,5.82,8.66,11.63,13.21,17.28,1.66,2.06,1.22,3-.72,4.49-13.57,10.24-27.06,20.58-40.58,30.89a8.39,8.39,0,0,1-12-1.65c-3.31-4.39-3.24-3.35.82-6.52,2.8-2.2,3.56-2.07,6.1.77a4.48,4.48,0,1,0,6.59-6.06c-1.8-1.91-4.15-1.74-6.66.22a3.62,3.62,0,0,1-2.63.61c-.38-.08-.76-1.47-.69-2.22.24-2.74.76-5.45,1-8.19.06-.8-.57-1.66-.89-2.49-.64.7-1.7,1.32-1.86,2.13-.57,2.77-.81,5.6-1.2,8.4-.23,1.68-3.78,5.54-5.38,5.73a2.35,2.35,0,0,1-1.46-.68c-1.68-1.45-1.43-3.3-1.26-5.28.15-1.71.37-4.13-.59-5.1-4.51-4.5-5.46-9.59-3.74-15.47a8.32,8.32,0,0,0,.29-2.23,5.2,5.2,0,0,1,2.81-4.92c1.71-.93,2.21-2.45,2.49-4.31s.66-4.25,1.78-5.82c3.94-5.47,8.23-10.68,12.36-16,.65-.84,1.17-1.78,1.75-2.67l1,.63c.19,2.86,2.41,5.44.27,8.64-1.35,2-.28,4.68,1.76,5.79a4.45,4.45,0,0,0,5.83-1.11,4.72,4.72,0,0,0-.65-6.33,9.79,9.79,0,0,1-2.13-3.38c-.56-1.46-.62-3.11-1.11-4.61-.6-1.81,0-2.89,1.5-4,4.57-3.35,9.19-6.66,13.48-10.35,2.93-2.51,5.86-3.43,9.57-2.42,1.89.51,3.93.91,5.64-.8a1.8,1.8,0,0,1,1.68.16c3.2,2.66,3.21,4.22,1.29,8-1.5,3-3.36,4-6.51,3a8.46,8.46,0,0,0-3.45-.43A7.71,7.71,0,0,0,188.2,104c-1.28.9-2.24,1.63-4,1a4.4,4.4,0,0,0-5.67,3.42,4.52,4.52,0,1,0,9,1c.19-3.22,1.18-4.07,4.34-3.67a48.39,48.39,0,0,1,7.66,1.08c6.8,2,12.47.48,17.34-4.62a38.08,38.08,0,0,1,4.75-3.58c.62,5.06,1.2,9.41,1.64,13.78,0,.47-.6,1.1-1,1.53-2.29,2.23-2.42,5-.28,7a4.4,4.4,0,0,0,6.44-.5c1.84-2.24,1.24-5-1.34-6.88a3.68,3.68,0,0,1-1.57-2c-.7-4.69-1.21-9.42-1.83-14.12a18.06,18.06,0,0,0-.7-2.46,10.19,10.19,0,0,0-2.65,1c-3.24,2.35-6.52,4.67-9.53,7.29-2.5,2.17-4.91,1.74-7.77.73a8.62,8.62,0,0,1,1-1.88c3.42-3.83,3.26-7.34-.54-10.9-1.51-1.41-.75-3.06,1.36-3.48a5,5,0,0,1,2.23.12c5.69,1.77,10.48.5,14.69-3.78a5.53,5.53,0,0,1,4-1.07c5.55.58,11.06,1.5,16.6,2.14a5.25,5.25,0,0,1,4.46,2.7,6,6,0,0,0,5.89,3.41c4.05-.12,6.92,1.69,8.89,5.19a22.42,22.42,0,0,0,2.42,3.18,10.93,10.93,0,0,0,1.4,1.22ZM164.28,172.89c-.56,0-1.08-.86-1.62-1.34.49-.55.93-1.45,1.5-1.54s1.2.68,2.25,1.37C165.42,172.12,164.83,172.92,164.28,172.89ZM224.82,119c-.48,0-1.45-.91-1.38-1.23a2.34,2.34,0,0,1,1.36-1.6c.52-.1,1.2.68,2.3,1.4C226,118.26,225.43,119,224.82,119Zm-42-8.25c-.47,0-1.37-1-1.26-1.33.24-.63.93-1.43,1.51-1.49s1.11.8,2.1,1.61C184,110.11,183.39,110.74,182.78,110.71Zm-15.45,10.46a2.35,2.35,0,0,1,1.57-1.43c.34-.09,1.31.87,1.32,1.36s-.71,1.22-1.42,2.3C168.06,122.34,167.25,121.68,167.33,121.17Zm47,305.2c-17.7-1.23-33.51,16.07-32.92,31.28.63,16.12,13.27,31.52,26.92,32,10.6.39,20.14-1.1,27.89-9.18,6-6.27,9.84-13.2,8.83-20.78C245.13,439.93,232.26,427.62,214.34,426.37Zm49.91-240.61c-.65,1.06-1.34,2.11-1.92,3.21a2.38,2.38,0,0,1-3.06,1.36c-3.07-.75-6.19-1.32-9.29-2-3.56-.76-3.56-.77-3.4,3,.14,3.24.35,6.49.33,9.74a4.11,4.11,0,0,1-1.1,2.79,70.06,70.06,0,0,1-6.93,5.33c-4.15,2.81-4.85,2.56-6.93-1.91l-.42-.91c-1.52-3.15.65-7.5,4.06-8.12,2.83-.53,4.49-2.76,4-5.36a4.52,4.52,0,0,0-5.46-3.51c-2.65.62-3.85,2.86-3.33,5.78a6.77,6.77,0,0,1-.46,3c-1.45,4.46-8.12,4.58-11.1,2.16a4.44,4.44,0,0,0-6.11.59,4.62,4.62,0,0,0,.08,6.16,4.3,4.3,0,0,0,6.09.36c1.9-1.91,4.16-1.28,6.3-1.63,3.28-.53,3.3,2.36,4.39,4.12a7.06,7.06,0,0,0,.35.67c1,1.38.59,2.21-1,2.82-3.63,1.44-7.18,3.12-10.86,4.44a11.38,11.38,0,0,1-5.26.73,9.36,9.36,0,0,0-7.66,1.73c-1.27,1-3.72.48-5.59.27-.26,0-.35-2.32-.35-3.56a9.86,9.86,0,0,1,.45-3.21,5.41,5.41,0,0,1,1.65-2.48c2.37-1.78,3.06-4.55,1.46-6.74a4.57,4.57,0,0,0-6.45-.89c-2.05,1.62-2.15,4.29-.49,6.68a5.69,5.69,0,0,1,.89,3.1c0,1.66-.44,3.3-.59,5-.13,1.38-.79,1.68-2.15,1.71-3.33.05-5.47-1.62-7-4.32a9,9,0,0,0-8.22-5,5.38,5.38,0,0,1-3.39-2c-2.87-3.47-5.5-7.13-8.27-10.67a5.48,5.48,0,0,0-1.59-1,5.67,5.67,0,0,0-.9,1.62,49.91,49.91,0,0,0-.8,6.19,5.06,5.06,0,0,0,.75,3c2.17,3,4.45,6,6.84,8.91a4.5,4.5,0,0,0,2.78,1.61c3.71.13,6.55,1.46,8.33,4.84a6.46,6.46,0,0,0,1.67,2.15,9,9,0,0,0,3.49,2c5.34.89,10.73,1.46,16.08,2.29a5.6,5.6,0,0,0,4.61-1.21c1.06-.79,2.6-1.78,3.69-1.56,3.42.7,6.36-.2,9.39-1.56q7-3.1,14.06-5.87a39.21,39.21,0,0,0,12-6.91,26.67,26.67,0,0,1,4.18-3.16c2.53-1.47,3.57-3.41,3-6.37a27.18,27.18,0,0,1-.05-4.86,3.47,3.47,0,0,1,.95-.19c1.64.31,3.27.63,4.9,1,4.18.89,4.07.83,6.36-2.66,2.84-4.34,4.6-9.57,9.47-12.31a7.08,7.08,0,0,0,3.94-6.91,7.63,7.63,0,0,1,4.39-7.45c.51-.28.91-.76,1.4-1.05a5,5,0,0,0,2.45-4.07c1.16-8.93,2.52-17.82,3.62-26.75a6.09,6.09,0,0,0-1.12-4.28,7.9,7.9,0,0,1-1.9-7.8,7.26,7.26,0,0,0,.32-2.72,8.11,8.11,0,0,0-1-3.6c-2.32-3.35-4.95-6.49-7.31-9.81a5.49,5.49,0,0,0-4.44-2.62,81.85,81.85,0,0,1-8.66-1.17,5.37,5.37,0,0,0-4.61,1.17c-6.71,5.22-13.49,10.34-20.26,15.49-.75.57-1.57,1.06-2.57,1.74-.92-2.2-1.65-4-2.44-5.86a2.15,2.15,0,0,1,.86-3c2.57-1.85,5-3.91,7.6-5.69a7.07,7.07,0,0,1,3.57-1.1,4.81,4.81,0,0,0,4.9-4.07A4.45,4.45,0,0,0,252,99.51a4.29,4.29,0,0,0-5.22,3.48c-.49,3.21-3.12,3.9-5.12,5.47-2.43-3.56-2.61-4.88-1.25-8.07a4.52,4.52,0,1,0-8.28-3.65,4.36,4.36,0,0,0,2.75,6c3.55.88,3.28,4.11,4.16,6.46.27.71-1.49,2.4-2.58,3.34-2.42,2.07-2.5,2.31-.65,4.75a10,10,0,0,1,1.19,2.44c2.38,6,2.4,6-2.8,9.82a4.91,4.91,0,0,1-3.32,1.07c-4.31-.91-8.58-2.08-12.82-3.28-2.69-.76-5.6-5.44-5.08-7.88.63-3-.85-5.33-3.64-5.77a4.55,4.55,0,0,0-5.2,4.18c-.19,2.73,1.82,4.63,4.85,4.86.94.06,2.31.48,2.69,1.17,2.4,4.35,6.25,6.18,10.91,6.86a27.85,27.85,0,0,1,3.87,1c1,.28,1.91.65,3.33,1.14-1.57,1.22-2.63,2.14-3.77,2.94-1.79,1.25-2.19,2.63-.65,4.35.39.44.7.93,1.06,1.39,1.79,2.29,2.4,2.39,4.69.66,4.45-3.37,8.85-6.81,13.36-10.1a3.45,3.45,0,0,1,2.83-.66,38.19,38.19,0,0,1,7,4.31,2.84,2.84,0,0,0,3.77.33c2.64-1.61,5.25-3.26,8-4.72a6.45,6.45,0,0,1,3.23-.71c2.83.14,4.95-1.22,5.37-3.72a4.56,4.56,0,0,0-3.58-5.22c-2.41-.48-4.56,1-5.35,3.72-.47,1.58-8.71,7.26-10.33,7.11a.67.67,0,0,1-.24-.07l-6-3.44a7.18,7.18,0,0,1,.89-1.17q8.63-6.61,17.29-13.18c1.31-1,7.52-.67,8.58.66,3,3.79,7.39,7.08,5.26,13-.93,2.6,0,4.75,1.77,6.84a5.92,5.92,0,0,1,1.36,4c-.79,7.11-1.84,14.2-2.87,21.29-.12.85-.42,2.06-1,2.4a14.21,14.21,0,0,0-7.8,13.11c0,1.25-2.3,2.57-3.75,3.57-.2.14-1.55-1.37-2.37-2.12-2.95-2.69-3.34-5.49-.87-8.85,1.4-1.89,2.05-4.12,4.94-4.72,2.18-.44,3-3.46,2.08-5.67a4.55,4.55,0,0,0-5.61-2.49c-2.32.8-3.86,3.37-2.82,5.59.91,1.92.43,3.27-.49,4.83s-1.68,3.07-2.44,4.64c-.43.89-1.24,2.12-.94,2.72,1.12,2.23-.43,3-1.75,3.94a19.91,19.91,0,0,0-3.13,2.47,8.69,8.69,0,0,0-1.12,2.61c1-.14,2.11,0,2.86-.47,1.94-1.24,3.71-2.74,5.5-4.1C266.51,181.37,266.61,181.89,264.25,185.76Zm-26.57-87c0,.47-1,1.34-1.4,1.25-.6-.15-1.44-.92-1.46-1.47s.81-1.14,1.61-2.14C237.06,97.47,237.72,98.12,237.68,98.73ZM251,105.37a2.4,2.4,0,0,1-1.29-1.71c-.06-.32,1-1.21,1.43-1.17.62.05,1.18.77,2.21,1.55C252.19,104.72,251.47,105.49,251,105.37Zm20.64,20.91c0,.49-1,1.47-1.27,1.4a2.4,2.4,0,0,1-1.62-1.42c-.09-.5.72-1.18,1.45-2.25C270.88,125.08,271.59,125.67,271.6,126.28Zm-35.06,67.53a2.31,2.31,0,0,1-1.6,1.37c-.32.07-1.24-.9-1.24-1.4s.69-1.19,1.39-2.24C235.82,192.62,236.62,193.28,236.54,193.81Zm-28-74.19c-.49,0-1.48-.91-1.41-1.26a2.25,2.25,0,0,1,1.37-1.58c.54-.09,1.22.68,2.31,1.36C209.79,118.88,209.19,119.6,208.58,119.62ZM266.94,160a2.25,2.25,0,0,1,1.55-1.39c.36-.07,1.31.86,1.3,1.33s-.7,1.2-1.4,2.25C267.66,161.2,266.86,160.56,266.94,160Zm-68.83,47.14c.06-.54.94-1.25,1.57-1.38.36-.08,1.3.87,1.3,1.36s-.69,1.23-1.38,2.31C198.86,208.4,198.06,207.75,198.11,207.18Zm18.43-1.83a2.24,2.24,0,0,1-1.48-1.47c-.1-.36.78-1.36,1.27-1.39s1.24.63,2.34,1.27C217.67,204.55,217.07,205.39,216.54,205.35Zm-15.65-8.57c8-3.37,16.11-6.68,24.1-10.16,2.1-.91,2.36-2.84,1-4.67-1-1.34-2.06-2.62-3-4-1.3-1.86-2.64-1.87-4.38-.52-6.44,5-12.93,9.89-19.41,14.83-.33.26-.83.46-.94.79a4.3,4.3,0,0,0-.36,2.44c.25.7,1.17,1.17,1.69,1.64C200.26,197,200.59,196.9,200.89,196.78Zm6.86-28.9c-2.21-.31-4.59,1-4.92,3.27-.3,2.09-1.54,3.14-3,4.26-4.8,3.6-9.47,7.36-14.34,10.85a7.75,7.75,0,0,0-3.73,6.33c-.06,1.08-1,2.2-1.66,3.16a4.53,4.53,0,0,0,.43,6.31,4.46,4.46,0,0,0,6.11-.12,4.56,4.56,0,0,0,.45-6.12c-1.86-2.56-1.66-4,.93-6,5-3.86,10-7.75,15.13-11.47a8.86,8.86,0,0,1,4-1.41c2.56-.32,4.42-2,4.46-4.51A4.62,4.62,0,0,0,207.75,167.88Zm-.77,5.9c-.49,0-1.43-1-1.34-1.29.19-.65.88-1.49,1.45-1.57s1.17.77,2.22,1.56C208.21,173.14,207.58,173.8,207,173.78Zm-22,24.91a2.36,2.36,0,0,1-1.55,1.41c-.34.08-1.29-.87-1.29-1.35s.71-1.19,1.44-2.26C184.24,197.55,185,198.21,184.93,198.69ZM248.68,167c5.09-5.92,10.06-11.94,15.09-17.92,1-1.22,1.43-2.37.16-3.72-1.41-1.5-2.51-.54-3.66.33-5.22,4-10.43,8-15.67,11.94-6.13,4.65-5.78,3.64-.76,10.2a8.24,8.24,0,0,0,1.71,1.24A13.83,13.83,0,0,0,248.68,167Zm-19.45-11.53c-.12,1-.23,2-.36,3a5.7,5.7,0,0,1-6.39,4.88,30.11,30.11,0,0,0-4.21-.46c-.56,0-1.11.73-1.67,1.13.43.52.78,1.35,1.31,1.49,1.44.4,3,.36,4.42.76a6.43,6.43,0,0,1,3.1,1.59c2,2.27,4.65,2.85,6.79,1.17s2.23-4.34.4-6.86a6,6,0,0,1,2.06-8.25,50.92,50.92,0,0,0,4.59-3.45c1.57-1.23,3-2.37,5.34-2.06s4.08-1.84,4.28-4.06a4.5,4.5,0,0,0-3.53-4.78c-2.2-.48-4.86.68-5.13,2.84-.33,2.66-2.11,3.79-3.87,5.13s-3.8,2.72-5.52,4.28a17.38,17.38,0,0,0-2.29,3.25Zm15.17-10.12a2.33,2.33,0,0,1-1.45-1.51c-.08-.32.83-1.28,1.33-1.31s1.21.64,2.31,1.29C245.54,144.6,244.92,145.42,244.4,145.35Zm-15,21.51c-.44,0-1.32-.82-1.35-1.31a1.88,1.88,0,0,1,1.19-1.48c.61,0,1.28.6,2.44,1.23C230.57,166.09,230,166.81,229.37,166.86ZM188,152.16c-1.85,1.66-3.93,3.08-5.92,4.59-3,2.27-5.13,1.94-7.41-1.12a4.52,4.52,0,0,0-6.22-1.07,4.43,4.43,0,0,0-1.24,6.15c1.39,2.1,4.21,2.93,6.07,1.31,2.27-2,4.39-1.13,6.75-.59a4.82,4.82,0,0,0,3.34-.41c2.7-1.79,5.18-3.9,7.8-5.83a3.37,3.37,0,0,0,1.53-3.6c-.29-2-.12-3.84,1.83-5.3a4.26,4.26,0,0,0,.53-6.4,4.43,4.43,0,0,0-6.46-.23c-1.87,1.73-1.86,4.33,0,6.46.6.7,1.1,1.49,1.85,2.52A18.91,18.91,0,0,1,188,152.16Zm3.86-7.81c-.6,0-1.14-.87-1.7-1.36.48-.55.9-1.42,1.47-1.54s1.21.63,2.27,1.25C193,143.52,192.4,144.39,191.89,144.35ZM169.57,158.1c0-.48,1-1.37,1.38-1.28.62.18,1.47.93,1.5,1.48s-.82,1.16-1.63,2.17C170.2,159.37,169.54,158.72,169.57,158.1ZM155,139a5,5,0,0,1-.61,4.64c-1.11,2-2.25,4.07-3.19,6.19-.26.58.15,1.47.25,2.21.75-.3,1.83-.38,2.19-.93a63.45,63.45,0,0,0,3.08-5.68c.87-1.7,1.63-3.22,4-3.6s3.38-2.79,2.95-5a4.37,4.37,0,0,0-4.42-3.62A4.32,4.32,0,0,0,155,139Zm4.14.1a2.3,2.3,0,0,1-1.34-1.62c-.07-.35.92-1.27,1.4-1.25s1.2.75,2.26,1.5C160.35,138.41,159.66,139.19,159.13,139.09ZM239,173.54a4.49,4.49,0,0,0-4.49,4.38,4.52,4.52,0,1,0,4.49-4.38Zm1.44,4.5a2.23,2.23,0,0,1-1.47,1.44c-.36.09-1.34-.8-1.36-1.27s.64-1.23,1.29-2.31C239.68,176.9,240.49,177.51,240.45,178Zm36-40.39a4.42,4.42,0,0,0-4.63,4.48,4.6,4.6,0,0,0,4.63,4.55,4.5,4.5,0,0,0,4.39-4.5A4.59,4.59,0,0,0,276.43,137.65Zm1.31,4.52a2.29,2.29,0,0,1-1.54,1.42c-.34.08-1.3-.84-1.31-1.33s.67-1.23,1.34-2.32C277,141,277.81,141.64,277.74,142.17Z"
        transform="translate(-115.84 -10.28)" />
<style>._black { fill: #333; }</style></svg>