<svg xmlns="http://www.w3.org/2000/svg" viewBox="0 0 500 500">
  <defs>
    <style>
      @keyframes rotation
      {
        from  { transform: rotateZ(0deg); }
        to    { transform: rotateZ(360deg); }
      }

      path { fill: #7B7B7B; }

      path:nth-of-type(2)
      {
        transform-origin: 50% 50%;
        animation: rotation 4s infinite linear;
      }
    </style>
  </defs>
  <path d="M186.87,273.67v-71H155.31a31.58,31.58,0,0,0-31.57,31.57V344.69a31.56,31.56,0,0,0,31.57,31.57H265.78a31.56,31.56,0,0,0,31.57-31.57V313.13h-71A39.45,39.45,0,0,1,186.87,273.67ZM344.69,123.74H234.22a31.58,31.58,0,0,0-31.57,31.57V265.78a31.56,31.56,0,0,0,31.57,31.57H344.69a31.56,31.56,0,0,0,31.57-31.57V155.31A31.58,31.58,0,0,0,344.69,123.74Z" transform="translate(-5 -5)"/>
  <path d="M287.38,5C394.14,21.27,478.73,105.86,495,212.62a3.94,3.94,0,0,1-3.91,4.5H472.4a4,4,0,0,1-3.89-3.33c-15.38-93.17-89.13-166.92-182.3-182.3a4,4,0,0,1-3.33-3.89V9A3.94,3.94,0,0,1,287.38,5ZM31.49,213.79c15.38-93.17,89.13-166.92,182.3-182.3a4,4,0,0,0,3.33-3.89V9A3.94,3.94,0,0,0,212.62,5C105.86,21.27,21.27,105.86,5,212.62A3.94,3.94,0,0,0,9,217.12H27.6A4,4,0,0,0,31.49,213.79Zm437,72.42c-15.38,93.17-89.13,166.92-182.3,182.3a4,4,0,0,0-3.33,3.89v18.65a3.94,3.94,0,0,0,4.5,3.91C394.14,478.73,478.73,394.14,495,287.38a3.94,3.94,0,0,0-3.91-4.5H472.4A4,4,0,0,0,468.51,286.21ZM213.79,468.51c-93.17-15.38-166.92-89.13-182.3-182.3a4,4,0,0,0-3.89-3.33H9A3.94,3.94,0,0,0,5,287.38C21.27,394.14,105.86,478.73,212.62,495a3.94,3.94,0,0,0,4.5-3.91V472.4A4,4,0,0,0,213.79,468.51Z" transform="translate(-5 -5)"/>
</svg>