<svg xmlns="http://www.w3.org/2000/svg" viewBox="0 0 242 242">
    <path fill="white" d="M70.91,98.92a36.61,36.61,0,0,1-2.58,13.71,32.17,32.17,0,0,1-7.13,11,37.94,37.94,0,0,1-13.52,8.59Q39.9,135.15,28,135.16H15.48v41.46H.69V65.38H28.63A74.34,74.34,0,0,1,45.43,67a36,36,0,0,1,12.26,5.31A30.45,30.45,0,0,1,67.4,83.12,33,33,0,0,1,70.91,98.92Zm-15.39.38a23.52,23.52,0,0,0-2-10,16.65,16.65,0,0,0-6-7,23.54,23.54,0,0,0-8.18-3.29,59,59,0,0,0-11.62-1H15.48v44.45H25.56a58.27,58.27,0,0,0,14.5-1.46,19.53,19.53,0,0,0,9.18-5.19A21.07,21.07,0,0,0,54,108.56,26.33,26.33,0,0,0,55.52,99.3Z" />
    <path fill="#0054fc" d="M160.78,142.18a33.42,33.42,0,0,1-3.14,14.64,29,29,0,0,1-8.44,10.68,39.58,39.58,0,0,1-13.45,7q-7.17,2.08-18.52,2.09H85V65.38h67.76V78.53h-53V109h17.86a106.82,106.82,0,0,1,18.52,1.31,31,31,0,0,1,13.53,6.24,26.33,26.33,0,0,1,8.36,10.9A38.28,38.28,0,0,1,160.78,142.18Zm-15.46.3a24.74,24.74,0,0,0-1.83-9.86,15.41,15.41,0,0,0-5.79-6.88,20.92,20.92,0,0,0-9.49-3.36,145.93,145.93,0,0,0-15.17-.6H99.82V164h12.85A90.89,90.89,0,0,0,128,163a24,24,0,0,0,9.37-3.73,18,18,0,0,0,6.09-6.84A22.8,22.8,0,0,0,145.32,142.48Z"/>
    <path fill="#fd0001" d="M232.72,123a25.71,25.71,0,0,1,6.17,8q2.43,4.81,2.42,12.44a32.34,32.34,0,0,1-3,13.86,35.3,35.3,0,0,1-8.22,11.17,36.22,36.22,0,0,1-13.3,7.54,56.12,56.12,0,0,1-17.63,2.62,82.59,82.59,0,0,1-19.05-2.06,87.84,87.84,0,0,1-13.89-4.29V155.7h1a66.45,66.45,0,0,0,14.53,7,51.29,51.29,0,0,0,17.15,3,41.4,41.4,0,0,0,10.87-1.46,21.79,21.79,0,0,0,9.07-4.74,21.3,21.3,0,0,0,5.38-7.13A23.73,23.73,0,0,0,226,142.7a20.26,20.26,0,0,0-2.05-9.56,16.55,16.55,0,0,0-5.79-6.28,24.7,24.7,0,0,0-8.78-3.39,56,56,0,0,0-10.95-1H186.78V110.05h10.16q11.81,0,19-4.7t7.18-13.75a12.93,12.93,0,0,0-6.73-11.88A23.08,23.08,0,0,0,209,77a45.69,45.69,0,0,0-8.4-.71,41.22,41.22,0,0,0-9.41,1.08A68.23,68.23,0,0,0,182.45,80a52.16,52.16,0,0,0-6.8,3.29c-1.94,1.15-3.54,2.09-4.78,2.84h-1V69.79a71.26,71.26,0,0,1,13.82-4.41,76.78,76.78,0,0,1,17.25-2,65.59,65.59,0,0,1,14.8,1.46,36.39,36.39,0,0,1,11.35,4.74,25.06,25.06,0,0,1,8.4,8.63A23.73,23.73,0,0,1,238.33,90a22.92,22.92,0,0,1-6,15.77,28.48,28.48,0,0,1-15.72,8.81v1.12a43.77,43.77,0,0,1,8.1,2.39A28.09,28.09,0,0,1,232.72,123Z"/>
    <path d="M16,177.12H.19V64.88H28.62a74.94,74.94,0,0,1,16.93,1.66A36.34,36.34,0,0,1,58,71.92a31,31,0,0,1,9.87,11,33.62,33.62,0,0,1,3.57,16,37.41,37.41,0,0,1-2.61,13.9A32.89,32.89,0,0,1,61.55,124a38.73,38.73,0,0,1-13.7,8.71c-5.21,2-11.88,2.95-19.82,2.95H16Zm-14.79-1H15V134.66H28c7.82,0,14.37-1,19.47-2.88a37.85,37.85,0,0,0,13.35-8.48,32.16,32.16,0,0,0,7-10.85,36.48,36.48,0,0,0,2.54-13.53A32.66,32.66,0,0,0,67,83.36,30.05,30.05,0,0,0,57.4,72.74a35.69,35.69,0,0,0-12.08-5.23,74.09,74.09,0,0,0-16.7-1.63H1.19ZM25.56,123H15V77.58H27.73a59.31,59.31,0,0,1,11.72,1,24.05,24.05,0,0,1,8.35,3.36A17.23,17.23,0,0,1,54,89.08,24,24,0,0,1,56,99.3a26.62,26.62,0,0,1-1.53,9.44,21.63,21.63,0,0,1-4.89,7.49,20.14,20.14,0,0,1-9.42,5.33A59.31,59.31,0,0,1,25.56,123ZM16,122h9.58a58.27,58.27,0,0,0,14.37-1.44,19.17,19.17,0,0,0,9-5.06,20.73,20.73,0,0,0,4.67-7.15A25.73,25.73,0,0,0,55,99.3a23.22,23.22,0,0,0-1.93-9.8,16.29,16.29,0,0,0-5.84-6.74,22.77,22.77,0,0,0-8-3.22,58,58,0,0,0-11.51-1H16Zm101.25,55.09H84.53V64.88h68.76V79h-53v29.48h17.36a108.12,108.12,0,0,1,18.61,1.31A31.71,31.71,0,0,1,150,116.16a26.93,26.93,0,0,1,8.52,11.11,38.88,38.88,0,0,1,2.73,14.91A34.14,34.14,0,0,1,158.09,157a29.65,29.65,0,0,1-8.58,10.86A40.46,40.46,0,0,1,135.89,175C131.09,176.41,124.81,177.12,117.23,177.12Zm-31.7-1h31.7c7.48,0,13.67-.7,18.39-2.07a39.26,39.26,0,0,0,13.27-6.94,28.75,28.75,0,0,0,8.3-10.5,33.24,33.24,0,0,0,3.09-14.43,37.9,37.9,0,0,0-2.65-14.53,26,26,0,0,0-8.21-10.7,30.59,30.59,0,0,0-13.31-6.14,107,107,0,0,0-18.43-1.3H99.32V78h53V65.88H85.53Zm27.14-11.63H99.32V121.28H113a150.2,150.2,0,0,1,15.22.6,21.5,21.5,0,0,1,9.72,3.45,16,16,0,0,1,6,7.09,25.43,25.43,0,0,1,1.87,10.06,23.37,23.37,0,0,1-2,10.19,18.52,18.52,0,0,1-6.25,7,24.56,24.56,0,0,1-9.57,3.81A91.89,91.89,0,0,1,112.67,164.49Zm-12.35-1h12.35a91,91,0,0,0,15.19-1,23.61,23.61,0,0,0,9.18-3.65,17.52,17.52,0,0,0,5.92-6.65,22.41,22.41,0,0,0,1.86-9.75,24.6,24.6,0,0,0-1.79-9.67,15,15,0,0,0-5.61-6.65,20.47,20.47,0,0,0-9.27-3.28,144.76,144.76,0,0,0-15.11-.6H100.32Zm98.86,15.65A83.49,83.49,0,0,1,180,177.07a88.58,88.58,0,0,1-14-4.32l-.3-.14V155.2h1.69l.13.08A65.23,65.23,0,0,0,182,162.21a50.8,50.8,0,0,0,17,3,41.25,41.25,0,0,0,10.74-1.44,21.36,21.36,0,0,0,8.87-4.63,21.08,21.08,0,0,0,5.26-7,23.42,23.42,0,0,0,1.67-9.47,19.84,19.84,0,0,0-2-9.33,16,16,0,0,0-5.61-6.08,24.09,24.09,0,0,0-8.61-3.33,55.73,55.73,0,0,0-10.85-1H186.28V109.55h10.66c7.73,0,14-1.55,18.7-4.62s7-7.51,7-13.33a12.42,12.42,0,0,0-6.48-11.44,22.67,22.67,0,0,0-7.2-2.67,45.68,45.68,0,0,0-8.31-.7,41,41,0,0,0-9.3,1.07,67.14,67.14,0,0,0-8.67,2.63,51.08,51.08,0,0,0-6.73,3.25l-4.78,2.84-.11.07h-1.62V69.47l.29-.13a71.55,71.55,0,0,1,13.92-4.45,77.91,77.91,0,0,1,17.37-2,66.57,66.57,0,0,1,14.91,1.47,37.18,37.18,0,0,1,11.51,4.81A25.82,25.82,0,0,1,236,78,24.34,24.34,0,0,1,238.83,90a23.51,23.51,0,0,1-6.14,16.1,29,29,0,0,1-15.6,8.88v.31a44.36,44.36,0,0,1,7.79,2.34,28.6,28.6,0,0,1,8.17,4.94h0a26.28,26.28,0,0,1,6.28,8.19c1.65,3.26,2.48,7.52,2.48,12.66a33,33,0,0,1-3,14.07,36,36,0,0,1-8.33,11.33A37,37,0,0,1,217,176.5,56.85,56.85,0,0,1,199.18,179.14ZM166.74,172a87.37,87.37,0,0,0,13.51,4.14,82.09,82.09,0,0,0,18.93,2,56.09,56.09,0,0,0,17.48-2.59,35.93,35.93,0,0,0,13.11-7.44,34.82,34.82,0,0,0,8.1-11,31.88,31.88,0,0,0,2.94-13.65c0-5-.79-9.09-2.37-12.21a25.25,25.25,0,0,0-6-7.88h0a27.69,27.69,0,0,0-7.89-4.77,43.62,43.62,0,0,0-8-2.37l-.41-.07v-1.94l.39-.09a28.12,28.12,0,0,0,15.46-8.66A22.48,22.48,0,0,0,237.83,90a23.29,23.29,0,0,0-2.74-11.59A24.82,24.82,0,0,0,226.85,70a36.24,36.24,0,0,0-11.2-4.67A65.15,65.15,0,0,0,201,63.86a76.39,76.39,0,0,0-17.14,2,71.64,71.64,0,0,0-13.44,4.24V85.65h.34l4.66-2.77a52.59,52.59,0,0,1,6.87-3.32,69.33,69.33,0,0,1,8.81-2.68,42.41,42.41,0,0,1,9.53-1.09,46.67,46.67,0,0,1,8.49.72,23.6,23.6,0,0,1,7.52,2.78,13.43,13.43,0,0,1,7,12.31c0,6.18-2.49,11-7.4,14.17s-11.32,4.78-19.25,4.78h-9.66V122h11.15a56.9,56.9,0,0,1,11,1,25.08,25.08,0,0,1,9,3.47,17,17,0,0,1,6,6.46,20.84,20.84,0,0,1,2.11,9.79,24.37,24.37,0,0,1-1.76,9.88,21.85,21.85,0,0,1-5.5,7.3,22.39,22.39,0,0,1-9.28,4.86,42.33,42.33,0,0,1-11,1.47,52.1,52.1,0,0,1-17.32-3.05,66.94,66.94,0,0,1-14.51-7h-.39Z" />
<style>._black { fill: #333; }</style></svg>