<svg xmlns="http://www.w3.org/2000/svg" viewBox="0 0 256 256">
    <ellipse id="bottomEllipsis" cx="128" cy="230.94" rx="106.91" ry="24" style="fill:#a5a5a5;opacity:0.8" />
    <path id="lightCone"
        d="M128,206.75c53.26,0,97.41,8.74,105.55,20.18L155.45,7.69H97.15L22.31,227.06C30.21,215.55,74.5,206.75,128,206.75Z"
        style="fill:#d8d6d6;opacity:0.8" />
    <ellipse id="topEllipsis" cx="126.34" cy="7.88" rx="29.15" ry="6.82" style="fill:#ef4036" />
    <path id="letter"
        d="M91,224.49V115.29h35.39q20.12,0,26.22,1.64a28.65,28.65,0,0,1,15.72,10.69q6.33,8.22,6.33,21.26,0,10.06-3.65,16.91a30,30,0,0,1-9.28,10.77,32,32,0,0,1-11.43,5.17q-7.91,1.58-22.87,1.57H113.09v41.19Zm22-90.73v31h12.07q13,0,17.43-1.71a14.42,14.42,0,0,0,6.89-5.37,14.62,14.62,0,0,0,2.5-8.49,14.12,14.12,0,0,0-3.5-9.83,15.25,15.25,0,0,0-8.87-4.84q-3.95-.75-15.86-.75Z"
        style="fill:#ef4036" />
<style>._black { fill: #333; }</style></svg>