<svg xmlns="http://www.w3.org/2000/svg" viewBox="0 0 256 256">
    <path class="_black" d="M108.6,90.7,94.5,146.3c-6.6,26.2-13,45.3-19.3,57.1s-13.6,20.5-22,26.2a50.1,50.1,0,0,1-28.8,8.5q-10.2,0-15-3.9A12,12,0,0,1,4.5,225a11.49,11.49,0,0,1,4-8.6A15.21,15.21,0,0,1,19,212.8c3.6,0,6.4.9,8.3,2.8a9.29,9.29,0,0,1,2.9,7q0,3.9-1.8,5.7c-1.2,1.2-1.8,2.1-1.8,2.5l.6.8a2.72,2.72,0,0,0,1.7.6,8.89,8.89,0,0,0,6.1-2.3,35.29,35.29,0,0,0,9.5-13.7c1.4-3.7,4.2-13.4,8.3-29.2L77.3,90.8H60.6l4-14.1c6,.1,10.4-.7,13.1-2.3s5.6-5.2,8.6-10.8q13.2-24.45,27.9-35A54.47,54.47,0,0,1,147,18c7.7,0,13.3,1.5,16.8,4.4A14.28,14.28,0,0,1,169,34c0,4.2-1.2,7.5-3.5,9.9a11.78,11.78,0,0,1-8.7,3.7,11,11,0,0,1-7.9-3,9.54,9.54,0,0,1-3.1-7.2,13,13,0,0,1,2-6.4c1.3-2.2,2-3.8,2-4.6a3.1,3.1,0,0,0-.9-2.2,3,3,0,0,0-2.4-.8c-4.7,0-9.6,2.9-14.6,8.8q-12.3,14.1-19.8,44.5h17.5l-4.2,14.1-16.8-.1Zm28.7-10.2,42-7.2a120.59,120.59,0,0,1,16.1,39.5c7.9-11.6,13.8-19.8,17.8-24.4,5.4-6.3,9.8-10.3,13.3-12.2a22.6,22.6,0,0,1,11.1-2.8q6.6,0,10.2,3.6c2.4,2.4,3.6,5.7,3.6,9.8a12.65,12.65,0,0,1-3.6,9.4,11.85,11.85,0,0,1-8.9,3.7,33.73,33.73,0,0,1-8.9-1.4,31.28,31.28,0,0,0-6.9-1.4,15.41,15.41,0,0,0-9.6,3.6c-4.2,3.3-9.3,10.3-15.4,21.1q10.2,36.15,16.4,44.1c2.4,3.1,4.9,4.7,7.3,4.7a9.49,9.49,0,0,0,5.4-1.6c2.3-1.7,5.9-5.9,10.7-12.6l4.3,2.5c-7.1,11.4-14,19.4-20.7,24.1-5.1,3.6-10.2,5.4-15.2,5.4s-9.4-1.1-12.8-3.4-6.4-6-9.1-11.2-5.8-13.5-9.4-24.9c-9.4,11.9-16.8,20.7-22.1,26.2s-9.8,9.1-13.3,10.8a25.89,25.89,0,0,1-11.3,2.5q-6.3,0-9.9-3.6a12.73,12.73,0,0,1-3.7-9.4,13.56,13.56,0,0,1,13.1-14.1h1a18,18,0,0,1,7.3,1.9c4,1.9,6.9,2.9,8.7,2.9a15.23,15.23,0,0,0,6.3-1.4c2.4-1.2,5.5-3.8,9.1-7.8,2.2-2.5,6.4-7.8,12.4-15.9-7.7-28.6-13.7-45.6-18-51.3a12.49,12.49,0,0,0-10.4-5.4,41.65,41.65,0,0,0-7.9,1Z" />
</svg>