<?xml version="1.0" encoding="UTF-8"?><svg xmlns="http://www.w3.org/2000/svg" viewBox="0 0 500 500"><path class="_black" d="m500,361.34v138.66H0c0-48.02,0-96.03,0-144.03.5-.72,1.07-1.39,1.48-2.16,6.33-11.94,14.94-21.77,26.39-29.1,14.88-9.53,31.31-15.26,48.14-20.11,4.17-1.2,8.1-1.49,11.97.86.65.39,1.75.51,2.46.25,5.63-2.09,11.21-4.32,16.81-6.47,11.9-4.56,23.91-8.86,35.12-15.05,1.46-.81,2.26-1.56,1.94-3.38-.13-.77.35-2.03.97-2.49,8.28-6.04,16.78-11.73,26.34-15.65,2.11-.86,4.03-1.5,6.19-.09,1.5.98,2.26.11,2.26-1.48,0-.72-.08-1.47-.27-2.17-.46-1.67.01-2.71,1.62-3.53,1.7-.86,3.29-1.84,4.05-3.94,1.1-3.04,2.68-5.9,3.94-8.89.56-1.32,1.27-2.79,1.16-4.13-.29-3.47-.98-6.9-1.54-10.35-1.5-9.38-3.77-18.71-4.34-28.14-.68-11.33.05-22.75.21-34.13.07-4.87.52-9.76.33-14.62-.25-6.13-.21-12.15,1.67-18.09,1.2-3.79,2.22-7.65,3.01-11.55,2.85-14,5.56-28.02,8.34-42.03,4.37-21.98,8.79-43.95,13.14-65.94.9-4.53,1.63-9.08,2.44-13.63.49,0,.98,0,1.46,0-.12,4.94-.34,9.89-.33,14.83.01,13.25-.24,26.52.3,39.75.56,13.72,1.94,27.4,2.97,41.1.04.51.29,1,.4,1.36,21.69-7.41,43.05-6.8,64.12.69.96-8.06,2.3-16.09,2.79-24.18,1.09-18.01,1.83-36.04,2.54-54.07.25-6.48-.01-12.99-.04-19.48C288.41,0,288.74,0,289.06,0c.15.86.3,1.72.45,2.58,3.48,19.35,6.94,38.69,10.45,58.03,2.55,14.07,5.22,28.12,7.74,42.19,1.59,8.87,2.97,17.77,4.53,26.64.89,5.03,2.71,10.02,2.8,15.05.24,13-.58,26.02-.36,39.02.27,15.73-2.11,31.05-5.56,46.31-1.66,7.33-4.27,14.81.07,22.19.24.4.29.93.35,1.41.2,1.61.98,2.58,2.71,2.42,2.13-.19,2.44.85,2.11,2.68-.25,1.42-.18,2.9-.26,4.65,1.08-.28,1.61-.29,1.98-.53,2.27-1.46,4.41-.84,6.68.11,9.29,3.89,17.63,9.37,25.85,15.08,1.24.86,1.52,1.85,1.26,3.34-.14.77.38,2.15,1.01,2.47,5.27,2.7,10.52,5.51,16.01,7.73,11.66,4.71,23.48,9.05,35.2,13.64,1.8.71,3.31.93,5.04-.08,3.08-1.78,6.35-1.69,9.68-.65,5.19,1.61,10.4,3.16,15.59,4.79,14.6,4.57,28.36,10.83,40.48,20.34,8.53,6.69,14.9,15.15,19.99,24.61,1.7,3.16,3.75,5.83,7.11,7.3Zm-240.25,8.85c-.55.96-1.03,1.59-1.3,2.3-1.37,3.56-2.8,7.1-3.98,10.73-.5,1.53-1.15,2.02-2.75,1.97-3.08-.1-6.19-.1-9.26.18-1.78.16-2.32-.43-2.85-2.01-1.42-4.19-3.12-8.29-4.7-12.43-.23.05-.46.09-.69.14-.27,2.3-.4,4.62-.83,6.89-1.36,7-2.8,13.98-4.34,20.94-.14.64-1.25,1.53-1.91,1.54-11.41.06-22.75-.62-33.86-3.5-12.59-3.27-22.84-9.59-28.74-21.76-3.47-7.15-2.39-14.37,3.29-19.86.51-.49,1.2-.79,1.81-1.18-.16-.21-.33-.43-.49-.64-.6.12-1.21.2-1.79.36-21.99,6.09-40.39,18.03-55.75,34.72-8.7,9.46-15.44,20.11-18.01,32.97-.18.88-.17,1.79-.26,2.76.61,0,.87.06,1.09,0,11.52-3.42,23.28-4.44,35.22-3.4,8.15.71,16.14,2.05,23.35,6.22,6.88,3.98,12.67,8.92,14.25,17.27.28,1.46.25,2.98.38,4.72.8-.43,1.37-.69,1.89-1.03,8.32-5.51,17.44-7.4,27.23-5.75,9.64,1.62,18.23,5.87,26.1,11.49,6.43,4.59,12.4,9.73,16.62,16.61,2.36,3.85,4.92,7.57,7.51,11.53.98-1.83,1.86-3.73,2.95-5.48,7.33-11.77,17.11-21.05,29.15-27.85,15.28-8.63,30.72-9.88,46.13-.16.39.24.86.35,1.55.63-.59-7.23,2.67-12.53,7.6-17.07,4.59-4.22,9.98-7.01,15.94-8.61,15.51-4.16,31.04-3.76,46.55.08,1.28.32,2.57.59,4.25.97-1.57-8.12-3.85-15.37-8.03-21.87-13.69-21.29-32.57-36.25-56.02-45.52-3.89-1.54-7.97-2.58-11.97-3.85-.04.73.1,1.02.33,1.21,7.52,6.35,7.65,14.95,3.48,22.46-4.33,7.82-10.66,13.44-18.91,16.89-13.81,5.78-28.37,6.7-43.07,6.64-.63,0-1.6-.84-1.82-1.49-.94-2.76-1.91-5.55-2.39-8.41-1.1-6.56-1.93-13.16-2.95-20.32Z"/><style>._black { fill: #333; }</style></svg>