<svg xmlns="http://www.w3.org/2000/svg" viewBox="0 0 256 256">
    <path d="M244.8,0H227.2c-25.56,59.85-51,119.74-76.77,179.5-6,14-14,26.89-25.69,37.13-10.13,8.89-21.95,14.69-35.31,15-29.8.67-59.62.32-89.43.38v12.8q1.22,10,11.2,11.2H244.8q10-1.22,11.2-11.2V11.2Q254.79,1.22,244.8,0Z" style="fill:#fe7700" />
    <path d="M111.36,167.57c2.82,5.63,2.45,9.56-1.47,14.25-6.46,7.74-13.91,12.65-24.43,12.84-28.49.51-57,1.4-85.46,2.14V11.2Q1.22,1.22,11.2,0H30.4C42.2,27.83,56.52,54.46,69.45,81.76Q89.88,124.92,111.36,167.57ZM75.2,0c-.62,2.05.72,3.57,1.48,5.21Q95.82,46.67,115,88.1c6.15,13.31,12.31,26.62,18.62,40.26,2.77-2.37,3.21-5,4.17-7.41,9.27-23.08,18.73-46.08,27.78-69.24,6.72-17.22,14.61-34,20-51.71Z" style="fill:#009ff6" />
</svg>