<svg fill="#7B7B7B" xmlns="http://www.w3.org/2000/svg" viewBox="0 0 512 512" x="0px" y="0px"><path d="M296.2,160.66a80.23,80.23,0,0,0,15.73-51.13,1.77,1.77,0,0,1,0-.23c0-.45,0-.9-.06-1.36A80.34,80.34,0,0,0,276.42,46,80.7,80.7,0,0,0,254.11,77.4h0a79.49,79.49,0,0,0-5.33,22.85c-.19,2.34-.29,4.7-.27,7.07,0,.74,0,1.47,0,2.21s.06,1.48.1,2.23a80.9,80.9,0,0,0,11.46,36.84,82,82,0,0,0,9,12H273l1.11-57.35a7,7,0,0,1,14,.27L287,160.66Z"></path><path d="M359.74,135.64c-.22,0-23.08,2.89-44.3,25h54.47a80.55,80.55,0,0,0,26.64-51.44,80.35,80.35,0,0,0-70.6,5.59A94,94,0,0,1,323.09,136c18.45-12.33,34.24-14.18,35.19-14.28a7,7,0,0,1,1.46,13.93Z"></path><path d="M125.7,95a43.85,43.85,0,0,0-4.42,33.5c2.43,9.09,8.71,21.16,16.65,32.13h106c1-2.34,1.84-4.84,2.64-7.48-.33-.61-.66-1.21-1-1.82-.09-.17-.18-.32-.26-.49-.43-.82-.85-1.64-1.26-2.47-.09-.19-.17-.38-.26-.56-.31-.65-.62-1.3-.91-2l-.38-.87c-.24-.55-.49-1.11-.72-1.67-.14-.33-.27-.66-.4-1-.21-.53-.42-1.05-.62-1.58-.14-.35-.27-.7-.4-1.06s-.37-1-.55-1.53-.26-.75-.38-1.12-.34-1-.5-1.51-.23-.76-.35-1.15-.3-1-.44-1.5l-.33-1.17c-.14-.5-.27-1-.39-1.51l-.3-1.19c-.12-.5-.23-1-.35-1.51s-.18-.79-.26-1.19-.21-1-.3-1.54-.16-.79-.23-1.19-.18-1-.26-1.57-.13-.77-.19-1.16c-.08-.56-.16-1.11-.23-1.67-.05-.36-.1-.72-.14-1.08-.07-.61-.14-1.23-.2-1.84l-.09-.92c-.08-.92-.15-1.84-.21-2.77-.09-1.45-.13-2.89-.15-4.33,0-.18,0-.35,0-.53,0-1.36,0-2.72.05-4.08,0-.24,0-.47,0-.71.06-1.33.14-2.67.25-4l.06-.71q.18-2,.45-4c0-.17,0-.34.07-.52.2-1.38.42-2.77.67-4.14a.17.17,0,0,0,0-.07c.26-1.38.56-2.76.88-4.13.05-.18.08-.35.13-.53.31-1.31.66-2.61,1-3.91.07-.22.13-.44.2-.67.38-1.28.78-2.55,1.22-3.82l.09-.28a44.2,44.2,0,0,0-60-5.34l-.25.17-.31.22a13.39,13.39,0,0,1-1.68,1,7.42,7.42,0,0,0-.18-.94,46.56,46.56,0,0,1,7.57-40.73,7,7,0,1,0-10.63-9.11A57.91,57.91,0,0,0,163.87,41.5a24.85,24.85,0,0,0-34.27-5.73,24.85,24.85,0,0,0,33.77,7.54A60.42,60.42,0,0,0,163.16,73,44.17,44.17,0,0,0,125.7,95Z"></path><path d="M118.24,331.52,91.29,474.73c0,.19-.08.38-.13.57A14,14,0,0,0,104.67,493H406.76a14,14,0,0,0,13.52-17.73,3.9,3.9,0,0,1-.13-.57l-27-143.21a34.68,34.68,0,0,0-33.64-26.95H151.88A34.68,34.68,0,0,0,118.24,331.52Zm72.09,67.28a7.92,7.92,0,0,1,0-.85,65.84,65.84,0,0,1,18.76-43.88,8,8,0,0,1,.54-.62,6.09,6.09,0,0,1,.61-.53,65.91,65.91,0,0,1,92.23,0,5.23,5.23,0,0,1,1.15,1.15A65.8,65.8,0,0,1,322.43,398a6,6,0,0,1,.06.85c0,.16,0,.31,0,.46,0,.31,0,.61,0,.92a65.86,65.86,0,0,1-18.82,46.12,5.77,5.77,0,0,1-1.14,1.14,65.92,65.92,0,0,1-92.24,0,6.09,6.09,0,0,1-.61-.53c-.19-.2-.37-.4-.54-.61a65.85,65.85,0,0,1-18.81-46.12c0-.31,0-.61,0-.92C190.34,399.11,190.33,399,190.33,398.8Z"></path><path d="M220.13,405.8h-15.5A51.92,51.92,0,0,0,215,431.71l10.82-10.82a7,7,0,1,1,9.89,9.9L224.89,441.6a51.65,51.65,0,0,0,24.52,10.18V436.46a7,7,0,1,1,14,0v15.32a51.7,51.7,0,0,0,24.52-10.18l-10.82-10.81a7,7,0,0,1,9.9-9.9l10.82,10.82a51.82,51.82,0,0,0,10.35-25.91H292.69a7,7,0,0,1,0-14h15.12a51.88,51.88,0,0,0-10-23.14L287,379.48a7,7,0,0,1-9.9-9.9l10.82-10.82a51.9,51.9,0,0,0-24.52-10.18V363.9a7,7,0,1,1-14,0V348.58a51.85,51.85,0,0,0-24.52,10.18l10.82,10.82a7,7,0,0,1-9.91,9.9L215,368.66a51.77,51.77,0,0,0-10,23.14h15.12a7,7,0,1,1,0,14Z"></path><rect x="221.95" y="246.52" width="68.92" height="44.04"></rect><path d="M299.63,174.66H91.46l33,45.7a29.36,29.36,0,0,0,23.75,12.16H364.64a29.34,29.34,0,0,0,23.75-12.16l33-45.7Z"></path></svg>