<svg xmlns="http://www.w3.org/2000/svg" viewBox="0 0 500 500">
    <style>
        .cls-1 { fill: #88fefe; }
        .cls-2 { fill: #1dbed2; }
        .cls-3 { fill: #1aa6b7; }
        .cls-4 { fill: #fff; }
        .cls-5 { fill: #fc8b11; }
        .cls-6 { fill: #ffddb8; }
    </style>
    <g>
        <path class="cls-1" d="M250,0C111.93,0,0,111.93,0,250A249.22,249.22,0,0,0,73.22,426.78L426.78,73.22A249.22,249.22,0,0,0,250,0Z" />
        <g>
            <g>
                <polyline class="cls-2" points="31.02 203.54 92.45 227.71 80.83 245.07 75.13 248.3 31.02 203.54" />
                <polyline class="cls-2" points="43.9 340.11 118.34 332.76 122.91 384.99 101.84 398.16 43.9 340.11" />
                <polyline class="cls-2" points="273.13 26.78 284.74 89.27 328.88 109.86 328.15 91.62 328.15 81.42 273.13 26.78" />
                <polyline class="cls-2" points="398.96 80.99 409.1 90.9 397.73 109.86 382.73 108.25 398.96 80.99" />
            </g>
        </g>
        <path class="cls-2" d="M250,139.48a110.52,110.52,0,0,0-78.15,188.67l156.3-156.3A110.18,110.18,0,0,0,250,139.48Z" />
        <path class="cls-3" d="M500,250A249.22,249.22,0,0,0,426.78,73.22L73.22,426.78A249.22,249.22,0,0,0,250,500C388.07,500,500,388.07,500,250Z" />
    </g>
    <g>
        <path class="cls-4" d="M394.7,99.12l0,0,5.08-14a4.07,4.07,0,0,0-1.4-4.69L365.16,56.32a4.07,4.07,0,0,0-4.89.08L321,87c-.07.05-.12.12-.18.17l-2.11,1.64a173.53,173.53,0,0,0-29.77-9.66L288.28,77c0-.12,0-.24-.08-.36L274.45,28.79a4.07,4.07,0,0,0-3.93-2.95h-41a4.07,4.07,0,0,0-3.91,2.95L211.82,76.65s0,0,0,.06l-.71,2.48a173.53,173.53,0,0,0-29.77,9.66L151.49,65.57h0l-11.78-9.19a4.07,4.07,0,0,0-4.91-.09L101.65,80.43a4.07,4.07,0,0,0-1.43,4.69l5.09,14h0l2.85,7.84,9.07,24.95,0,0,1,2.78a175.42,175.42,0,0,0-18.34,25.21l-37.84-1.3h0l-14.9-.51a4.07,4.07,0,0,0-4,2.81L30.47,200a4.07,4.07,0,0,0,1.59,4.63l41.26,27.87.11.06,2.38,1.61c-.45,5.14-.7,10.34-.7,15.59s.25,10.45.7,15.58l-31.4,21.2h0l-12.35,8.34a4.07,4.07,0,0,0-1.59,4.63l12.68,39a4.07,4.07,0,0,0,4,2.8l14.9-.51h0l16.56-.57,18.31-.63h0l3-.1a175.42,175.42,0,0,0,18.34,25.21L108.67,391l63.21-63.21A110.48,110.48,0,1,1,328.12,171.6l63.21-63.21Z" />
        <path class="cls-5" d="M260,433.13A174.87,174.87,0,0,0,383.61,134.6L136.3,381.91A174.33,174.33,0,0,0,260,433.13Z" />
        <path class="cls-6" d="M291.35,378.27l23.77,25.46a2.84,2.84,0,0,0,3.37.59l25.57-13a2.84,2.84,0,0,0,1.49-3.09l-2-10.24-3.22-16.62L338.93,354l-.4-2.06c2.76-2.32,5.45-4.76,8.05-7.36s5-5.29,7.36-8.05l19.4,3.76,16.86,3.26a2.84,2.84,0,0,0,3.08-1.5l13-25.57a2.84,2.84,0,0,0-.59-3.37l-20-18.64-7-6.57a122.7,122.7,0,0,0,3.4-21.5l1.88-.91,31.56-14.74a2.84,2.84,0,0,0,1.65-3l-4.49-28.34a2.84,2.84,0,0,0-2.47-2.39l-34.59-4.28-2.05-.25a121.37,121.37,0,0,0-10-19.5l.9-1.62L381.4,160.9a2.84,2.84,0,0,0-.49-3.4l-10.25-10.25-56.08,56.08.15.14A77.27,77.27,0,0,1,205.46,312.74l-.14-.15L148.95,369l10.31,10.31a2.84,2.84,0,0,0,3.4.49l30.47-16.87,2-1.11a121.36,121.36,0,0,0,19.4,9.88l2.82,22.9L219,408.28a2.84,2.84,0,0,0,2.39,2.47l28.31,4.45a2.84,2.84,0,0,0,3-1.6L267.49,382l.91-1.88a122.7,122.7,0,0,0,21.54-3.4Z" />
    </g>
</svg>