<svg xmlns="http://www.w3.org/2000/svg" viewBox="0 0 1600 300">
    <path class="_black" d="M1106.57,289.38c-13.51-3.59-26.83-7.12-40.15-10.67l-68.13-18.2a5.76,5.76,0,0,1-4-3c-4.39-7.94-9-15.76-13.38-23.72-1.15-2.09-2.36-3-4.9-2.94-9.36.23-18.73.22-28.1.14a5.62,5.62,0,0,1-3.58-1.49q-39-38.7-77.93-77.52c-.52-.51-1-1.06-1.85-2,2.4-2.27,4.79-4.43,7.07-6.71q36-35.84,71.89-71.75a7,7,0,0,1,5.59-2.26c9.27.15,18.54.09,27.82.23a3.42,3.42,0,0,0,3.48-2c4.65-8.33,9.33-16.64,14.15-24.87a6,6,0,0,1,3.25-2.56q52.82-14.24,105.67-28.28c1-.26,2-.44,3.14-.71,2.3,8.48,4.58,16.87,6.84,25.25l22.17,82.32a6.32,6.32,0,0,1-.71,5.43c-4.87,8-9.49,16.13-14.31,24.14a3.3,3.3,0,0,0,0,4q7.44,12.39,14.64,24.92a4.91,4.91,0,0,1,.57,3.29Q1121.5,234.23,1107,288C1106.9,288.32,1106.78,288.67,1106.57,289.38Zm-16-223.21c-7.14,12.32-13.89,24-20.7,35.76,13.6,13.22,20.77,29.17,20.7,48s-7.45,34.85-21.11,47.87c7,12.13,13.92,24,21,36.22.37-1,.61-1.46.76-2q11.15-39.83,22.22-79.67a9.41,9.41,0,0,0-.12-4.8c-4.79-17.39-9.7-34.75-14.57-52.13-2.75-9.51-5.36-19-8.22-29.25Zm-24,181.7c-.68-1.3-1-2.09-1.49-2.85-6-10.34-12-20.64-17.92-31-1.06-1.86-2-2.33-4.1-1.71a58.36,58.36,0,0,1-27.22,1.73c-27.43-5.06-45.25-21-53.24-47.81-.57-1.9-1.39-2.37-3.25-2.36-11.86.08-23.73,0-35.6,0-.76,0-1.53.14-2.64.25.58.67.85,1,1.16,1.34q29.25,29.74,58.54,59.45a8,8,0,0,0,3.56,1.9q30.36,7.84,60.75,15.58ZM920.93,136.28a16,16,0,0,0,1.69.24h37c1.83,0,2.24-.8,2.65-2.38,7.5-29.14,32.41-49.14,62.17-49.43,7.22-.08,14.45,1.5,22.24,2.38l19.9-34.38c-1.14.2-1.76.26-2.37.41q-40.07,10.25-80.11,20.56a8.55,8.55,0,0,0-3.7,2.18q-21.33,21.54-42.55,43.2Zm120.35-39.9c-32.53-10.65-65.41,13.33-69.53,40a4.58,4.58,0,0,0,.81.14c14.56,0,29.12,0,43.67-.06a4.21,4.21,0,0,0,2.89-1.9c3.78-6.27,7.39-12.63,11.05-19Zm-.58,106.91c-.2-.5-.42-1-.67-1.47-7-12.09-14-24.2-21.09-36.22a4.46,4.46,0,0,0-3.3-1.65c-13.81-.11-27.61-.07-41.41-.06-.82,0-1.63.09-2.48.14,6.11,27.16,36.8,48.62,69,39.26Zm23.85-13.94c24.52-23.43,19.89-61.84.22-78.73-7.37,12.76-14.76,25.48-22,38.28a3.9,3.9,0,0,0,.26,3.2c4.13,7.34,8.39,14.6,12.62,21.89ZM101.62,150a85,85,0,1,1,0,.41Zm46-48.83a5.22,5.22,0,0,0-.2.87c0,21.52-.24,43,.12,64.55.24,14.45,9.38,25.78,23.2,30A56.54,56.54,0,0,0,196.11,198c6.89-1.07,13.28-3.41,18.7-7.88,8.14-6.72,11.59-15.69,11.64-26,.11-20.31.05-40.62,0-60.93,0-.62-.09-1.24-.15-1.92H206v49.11c0,4.64.08,9.28-.17,13.91-.5,9.19-4.58,15.1-12.16,16.43a44.58,44.58,0,0,1-13.74,0c-5.6-.81-9.32-4.59-10.67-10.07a49,49,0,0,1-1.38-11.25c-.14-18.27-.06-36.54-.06-54.81v-3.34ZM144,45.72c35.11-14.55,69.34-10.93,101.75,7.63L264.5,34.58C230.67,10.31,176.62.62,128,23.91,85.78,44.1,60.37,77.82,50,123.7H75.12c.63,0,1.27-.1,1.83-.14C87.09,87,108.84,60.27,144,45.72Zm-3.47,235.36c43.84,15.19,85.39,9.17,124.35-15.53l-19.1-19.05c-32.65,18.59-66.85,22.18-102,7.55S87,212.68,76.93,176.25H50.5c6.57,39.75,36.58,86.33,90,104.83ZM302.37,72.68,283.59,91.12q32.82,59-.1,117.77l18.78,18.76C336.56,178.36,331.56,112.45,302.37,72.68Zm993.37,92.14h26.93v52.23c0,26,18.87,45,44.84,45.05q65.82.09,131.64,0a46.57,46.57,0,0,0,20.27-4.43l19.79,19.79a56.78,56.78,0,0,1-20.79,9.33,98.31,98.31,0,0,1-19.78,2.4c-43.55.21-87.1.15-130.66.09-33.53,0-61.14-20.52-69.79-52a74.39,74.39,0,0,1-2.49-18.12c-.32-17.51-.12-35-.11-52.53C1295.59,166.15,1295.67,165.63,1295.74,164.82ZM1537.33,21.07c-12-7.36-25-10.61-39-10.6q-64.51.07-129,0c-3.6,0-7.22.2-10.81.55-34.29,3.39-61.93,32.84-62.76,67.3-.43,17.94-.11,35.9-.13,53.85,0,.52.08,1,.13,1.73h27V83c0-26.31,19-45.3,45.33-45.32q65.34-.06,130.67.07c4.76,0,9.94.2,14.15,2.06,5.41,2.39,8.34.86,11.79-3.07,4.45-5.07,9.49-9.6,14.41-14.5C1538.2,21.68,1537.78,21.35,1537.33,21.07ZM1571,218.37V81.77a77.87,77.87,0,0,0-.76-11.11,67.3,67.3,0,0,0-9.9-26.7c-6.48,6.46-12.78,12.66-18.92,19-.57.59-.35,2.15-.19,3.2.86,5.59,2.59,11.16,2.62,16.74q.33,65.67,0,131.34c0,6.46-1.73,12.91-2.58,19.37a3.47,3.47,0,0,0,.42,2.54c6.18,6.34,12.46,12.58,19.06,19.19A70.74,70.74,0,0,0,1571,218.37Zm-966.68,71A139.16,139.16,0,1,1,743.61,152.14,139.13,139.13,0,0,1,604.32,289.39Zm69.26-257.5c-1.06.24-1.78.36-2.49.55L581,56.5a5.79,5.79,0,0,0-3.9,3.08c-3.68,6.65-7.56,13.18-11.18,19.86a4.15,4.15,0,0,1-4.37,2.47c-7.6-.16-15.21-.07-22.81-.22a6.1,6.1,0,0,0-4.86,2q-30.32,30.32-60.7,60.53c-2.28,2.27-4.67,4.42-7.08,6.68.74.8,1.09,1.23,1.48,1.61q33.42,33.3,66.88,66.55a5.3,5.3,0,0,0,3.37,1.34c8,.07,15.95,0,23.93-.1a3.72,3.72,0,0,1,3.92,2.2c3.57,6.6,7.46,13,11.05,19.61a7.18,7.18,0,0,0,4.95,3.87c21.66,5.68,43.3,11.49,64.94,17.27l26.81,7.17c.26-.75.48-1.25.62-1.77q12.24-45.46,24.39-90.94a6,6,0,0,0-.64-4.06q-5.84-10.26-12-20.34a3.75,3.75,0,0,1,.07-4.48c4-6.57,7.8-13.26,11.8-19.82a6,6,0,0,0,.72-5.17q-8.08-29.76-16.07-59.52c-2.88-10.72-5.77-21.43-8.74-32.43Zm-36.68,36q-34.27,8.79-68.53,17.67a7.53,7.53,0,0,0-3.22,2q-20.52,20.77-40.94,41.65c-3.14,3.2-6.27,6.41-10,10.18H518q38.37,0,76.76.05a4.3,4.3,0,0,0,4.34-2.51q13.89-24.21,28-48.32c4-6.87,7.92-13.76,12.06-20.94a17.19,17.19,0,0,0-2.26.26Zm21.52,13.48q-19.65,33.9-39.32,67.78a3.46,3.46,0,0,0,.13,4q19.37,33.27,38.61,66.59c.53.92,1.09,1.82,1.81,3,.29-.65.42-.87.49-1.1q9.69-34.48,19.33-69a7.69,7.69,0,0,0-.17-3.78c-2.28-8.4-4.65-16.77-7-25.14-4.12-14.68-8.24-29.36-12.52-44.63-.69,1.23-1,1.77-1.36,2.32ZM638.54,233.48q-20-34.51-40-69a4.46,4.46,0,0,0-3.33-1.57q-39-.12-77.91,0c-.76,0-1.52.12-2.63.22.72.8,1.13,1.29,1.57,1.74q24.46,24.93,49,49.8a9.64,9.64,0,0,0,4.25,2.29q24.71,6.47,49.47,12.75c6.61,1.69,13.23,3.34,20.16,5.08A11.93,11.93,0,0,0,638.54,233.48Z" />
<style>._black { fill: #333; }</style></svg>