<svg xmlns="http://www.w3.org/2000/svg" viewBox="0 0 500 500">
    <path fill="#009ff4" d="M103.46,118.29c0,27.52-22.67,50.77-49.5,50.77-27.52,0-50.76-23.25-50.76-50.77A50.23,50.23,0,0,1,52.88,67.52H54C81.25,67.52,103.46,90.3,103.46,118.29ZM54,330.94c-27.52,0-50.76,23.25-50.76,50.77a50.23,50.23,0,0,0,49.68,50.77H54c27.29,0,49.5-22.78,49.5-50.77C103.46,354.19,80.79,330.94,54,330.94ZM164.3,192.25c6.49,2.36,14.1,2.36,20.22,2.36H461.31c6.86,0,14.65,0,21.27-2.34,9.17-3.23,14.22-10.49,14.22-20.43,0-13.23-7.51-19-13.81-21.45-6.58-2.59-14.25-2.59-20.41-2.59H184.52c-6.17,0-13.83,0-20.41,2.59-6.3,2.48-13.82,8.22-13.82,21.45C150.29,181.72,155.27,189,164.3,192.25ZM482.58,307.93c-6.62-2.34-14.41-2.34-21.27-2.34H184.52c-6.12,0-13.73,0-20.22,2.36-9,3.29-14,10.54-14,20.41,0,13.24,7.52,19,13.82,21.46,6.58,2.59,14.24,2.59,20.41,2.59h278c6.16,0,13.83,0,20.41-2.59,6.3-2.49,13.81-8.22,13.81-21.46C496.8,318.43,491.75,311.17,482.58,307.93Z" />
</svg>