<svg xmlns="http://www.w3.org/2000/svg" viewBox="0 0 640 640">
    <path class="_black" d="M288.73,384a243,243,0,0,1,48-144.95c5.17-6.94,4.45-16.54-2.15-22.14l-24.69-21c-7-6-17.83-5.09-23.38,2.23a307.46,307.46,0,0,0,0,371.68c5.56,7.32,16.38,8.18,23.38,2.23l24.69-21c6.59-5.61,7.31-15.2,2.15-22.14a242.88,242.88,0,0,1-48-144.94ZM224,80a16,16,0,0,0-16-16H160A104,104,0,0,0,56,168v64H16A16,16,0,0,0,0,248v48a16,16,0,0,0,16,16H56V440a24.07,24.07,0,0,1-24,24H16A16,16,0,0,0,0,480v48a16,16,0,0,0,16,16H32A104,104,0,0,0,136,440V312h40a16,16,0,0,0,16-16V248a16,16,0,0,0-16-16H136V168a24.07,24.07,0,0,1,24-24h48a16,16,0,0,0,16-16ZM577.48,198.16c-5.56-7.32-16.38-8.18-23.38-2.23l-24.69,21c-6.59,5.61-7.31,15.2-2.15,22.14a242.82,242.82,0,0,1,0,289.9c-5.17,6.94-4.45,16.54,2.15,22.14l24.69,21c7,5.95,17.83,5.09,23.38-2.23a307.48,307.48,0,0,0,0-371.69Zm-54.17,231.9L477.25,384l46.06-46.06a16,16,0,0,0,0-22.63l-22.62-22.62a16,16,0,0,0-22.63,0L432,338.75l-46.06-46.06a16,16,0,0,0-22.63,0l-22.62,22.62a16,16,0,0,0,0,22.63L386.75,384l-46.06,46.06a16,16,0,0,0,0,22.63l22.62,22.62a16,16,0,0,0,22.63,0L432,429.25l46.06,46.06a16,16,0,0,0,22.63,0l22.62-22.62A16,16,0,0,0,523.31,430.06Z" />
</svg>