<svg xmlns="http://www.w3.org/2000/svg" viewBox="0 0 500 500">
  <path d="M60,35H40a15,15,0,0,0,0,30H60a15,15,0,0,0,0-30ZM44.3,51.88H41.8v2.5a1.88,1.88,0,0,1-3.75,0v-2.5l-2.42-.08a1.84,1.84,0,1,1-.07-3.68h2.49v-2.5a1.88,1.88,0,1,1,3.75,0v2.5h2.5A1.88,1.88,0,0,1,46.18,50,1.84,1.84,0,0,1,44.3,51.88Zm14.38,5a3.05,3.05,0,0,1-3.06-3.06,3.15,3.15,0,0,1,3.06-3.12,3.1,3.1,0,0,1,3,3.12A3,3,0,0,1,58.68,56.88Zm5-7.5a3.05,3.05,0,0,1-3.06-3.06,3.15,3.15,0,0,1,3.06-3.12,3.05,3.05,0,0,1,3.05,3.12A3,3,0,0,1,63.68,49.38Z" transform="translate(-25 -25)"/>
  <path d="M150,47.57a3.13,3.13,0,1,0,3.13,3.13A3.12,3.12,0,0,0,150,47.57Zm21.88,0H171A21.26,21.26,0,0,0,153.13,29.7v-.88a3.13,3.13,0,0,0-6.25,0v.88A21.26,21.26,0,0,0,129,47.57h-.88a3.13,3.13,0,0,0,0,6.25H129A21,21,0,0,0,146.88,71.7v.87a3.1,3.1,0,0,0,3,3.13,3.27,3.27,0,0,0,3.22-3.13V71.7A21,21,0,0,0,171,53.82h.87a3.13,3.13,0,0,0,0-6.25ZM160.62,61.32a15,15,0,0,1-7.49,4.1V63.2a3.13,3.13,0,1,0-6.25,0v2.19a14.12,14.12,0,0,1-7.19-4.07,15.92,15.92,0,0,1-4-7.5h1.78a3.05,3.05,0,0,0,3-3.12,3.11,3.11,0,0,0-3-3.13h-1.81a13.76,13.76,0,0,1,4-7.19,15.77,15.77,0,0,1,7.19-3.86V38.2a3.1,3.1,0,0,0,3,3.12,3.27,3.27,0,0,0,3.22-3.12V36.3a13.77,13.77,0,0,1,7.49,4.08,14.71,14.71,0,0,1,3.95,7.19H162.5a3.13,3.13,0,0,0,0,6.25h2.21A15,15,0,0,1,160.62,61.32Z" transform="translate(-25 -25)"/>
  <path d="M270.3,29H229.61A4.67,4.67,0,0,0,225,33.64V68.08a4.67,4.67,0,0,0,4.61,4.69H270.3a4.69,4.69,0,0,0,4.7-4.69V33.64A4.64,4.64,0,0,0,270.3,29ZM235.87,65.73a.78.78,0,0,1-.78.78h-4.7a.78.78,0,0,1-.78-.78V61a.78.78,0,0,1,.78-.78H235a.78.78,0,0,1,.78.78Zm0-12.52a.78.78,0,0,1-.78.78h-4.7a.78.78,0,0,1-.78-.78v-4.7a.78.78,0,0,1,.78-.78H235a.78.78,0,0,1,.78.78v4.7Zm0-12.52a.78.78,0,0,1-.78.78h-4.7a.78.78,0,0,1-.78-.78V36a.78.78,0,0,1,.78-.78H235a.78.78,0,0,1,.78.78ZM259.35,65a1.56,1.56,0,0,1-1.57,1.56H242.13A1.57,1.57,0,0,1,240.56,65V55.56A1.57,1.57,0,0,1,242.13,54h15.65a1.57,1.57,0,0,1,1.57,1.57Zm0-18.79a1.57,1.57,0,0,1-1.57,1.57H242.13a1.57,1.57,0,0,1-1.57-1.57V36.77a1.57,1.57,0,0,1,1.57-1.56h15.65a1.56,1.56,0,0,1,1.57,1.56ZM270.3,65.73a.78.78,0,0,1-.78.78h-4.61a.71.71,0,0,1-.69-.78V61a.78.78,0,0,1,.78-.78h4.61a.78.78,0,0,1,.78.78v4.7Zm0-12.52a.78.78,0,0,1-.78.78h-4.61a.78.78,0,0,1-.78-.78v-4.7a.78.78,0,0,1,.78-.78h4.61a.78.78,0,0,1,.78.78Zm0-12.52a.78.78,0,0,1-.78.78h-4.61a.78.78,0,0,1-.78-.78V36a.77.77,0,0,1,.7-.78h4.6a.78.78,0,0,1,.79.78v4.7Z" transform="translate(-25 -25)"/>
  <path d="M333.12,36.88h-3.74a1.88,1.88,0,0,0-1.88,1.87v8.13a2.5,2.5,0,0,0-.07,5L327.5,60a1.88,1.88,0,0,0,1.88,1.88h3.74A1.88,1.88,0,0,0,335,60V38.75A1.88,1.88,0,0,0,333.12,36.88Zm27.5-5h-3.74A1.87,1.87,0,0,0,355,33.75V46.88H345V33.75a1.87,1.87,0,0,0-1.88-1.87h-3.74a1.87,1.87,0,0,0-1.88,1.87V65a1.88,1.88,0,0,0,1.88,1.88h3.74A1.88,1.88,0,0,0,345,65V51.88h10V65a1.88,1.88,0,0,0,1.88,1.88h3.74A1.88,1.88,0,0,0,362.5,65V33.75A1.87,1.87,0,0,0,360.62,31.88Zm11.88,15V38.75a1.88,1.88,0,0,0-1.88-1.87h-3.74A1.88,1.88,0,0,0,365,38.75V60a1.88,1.88,0,0,0,1.88,1.88h3.74A1.88,1.88,0,0,0,372.5,60V51.88a2.5,2.5,0,0,0,0-5Z" transform="translate(-25 -25)"/>
  <path d="M474.91,60.85c0,4.31-4.2,7.81-9.29,7.81s-9.28-3.5-9.28-7.72,4.2-7.73,9.28-7.73a11,11,0,0,1,3.13.48V39.46l-25,7.42V67.2c-.09,4.3-4.2,7.8-9.46,7.8S425,71.5,425,67.19s4.2-7.73,9.29-7.73a11,11,0,0,1,3.12.48V37.35a3.33,3.33,0,0,1,2.19-3l31.16-9.22a5.33,5.33,0,0,1,1.12-.15A3.12,3.12,0,0,1,475,28.12Z" transform="translate(-25 -25)"/>
  <path d="M50,126.84a18.76,18.76,0,0,0-18.75,18.75c0,7.56,2.63,9.67,16.83,30.25a2.35,2.35,0,0,0,3.85,0c14.18-20.58,16.82-22.69,16.82-30.25A18.76,18.76,0,0,0,50,126.84Zm0,26.48a7.82,7.82,0,1,1,7.81-7.81A7.82,7.82,0,0,1,50,153.32Z" transform="translate(-25 -25)"/>
  <path d="M167.19,148.72h-4.3l-2.55-5.2a9.4,9.4,0,0,0-6-5l-6.95-2.06a9.66,9.66,0,0,0-2.19-.26,9.31,9.31,0,0,0-5.69,1.93l-3.88,3a3.12,3.12,0,0,0,1.9,5.6,3.06,3.06,0,0,0,1.9-.65l3.87-3a3.22,3.22,0,0,1,1.91-.67,2.12,2.12,0,0,1,.57.07l1.43.41-3.66,8.55a5.91,5.91,0,0,0-.5,2.43,6.27,6.27,0,0,0,3.07,5.4l8.31,4.9-2.69,8.57a3,3,0,0,0-.14.93,3.13,3.13,0,0,0,2.19,3,3,3,0,0,0,.93.14,3.12,3.12,0,0,0,3-2.19l3.1-9.87a4.9,4.9,0,0,0,.17-1.26,4.73,4.73,0,0,0-2.3-4.05l-6-3.52,3.05-7.66,2,4.06a4.74,4.74,0,0,0,4.13,2.62h5.36a3.13,3.13,0,0,0,0-6.25Zm-10.94-12.5a4.69,4.69,0,1,0-4.69-4.69A4.69,4.69,0,0,0,156.25,136.22ZM140.8,157.85l-1.45,3.37h-6.54a3.13,3.13,0,0,0,0,6.25h7.57a4.67,4.67,0,0,0,4.3-2.84l.86-2-1-.61A9.21,9.21,0,0,1,140.8,157.85Z" transform="translate(-25 -25)"/>
  <path d="M241.16,152.33a5.85,5.85,0,0,0-4.5,5.79,9,9,0,0,1,3.91-2.41Zm-8.68,3.89-2.47-14a.27.27,0,0,1,0-.2,30.44,30.44,0,0,1,14.76-3.83h.37a7.3,7.3,0,0,1,4-2,35.19,35.19,0,0,1,4.47-.41,5,5,0,0,0-3.27-2.11,34.14,34.14,0,0,0-5.61-.45,35.36,35.36,0,0,0-17.19,4.46,5.16,5.16,0,0,0-2.52,5.43l2.48,14c1.11,6.28,10.65,11.09,16,11.09a6.39,6.39,0,0,0,.78-.05,23.89,23.89,0,0,1-3.09-5.29C237.51,161.84,233,158.8,232.48,156.22Zm7.63-10.73a3.14,3.14,0,0,0-.32-.89A5,5,0,0,1,237,146a5,5,0,0,1-3.09-.41,3,3,0,0,0,0,.94,3.12,3.12,0,0,0,6.15-1.08Zm32.3-2.86a35.43,35.43,0,0,0-22.81-4,5.08,5.08,0,0,0-4.22,4.18l-2.49,14.09c-1.2,6.81,7.45,15.34,12.37,16.2s16-4.2,17.18-11l2.48-14A5.17,5.17,0,0,0,272.41,142.63Zm-21.36,7.56a3.13,3.13,0,0,1,6.17,1.08,3.25,3.25,0,0,1-.33.9,4.87,4.87,0,0,0-2.75-1.44,5,5,0,0,0-3.09.4A2.13,2.13,0,0,1,251.05,150.19Zm5.44,15.53a8.31,8.31,0,0,1-7-8.76,14,14,0,0,0,16.51,2.91A8.28,8.28,0,0,1,256.49,165.72Zm10.26-11.82a5.16,5.16,0,0,0-5.85-1,3,3,0,0,1,0-.94,3.12,3.12,0,0,1,6.15,1.08A3.75,3.75,0,0,1,266.75,153.9Z" transform="translate(-25 -25)"/>
  <path d="M370.82,164.4,359.29,146V131.25H360a2.28,2.28,0,0,0,2.26-2.34v-1.57A2.33,2.33,0,0,0,360,125H339.84a2.34,2.34,0,0,0-2.34,2.34v1.57a2.33,2.33,0,0,0,2.26,2.34h.69l.17,14.75-11.44,18.4a6.94,6.94,0,0,0,5.87,10.6H365A6.94,6.94,0,0,0,370.82,164.4Zm-29.31-8.15,4.71-7.58a2.67,2.67,0,0,0,.65-1.79V131.25h6.25v15.63a3.06,3.06,0,0,0,.58,1.79l4.7,7.58Z" transform="translate(-25 -25)"/>
  <path d="M475,133.87a2.71,2.71,0,0,0-2.78-2.7H452.78a2.78,2.78,0,0,0-2.7,2.11l-7.9,31.52-6.36-12.72a2.79,2.79,0,0,0-2.49-1.54h-5.55a2.76,2.76,0,0,0-2.78,2.7,2.83,2.83,0,0,0,2.78,2.78h3.84l8.95,17.91a2.81,2.81,0,0,0,2.49,1.53,1.51,1.51,0,0,0,.3,0,2.76,2.76,0,0,0,2.39-2.08l9.2-36.79h17.27A2.66,2.66,0,0,0,475,133.87Zm-.82,17.49a2.76,2.76,0,0,0-3.92,0L466.67,155l-3.6-3.59a2.78,2.78,0,0,0-3.92,3.93l3.59,3.59-3.59,3.59a2.78,2.78,0,0,0,2,4.74,2.73,2.73,0,0,0,2-.82l3.6-3.58,3.59,3.59a2.78,2.78,0,0,0,3.93-3.93l-3.6-3.6,3.59-3.59A2.76,2.76,0,0,0,474.18,151.36Z" transform="translate(-25 -25)"/>
  <path d="M38.75,252.5a6.25,6.25,0,1,0-6.25-6.25A6.25,6.25,0,0,0,38.75,252.5ZM67.5,240H48.75a1.25,1.25,0,0,0-1.25,1.25V255H30V233.75a1.25,1.25,0,0,0-1.25-1.25h-2.5A1.25,1.25,0,0,0,25,233.75v32.5a1.25,1.25,0,0,0,1.25,1.25h2.5A1.25,1.25,0,0,0,30,266.25V262.5H70v3.75a1.25,1.25,0,0,0,1.25,1.25h2.5A1.25,1.25,0,0,0,75,266.25V247.5A7.46,7.46,0,0,0,67.5,240Z" transform="translate(-25 -25)"/>
  <path d="M158.33,237.5v25a4.17,4.17,0,0,1-4.16,4.17h-25A4.17,4.17,0,0,1,125,262.5v-25a4.17,4.17,0,0,1,4.17-4.17h25A4.17,4.17,0,0,1,158.33,237.5ZM175,238.85v22.3a2.78,2.78,0,0,1-4.37,2.23l-9.52-6.55V243.17l9.51-6.56A2.79,2.79,0,0,1,175,238.85Z" transform="translate(-25 -25)"/>
  <path d="M257.46,232.5a2.5,2.5,0,0,0-4.91-.69l-10,35a2.35,2.35,0,0,0-.1.69A2.48,2.48,0,0,0,245,270a2.52,2.52,0,0,0,2.4-1.81l10-35A2.88,2.88,0,0,0,257.46,232.5Zm-18.75,8.68a2.5,2.5,0,0,0-4.27-1.77l-8.75,8.75a2.75,2.75,0,0,0-.73,1.77,2.78,2.78,0,0,0,.73,1.84l8.75,8.75a2.41,2.41,0,0,0,1.77.66,2.5,2.5,0,0,0,1.76-4.27l-7-7,7-7A2.29,2.29,0,0,0,238.71,241.18ZM275,249.93a2.5,2.5,0,0,0-.74-1.77l-8.75-8.75a2.78,2.78,0,0,0-1.76-.73,2.5,2.5,0,0,0-1.77,4.27l7,7-7,7a2.75,2.75,0,0,0-.73,1.77,2.49,2.49,0,0,0,2.5,2.5,2.45,2.45,0,0,0,1.76-.73l8.75-8.75A2.28,2.28,0,0,0,275,249.93Z" transform="translate(-25 -25)"/>
  <path d="M140.62,356.25h1.18v1.56a1.56,1.56,0,0,0,1.56,1.57h3.91a1.56,1.56,0,0,0,1.56-1.57v-1.56H150a3.12,3.12,0,0,0,3.12-3.12V331.25a3.12,3.12,0,0,0-3.12-3.12v-1.57a1.56,1.56,0,0,0-1.56-1.56h-6.25a1.56,1.56,0,0,0-1.57,1.56v1.57a3.13,3.13,0,0,0-3.12,3.12v21.88A3.14,3.14,0,0,0,140.62,356.25Zm29.69,12.5h-.12a18.72,18.72,0,0,0-13.94-31.25v6.25a12.5,12.5,0,0,1,0,25H129.69a4.69,4.69,0,0,0-4.69,4.69,1.56,1.56,0,0,0,1.56,1.56h46.88a1.56,1.56,0,0,0,1.56-1.56A4.69,4.69,0,0,0,170.31,368.75Zm-35.15-3.12h20.31a.79.79,0,0,0,.78-.79v-1.56a.78.78,0,0,0-.78-.78H135.16a.78.78,0,0,0-.78.78v1.56A.79.79,0,0,0,135.16,365.63Z" transform="translate(-25 -25)"/>
  <path d="M342.79,226.07A25.05,25.05,0,0,0,327.09,240h10.42C338.51,234.18,340.38,229.32,342.79,226.07ZM340,250a56.4,56.4,0,0,0,.38,6.67h19.25a58.73,58.73,0,0,0,0-13.34H340.38A58.75,58.75,0,0,0,340,250Zm19.13-10c-1.7-9.17-5.56-15-9.13-15s-7.43,5.83-9.12,15Zm13.78,0a25.09,25.09,0,0,0-15.7-13.94c2.42,3.26,4.28,8.12,5.28,13.94Zm-15.7,33.94A25.37,25.37,0,0,0,372.91,260H362.49C361.49,265.82,359.63,270.69,357.21,273.94Zm16.86-30.61H363a62,62,0,0,1,0,13.34h11.1a24.38,24.38,0,0,0,0-13.34ZM340.88,260c1.69,9.17,5.55,15,9.12,15s7.43-5.83,9.12-15Zm-4.21-10a62.3,62.3,0,0,1,.36-6.67h-11.1a24.38,24.38,0,0,0,0,13.34H337A59.8,59.8,0,0,1,336.67,250Zm-9.58,10a24.87,24.87,0,0,0,15.7,13.94c-2.41-3.25-4.28-8.12-5.28-13.94Z" transform="translate(-25 -25)"/>
  <path d="M445.31,265a1.58,1.58,0,0,0-1.56,1.56v4.69h3.13v-4.69A1.58,1.58,0,0,0,445.31,265Zm9.38,0a1.57,1.57,0,1,0,1.56,1.56A1.58,1.58,0,0,0,454.69,265Zm-10.55-26.95.8,2.4a.39.39,0,0,0,.74,0l.8-2.4,2.41-.8a.4.4,0,0,0,0-.75l-2.41-.8-.8-2.4a.39.39,0,0,0-.74,0l-.8,2.4-2.4.8a.4.4,0,0,0,0,.75Zm16.81,14a18.54,18.54,0,0,1-21.9,0,16.92,16.92,0,0,0-10.93,15.81,3.39,3.39,0,0,0,3.39,3.39h9.11V265a3.12,3.12,0,0,1,3.13-3.12h12.5a3.12,3.12,0,0,1,3.13,3.12v6.25h9.11a3.39,3.39,0,0,0,3.39-3.39A16.92,16.92,0,0,0,461,252.05Zm-26.57-8.92h1.31a15.61,15.61,0,0,0,28.62,0h1.31a1.58,1.58,0,0,0,1.57-1.57v-9.37a1.58,1.58,0,0,0-1.57-1.56h-1.31a15.61,15.61,0,0,0-28.62,0h-1.31a1.58,1.58,0,0,0-1.57,1.56v9.37A1.58,1.58,0,0,0,434.38,243.13Zm3.9-8.6c0-2.16,2.1-3.9,4.69-3.9H457c2.59,0,4.69,1.74,4.69,3.9v2.35a9.38,9.38,0,0,1-9.38,9.37h-4.68a9.38,9.38,0,0,1-9.38-9.37Z" transform="translate(-25 -25)"/>
  <path d="M71.87,357.81V329.69A4.68,4.68,0,0,0,67.19,325H37.5a9.38,9.38,0,0,0-9.38,9.38v31.25A9.38,9.38,0,0,0,37.5,375H68.75a3.1,3.1,0,0,0,3.12-3,3.06,3.06,0,0,0-1.56-2.64v-7.95A5,5,0,0,0,71.87,357.81ZM42.1,337.5H60.85a1.57,1.57,0,1,1,.09,3.13H42.1a1.57,1.57,0,0,1,0-3.13Zm0,6.25H60.85a1.57,1.57,0,1,1,.09,3.13H42.1a1.57,1.57,0,0,1,0-3.13Zm23.52,25H37.5a3.13,3.13,0,1,1,0-6.25H65.62Z" transform="translate(-25 -25)"/>
  <path d="M274.85,350A12.5,12.5,0,0,1,262.5,337.5,12.48,12.48,0,0,1,250,325.15a12.78,12.78,0,0,0-7.79,1.25l-6.74,3.44a13,13,0,0,0-5.66,5.65l-3.41,6.72a12.89,12.89,0,0,0-1.26,7.91l1.18,7.45a13,13,0,0,0,3.63,7.11l5.35,5.35a12.82,12.82,0,0,0,7.1,3.63l7.48,1.18a12.9,12.9,0,0,0,7.87-1.24l6.75-3.45a12.81,12.81,0,0,0,5.64-5.64l3.43-6.72A12.84,12.84,0,0,0,274.85,350Zm-33.18,11.58a3.24,3.24,0,1,1,3.33-3.24A3.32,3.32,0,0,1,241.67,361.57ZM245,345a3.24,3.24,0,1,1,3.33-3.24A3.32,3.32,0,0,1,245,345Zm16.67,13.24A3.24,3.24,0,1,1,265,355,3.33,3.33,0,0,1,261.67,358.24Z" transform="translate(-25 -25)"/>
  <path d="M342.15,369.37a3.15,3.15,0,0,0,.51,1.73l1.68,2.51a3.5,3.5,0,0,0,2.6,1.39h6a3.52,3.52,0,0,0,2.6-1.39l1.67-2.51a3.67,3.67,0,0,0,.52-1.73v-3.83H342.14ZM349.89,325A17.11,17.11,0,0,0,337,353.41a28.32,28.32,0,0,1,5.1,8.93s0,.05,0,.08h15.64s0-.05,0-.08a27.94,27.94,0,0,1,5.1-8.93,16.76,16.76,0,0,0,4.25-11.31A17.18,17.18,0,0,0,349.89,325Zm.06,9.38a7.8,7.8,0,0,0-7.81,7.72,1.59,1.59,0,0,1-1.56,1.65,1.57,1.57,0,0,1-1.57-1.56A10.88,10.88,0,0,1,350,331.34a1.56,1.56,0,0,1,1.56,1.56A1.5,1.5,0,0,1,350,334.38Z" transform="translate(-25 -25)"/>
  <path d="M473.68,340.69l-22.09-7.9a4.83,4.83,0,0,0-3.31,0l-22,7.9A1.93,1.93,0,0,0,425,342.5a1.91,1.91,0,0,0,1.25,1.8l4.69,1.68A10.73,10.73,0,0,0,429,350.2a2.5,2.5,0,0,0-1.53,2.3,2.47,2.47,0,0,0,.93,1.9L426.49,366a1.26,1.26,0,0,0,1.24,1.46h4.54a1.25,1.25,0,0,0,1.24-1.46l-1.94-11.64a2.58,2.58,0,0,0,.93-1.9,2.47,2.47,0,0,0-1-1.95,8.3,8.3,0,0,1,1.94-3.67l14.9,5.33a5,5,0,0,0,3.31,0l22.09-7.91a1.91,1.91,0,0,0-.07-3.61Zm-21.25,13.87A6.68,6.68,0,0,1,450,355a7.64,7.64,0,0,1-2.5-.43l-11.34-4.06L435,361.66c0,3.23,6.65,5.84,15,5.84s15-2.61,15-5.83l-1.15-11.17Z" transform="translate(-25 -25)"/>
  <path d="M434.81,436l-9.76,37a1.62,1.62,0,0,0,.42,1.53,1.56,1.56,0,0,0,1.53.4l37-10.26C463.6,447.6,452,436.14,434.81,436Zm2.61,29.65a3.08,3.08,0,1,1,3.12-3.12A3,3,0,0,1,437.42,465.62Zm4.68-14.15a3.12,3.12,0,0,1-3.12-3.12,3.06,3.06,0,0,1,3.12-3,3.12,3.12,0,0,1,3.13,3A3,3,0,0,1,442.1,451.47Zm9.46,9.38a3.08,3.08,0,1,1,3.13-3A3.07,3.07,0,0,1,451.56,460.85Zm-11-35.84a3.24,3.24,0,0,0-3.45,2.36l-1.45,5.49c18.32.54,30.71,12.76,31.49,30.87l5.55-1.54a3.21,3.21,0,0,0,2.31-3.5A38.81,38.81,0,0,0,440.52,425Z" transform="translate(-25 -25)"/>
  <path d="M35.49,476.47a5.36,5.36,0,0,1-5.36-5.35V431.83a5.35,5.35,0,0,1,8.15-4.57L70.43,446.9a5.36,5.36,0,0,1,0,9.14L38.28,475.69A5.44,5.44,0,0,1,35.49,476.47Z" transform="translate(-25 -25)"/>
  <path d="M143,425.47a5.47,5.47,0,0,1,5.47,5.47V470a5.47,5.47,0,0,1-10.91.58,6,6,0,0,1-1.59.21,6.26,6.26,0,0,1-6.25-6.25,6.12,6.12,0,0,1,.35-2.07,7.82,7.82,0,0,1-.57-14.37,6.42,6.42,0,0,1-1.34-3.88,6.24,6.24,0,0,1,4.92-6.11,6,6,0,0,1-.24-1.7,6.25,6.25,0,0,1,4.72-6.06A5.47,5.47,0,0,1,143,425.47Zm19.5,4.88a6.25,6.25,0,0,1,4.72,6.06,6,6,0,0,1-.24,1.7,6.25,6.25,0,0,1,4.93,6.11,6.37,6.37,0,0,1-1.35,3.88,7.82,7.82,0,0,1-.57,14.37,6.12,6.12,0,0,1,.35,2.07,6.26,6.26,0,0,1-6.25,6.25,6,6,0,0,1-1.59-.21,5.47,5.47,0,0,1-10.91-.58V430.94a5.47,5.47,0,0,1,10.91-.59Z" transform="translate(-25 -25)"/>
  <path d="M268,424.47H257a2.35,2.35,0,0,0-1.66,4l2.9,2.89L255.58,434A15.62,15.62,0,1,0,243,461.72v1.88h-3.13a1.57,1.57,0,0,0-1.57,1.57v3a1.57,1.57,0,0,0,1.57,1.57H243v3.13a1.56,1.56,0,0,0,1.56,1.56h3.13a1.56,1.56,0,0,0,1.57-1.56v-3.13h3.13a1.56,1.56,0,0,0,1.56-1.57v-3a1.57,1.57,0,0,0-1.56-1.57h-3.13v-1.88a15.52,15.52,0,0,0,10.47-22.94l3-3,2.89,2.89a2.34,2.34,0,0,0,4-1.66V426A1.56,1.56,0,0,0,268,424.47Zm-21.91,29.74a7.83,7.83,0,1,1,7.82-7.82A7.83,7.83,0,0,1,246.09,454.21Z" transform="translate(-25 -25)"/>
  <path d="M344.89,427a24.9,24.9,0,0,0-19.44,19.38c-3.52,18.26,12.86,31.88,25.27,30,4-.62,6-5.33,4.15-9a6.61,6.61,0,0,1,5.95-9.61h7.78a6.39,6.39,0,0,0,6.34-6.38A25,25,0,0,0,344.89,427Zm-10.57,30.76a3.13,3.13,0,0,1-.09-6.25,3.17,3.17,0,0,1,3.13,3A3.08,3.08,0,0,1,334.32,457.72Zm3.12-12.5a3.13,3.13,0,1,1,3.13-3.12A3.12,3.12,0,0,1,337.44,445.22Zm12.5-6.25a3.12,3.12,0,1,1,3.13-3.12A3.12,3.12,0,0,1,349.94,439Zm12.5,6.25a3.13,3.13,0,1,1,3.13-3.12A3.12,3.12,0,0,1,362.44,445.22Z" transform="translate(-25 -25)"/>
</svg>
