<svg xmlns="http://www.w3.org/2000/svg" viewBox="0 0 256 256">
    <path fill="#1199ef" d="M128.05,17.26q51.29,0,102.57,0c6.48,0,12.31,1.52,17.09,6.19A21,21,0,0,1,254.29,39q0,67,0,134.05c0,12.34-9.42,21.58-21.69,21.58q-57.53,0-115,0a6,6,0,0,0-4.74,1.92c-12.6,12.72-25.33,25.33-37.93,38-3.69,3.73-7.83,5.1-12.78,3.25-4.4-1.65-6.65-5.65-6.66-11.35,0-9.76,0-19.53,0-29.3,0-2-.51-2.6-2.56-2.58-10,.11-19.9.07-29.85.05A21.24,21.24,0,0,1,1.73,173.49q-.1-67.44,0-134.87c0-10.95,8.71-21.45,23.21-21.4C59.31,17.35,93.69,17.26,128.05,17.26Z" />
    <path fill="#fff" d="M128.06,77.43c-2.91,8.15-5.58,15.61-8.22,23.08q-9.27,26.28-18.52,52.59c-1.42,4-2.19,4.58-6.53,4.6q-7.32,0-14.65,0c-5,0-6.21-1.63-4.58-6.37q9.78-28.41,19.61-56.8,7.2-20.85,14.41-41.71c3-8.82,10-14.06,18.54-14s15.22,5.3,18.25,14Q163.23,101.45,180.1,150l.27.77c1.75,5.21.6,6.81-4.83,6.91-4.79.08-9.57-.28-14.36.12-3.15.27-5.49-1.7-6.59-5-8.26-24.64-17.11-49.07-25.79-73.56C128.65,78.9,128.47,78.49,128.06,77.43Zm14.66,75.81a13,13,0,0,1-8.12-5.45,30.63,30.63,0,0,1-3.81-7.14c-.51-1.27-1.19-2.6-2.86-2.44s-2.38,1.33-2.74,2.91c-1.47,6.64-5.5,10.79-12.17,12.3a5.7,5.7,0,0,0-1.27.47c-1.11.55-2,1.32-1.87,2.69a2.68,2.68,0,0,0,2.24,2.41c7.15,1.62,11.51,6,13.09,13.18a2.67,2.67,0,0,0,2.8,2.41,2.51,2.51,0,0,0,2.57-2.29c1.63-7.12,6-11.52,13.13-13.17a2.91,2.91,0,0,0,2.43-2.75A3.76,3.76,0,0,0,142.72,153.24Z" />
<style>._black { fill: #333; }</style></svg>