<svg xmlns="http://www.w3.org/2000/svg" viewBox="0 0 512 512">
	<path fill="#009aed" d="M480,360V24A24,24,0,0,0,456.1,0H128A96,96,0,0,0,32,96V416a96,96,0,0,0,96,96H456a24,24,0,0,0,24-23.9V472a24.16,24.16,0,0,0-8.9-18.7c-4.2-15.4-4.2-59.3,0-74.7A24,24,0,0,0,480,360ZM188.2,271.1c13.9,0,28.4-12.3,34.5-37l13.9-55.8c3.7-14.8,9.3-37.3,9.3-45,0-13-7.1-20.3-22.8-20.3-16.6,0-45.9,12.3-57.7,49.3-1.9,5.2-4.6,5.2-9.6,5.2-3.7,0-9.9,0-9.9-5.5,0-13.6,27.8-63.8,79.2-63.8,23.1,0,45.9,8,56.1,25,5.5-7.4,20.3-25,43.8-25,24.7,0,46.3,14.5,46.3,36.1,0,20-14.8,31.8-29.3,31.8-13.3,0-20.4-9.9-20.4-18.8,0-10.2,7.4-24,22.2-28.1a33,33,0,0,0-19.7-6.2c-14.2,0-28.4,12.7-34.5,37-2.2,6.8-11.4,45-14.5,55.5-3.4,15.1-9,36.7-9,45.3,0,13,7.4,20.3,22.8,20.3,17,0,46.3-12.3,58-49.3,1.5-5.2,4.6-5.2,9.5-5.2,3.4,0,9.6,0,9.6,5.5,0,13.6-27.8,63.8-78.9,63.8-23.4,0-46.3-8-56.4-25-5.2,7.4-20.4,25-43.5,25-25,0-46.6-14.5-46.6-36.1,0-20,15.1-31.8,29.3-31.8,13.6,0,20.7,9.9,20.7,18.8,0,10.2-7.4,24-22.2,28.1A33.46,33.46,0,0,0,188.2,271.1ZM413.4,448H128a32,32,0,0,1,0-64H413.4C411.5,401.1,411.5,430.9,413.4,448Z" />
<style>._black { fill: #333; }</style></svg>