<?xml version="1.0" encoding="utf-8"?>
<svg xmlns="http://www.w3.org/2000/svg" viewBox="0 0 500 500">
    <defs>
        <style>.green { fill: #5CA551; }</style>
    </defs>
    
    <path class="green" d="M500,285.1c0,1-0.9,2-2.4,2.5c-1.5,0.5-3.2,0.5-4.8,0l-99.2-35.1c-1.5-0.5-2.4-1.5-2.4-2.5s0.9-2,2.4-2.5l99.2-35.1c1.5-0.5,3.2-0.5,4.8,0c1.5,0.5,2.4,1.5,2.4,2.5V285.1z"/>
    <path class="green" d="M0,214.9c0-1,0.9-2,2.4-2.5c1.5-0.5,3.2-0.5,4.8,0l99.2,35.1c1.5,0.5,2.4,1.5,2.4,2.5s-0.9,2-2.4,2.5L7.2,287.6c-1.5,0.5-3.2,0.5-4.8,0c-1.5-0.5-2.4-1.5-2.4-2.5L0,214.9z"/>
    <path class="green" d="M285.1,0c1,0,2,0.9,2.5,2.4c0.5,1.5,0.5,3.2,0,4.8l-35.1,99.2c-0.5,1.5-1.5,2.4-2.5,2.4s-2-0.9-2.5-2.4L212.4,7.2c-0.5-1.5-0.5-3.2,0-4.8c0.5-1.5,1.5-2.4,2.5-2.4L285.1,0z"/>
    <path class="green" d="M214.9,500c-1,0-2-0.9-2.5-2.4c-0.5-1.5-0.5-3.2,0-4.8l35.1-99.2c0.5-1.5,1.5-2.4,2.5-2.4s2,0.9,2.5,2.4l35.1,99.2c0.5,1.5,0.5,3.2,0,4.8c-0.5,1.5-1.5,2.4-2.5,2.4H214.9z"/>
    <path class="green" d="M401.9,451.6c-0.7,0.7-2.1,0.8-3.5,0.1c-1.5-0.7-2.6-1.9-3.4-3.4l-45.3-95c-0.7-1.4-0.6-2.8,0.1-3.5c0.7-0.7,2.1-0.8,3.5-0.1l95,45.3c1.5,0.7,2.6,1.9,3.4,3.4c0.7,1.4,0.6,2.7-0.1,3.5L401.9,451.6z"/>
    <path class="green" d="M98.1,48.4c0.7-0.7,2.1-0.8,3.5-0.1c1.5,0.7,2.6,1.9,3.4,3.4l45.3,95c0.7,1.4,0.6,2.8-0.1,3.5s-2.1,0.8-3.5,0.1l-95-45.3c-1.5-0.7-2.6-1.9-3.4-3.4c-0.7-1.4-0.6-2.7,0.1-3.5L98.1,48.4z"/>
    <path class="green" d="M451.6,98.1c0.7,0.7,0.8,2.1,0.1,3.5c-0.7,1.5-1.9,2.6-3.4,3.4l-95,45.3c-1.4,0.7-2.8,0.6-3.5-0.1c-0.7-0.7-0.8-2.1-0.1-3.5l45.3-95c0.7-1.5,1.9-2.6,3.4-3.4c1.4-0.7,2.7-0.6,3.5,0.1L451.6,98.1z"/>
    <path class="green" d="M48.4,401.9c-0.7-0.7-0.8-2.1-0.1-3.5c0.7-1.5,1.9-2.6,3.4-3.4l95-45.3c1.4-0.7,2.8-0.6,3.5,0.1c0.7,0.7,0.8,2.1,0.1,3.5l-45.3,95c-0.7,1.5-1.9,2.6-3.4,3.4c-1.4,0.7-2.7,0.6-3.5-0.1L48.4,401.9z"/>
    <circle class="green" cx="250" cy="250" r="100"/>
</svg>
