<?xml version="1.0" encoding="utf-8"?>
<svg xmlns="http://www.w3.org/2000/svg" viewBox="0 0 500 500">
    <defs>
        <style>
            .yellow { fill: #E0D03F; }
            .green  { fill: #5CA551; }
        </style>
    </defs>

    <path class="yellow" d="M391.3,214.9c0-1,0.9-2,2.4-2.5s3.2-0.5,4.8,0l99.2,35.1c1.5,0.5,2.4,1.5,2.4,2.5s-0.9,2-2.4,2.5l-99.2,35.1c-1.5,0.5-3.2,0.5-4.8,0c-1.5-0.5-2.4-1.5-2.4-2.5L391.3,214.9L391.3,214.9z"/>
    <path class="yellow" d="M108.7,285.1c0,1-0.9,2-2.4,2.5s-3.2,0.5-4.8,0L2.4,252.5C0.9,252,0,251,0,250s0.9-2,2.4-2.5l99.2-35.1c1.5-0.5,3.2-0.5,4.8,0c1.5,0.5,2.4,1.5,2.4,2.5L108.7,285.1z"/>
    <path class="yellow" d="M214.9,108.7c-1,0-2-0.9-2.5-2.4s-0.5-3.2,0-4.8l35.1-99.2C248,0.9,249,0,250,0s2,0.9,2.5,2.4l35.1,99.2c0.5,1.5,0.5,3.2,0,4.8c-0.5,1.5-1.5,2.4-2.5,2.4L214.9,108.7z"/>
    <path class="yellow" d="M285.1,391.3c1,0,2,0.9,2.5,2.4s0.5,3.2,0,4.8l-35.1,99.2c-0.5,1.5-1.5,2.4-2.5,2.4s-2-0.9-2.5-2.4l-35.1-99.2c-0.5-1.5-0.5-3.2,0-4.8c0.5-1.5,1.5-2.4,2.5-2.4L285.1,391.3L285.1,391.3z"/>
    <path class="green" d="M402,451.6c-0.7,0.7-2.1,0.8-3.5,0.1c-1.4-0.7-2.6-1.9-3.4-3.4l-45.3-95c-0.7-1.4-0.6-2.8,0.1-3.5c0.7-0.7,2.1-0.8,3.5-0.1l95,45.3c1.4,0.7,2.6,1.9,3.4,3.4c0.7,1.4,0.6,2.8-0.1,3.5L402,451.6L402,451.6z"/>
    <path class="green" d="M98.1,48.4c0.7-0.7,2.1-0.8,3.5-0.1c1.4,0.7,2.6,1.9,3.4,3.4l45.3,94.9c0.7,1.4,0.6,2.8-0.1,3.5c-0.7,0.7-2.1,0.8-3.5,0.1l-95-45.3c-1.4-0.7-2.6-1.9-3.4-3.4c-0.7-1.4-0.6-2.8,0.1-3.5L98.1,48.4z"/>
    <path class="green" d="M451.5,98c0.7,0.7,0.8,2.1,0.1,3.5c-0.7,1.4-1.9,2.6-3.4,3.4l-95,45.3c-1.3,0.6-2.7,0.6-3.4-0.1c-0.7-0.7-0.8-2.1-0.1-3.5l45.3-95c0.7-1.4,1.9-2.6,3.4-3.4c1.4-0.7,2.8-0.6,3.5,0.1L451.5,98z"/>
    <path class="green" d="M48.3,402c-0.7-0.7-0.8-2.1-0.1-3.5c0.7-1.4,1.9-2.6,3.4-3.4l95-45.3c1.4-0.7,2.8-0.6,3.5,0.1c0.7,0.7,0.8,2.1,0.1,3.5l-45.3,95c-0.7,1.4-1.9,2.6-3.4,3.4c-1.4,0.7-2.8,0.6-3.5-0.1L48.3,402L48.3,402z"/>
    <circle class="yellow" cx="250" cy="250" r="100"/>
    <circle class="green" cx="250" cy="250" r="70"/>
</svg>