<svg xmlns="http://www.w3.org/2000/svg" viewBox="0 0 512 512">
  <path fill="#333" d="M208,384H352v64a64,64,0,0,1-64,64H64A64,64,0,0,1,0,448V224a64,64,0,0,1,64-64h64V304A80,80,0,0,0,208,384ZM512,64V288a64,64,0,0,1-64,64H224a64,64,0,0,1-64-64V64A64,64,0,0,1,224,0H448A64,64,0,0,1,512,64ZM347.79,266.62A19.93,19.93,0,0,0,328.14,247a19.65,19.65,0,0,0-19.65,19.65c0,10.86,8.8,19.21,19.65,19.21S347.79,277,347.79,266.62Zm66.82-143.56a56.93,56.93,0,0,0-56.84-56.89H304.55a47.21,47.21,0,0,0-47.16,47.16c0,8.69,7,15.28,15.72,15.28a15.62,15.62,0,0,0,15.72-15.28,15.74,15.74,0,0,1,15.72-15.72h53.22a25.44,25.44,0,0,1,25.4,25.45c0,9.69-5.39,18.41-15,23.25l-48,28.14A14.88,14.88,0,0,0,312.42,188v19.65a15.72,15.72,0,0,0,31.44,0V197l39.31-23.09A56.58,56.58,0,0,0,414.61,123.06Z"/>
</svg>