<?xml version="1.0" encoding="utf-8"?>
<svg xmlns="http://www.w3.org/2000/svg" viewBox="0 0 500 500">
    <defs>
        <style>.yellow { fill: #E0D03F; }</style>
    </defs>

    <path class="yellow" d="M374.8,325.1c1-0.8,2.4-0.8,3.5-0.1c1.5,0.7,2.6,1.9,3.4,3.4l45.3,95c1,1,1,2.6,0,3.6s-2.6,1-3.6,0l-95-45.3c-1.5-0.7-2.6-1.9-3.4-3.4c-0.7-1.1-0.7-2.5,0.1-3.5L374.8,325.1z"/>
    <path class="yellow" d="M125.2,174.9c-1,0.8-2.4,0.8-3.5,0.1c-1.5-0.7-2.6-1.9-3.4-3.4l-45.3-95c-1-1-1-2.6,0-3.6c1-1,2.6-1,3.6,0l95,45.3c1.5,0.7,2.6,1.9,3.4,3.4c0.7,1.1,0.7,2.5-0.1,3.5L125.2,174.9z"/>
    <path class="yellow" d="M325.1,125.2c-0.8-1-0.8-2.4-0.1-3.5c0.7-1.5,1.9-2.6,3.4-3.4l95-45.3c1-1,2.6-1,3.6,0s1,2.6,0,3.6l0,0l-45.3,95c-0.7,1.5-1.9,2.6-3.4,3.4c-1.1,0.7-2.5,0.7-3.5-0.1L325.1,125.2z"/>
    <path class="yellow" d="M174.9,374.8c0.8,1,0.8,2.4,0.1,3.5c-0.7,1.5-1.9,2.7-3.4,3.4l-95,45.3c-1,1-2.6,1-3.6,0s-1-2.6,0-3.6l0,0l0,0l45.3-95c0.7-1.5,1.9-2.6,3.4-3.4c1.1-0.7,2.5-0.7,3.5,0.1L174.9,374.8z"/>
    <path class="yellow" d="M391.3,214.9c0-1,0.9-2,2.4-2.5c1.5-0.5,3.2-0.5,4.8,0l99.2,35.1c1.5,0.5,2.4,1.5,2.4,2.5s-0.9,2-2.4,2.5l-99.2,35.1c-1.5,0.5-3.2,0.5-4.8,0c-1.5-0.5-2.4-1.5-2.4-2.5V214.9z"/>
    <path class="yellow" d="M108.7,285.1c0,1-0.9,2-2.4,2.5c-1.5,0.5-3.2,0.5-4.8,0L2.4,252.5C0.9,252,0,251,0,250s0.9-2,2.4-2.5l99.2-35.1c1.5-0.5,3.2-0.5,4.8,0c1.5,0.5,2.4,1.5,2.4,2.5L108.7,285.1z"/>
    <path class="yellow" d="M214.9,108.7c-1,0-2-0.9-2.5-2.4c-0.5-1.5-0.5-3.2,0-4.8l35.1-99.2C248,0.9,249,0,250,0s2,0.9,2.5,2.4l35.1,99.2c0.5,1.5,0.5,3.2,0,4.8c-0.5,1.5-1.5,2.4-2.5,2.4L214.9,108.7z"/>
    <path class="yellow" d="M285.1,391.3c1,0,2,0.9,2.5,2.4c0.5,1.5,0.5,3.2,0,4.8l-35.1,99.2c-0.5,1.5-1.5,2.4-2.5,2.4s-2-0.9-2.5-2.4l-35.1-99.2c-0.5-1.5-0.5-3.2,0-4.8c0.5-1.5,1.5-2.4,2.5-2.4H285.1z"/>
    <circle class="yellow" cx="250" cy="250" r="100"/>
</svg>
