<svg xmlns="http://www.w3.org/2000/svg" viewBox="0 0 256 256">
    <path class="_black" d="M127.7,15.3q55.14,0,110.29,0a30.16,30.16,0,0,1,6.21.64c7.18,1.55,10.65,6.16,10.56,13.81-.07,6.83-3.86,11.58-10.77,12.79-3.28.58-3.39,2.46-3.38,5q.06,53.77,0,107.55c0,10.16-4.57,14.85-14.84,14.87-25.38.07-50.76,0-76.15,0-1.3,0-2.62.09-3.92,0-3.07-.26-3.71,1.2-4.14,4.12-1.23,8.46,1.93,14.61,8.07,20.22,8.1,7.4,15.66,15.41,23.37,23.23,4.89,5,4.83,8.15,0,13-2.48,2.51-4.93,5.06-7.52,7.46-3.88,3.6-7.16,3.54-10.9-.19-8-8-15.92-15.9-23.71-24-2.17-2.25-3.54-2.27-5.7,0-7.76,8-15.67,15.79-23.55,23.63-4.38,4.36-7.62,4.34-12.07,0q-3.64-3.57-7.22-7.21c-4.61-4.69-4.63-7.58.09-12.34,9.22-9.29,18.39-18.62,27.8-27.7a12.15,12.15,0,0,0,4.16-9.93C114.13,170,114.32,170,103.92,170c-24.07,0-48.15-.29-72.22.12-12.37.2-16.55-6.58-16.51-16.38.1-22,.06-44,0-65.94C15.18,74.23,15,60.63,15,47c0-2.68-.59-4.13-3.64-4.87-6.93-1.67-10.9-8.1-10-15.21.83-6.52,6.24-11.37,13.29-11.59,5.62-.18,11.25,0,16.88,0Zm.8,27.85c-27.08,0-54.15.06-81.22-.07-3.62,0-4.7,1.09-4.69,4.67q.18,45.12,0,90.24c0,3.88,1.32,4.86,5,4.85q80.64-.14,161.26,0c3.71,0,4.61-1.2,4.6-4.75q-.19-45.12,0-90.24c0-3.85-1.18-4.81-4.89-4.78C181.86,43.22,155.18,43.15,128.5,43.15Zm-6.8,20.37H62.82v58.89H121.7Zm71.48,4.67H134.3v10h58.88Zm0,19.54H134.3v10h58.88Zm0,20H134.3v10h58.88Z" />
</svg>