<svg xmlns="http://www.w3.org/2000/svg" viewBox="0 0 500 500">
    <path class="_black" d="M491.35,232.61a278,278,0,0,1,8.43,79.6l-.09,2.33c-.15,7.14-10.21,9.35-14.76,10.72q-29.4,8.82-59,17.07c-12.93,3.63-26,6.54-39.61,4.58-15-2.17-28.68-7.69-41.65-16.18a1.2,1.2,0,0,0-1.69.4,36.3,36.3,0,0,0-2.59,4.86c-4.24,10.79-11.37,19-20.2,26.61s-16.65,16.66-23.92,25.86c-8.64,10.94-10,23.51-4.85,36.6,2,5.09,4.23,10.11,6.25,15.21,3.74,9.49,6.29,19.19,5.3,29.75a1.21,1.21,0,0,1-1.21,1.09H143.55a5.88,5.88,0,0,1-.36-1.21,13.93,13.93,0,0,1,.21-2.41,37.57,37.57,0,0,0-2.85-24.05,120.29,120.29,0,0,1-5.89-16.36c-2.68-9.08-4.84-18.32-7.5-27.42-2.57-8.82-6.11-17.39-8.15-26.32-6.78-29.71-13-59.56-19.61-89.31-4.33-19.48-7.63-39-4.64-59,.69-4.58-1.94-7.15-5.42-8.72-6.74-3-13.64-5.78-20.58-8.35s-13.76-5.41-19-11.07A150.46,150.46,0,0,1,23.37,158.8c-7.74-16.28-15.2-32.7-22.8-49a4.52,4.52,0,0,1,1-5.61c2-2,4-4.13,6.16-5.94,5.61-4.61,11.83-8.59,16.91-13.71,12.17-12.25,26.52-21,42.11-28,16.59-7.43,34.42-12.2,49.41-23.08A26.92,26.92,0,0,1,119.26,32c9.33-5,18.33-3.67,27.22,1.25,11.47,6.36,20.79,15.25,29.44,24.93a9.33,9.33,0,0,1,2.16,4.24c1.64,8.48-2.41,14.62-8.56,19.76-5.69,4.76-12.15,5.24-17.88,1a105.11,105.11,0,0,1-16.18-15c-4.21-4.75-5-5.85-10.86-3.23-13.15,5.92-24.4,14-32.34,26.65C87.2,99.73,80.14,106.57,74,114c-.14.17-.27.34-.4.52a1.21,1.21,0,0,0,.89,1.91c5.79.43,11.23.71,16.63,1.37,13.69,1.68,25,6.46,28.52,21.8.41,1.78,3.44,3.81,5.54,4.21,6.48,1.25,13.18,1.38,19.66,2.64,13.9,2.7,23.55,12.11,33.1,21.66,6.19,6.19,10,13,7.45,22.09a1.19,1.19,0,0,0,.93,1.47l2.32.47a1.27,1.27,0,0,0,1.62-1c1.42-8.52,2.68-16.63,4.21-24.7,1.86-9.85,4.07-19.57,10.78-27.64a8.65,8.65,0,0,0,1.67-6.74c-1.48-5.38.43-9.56,3.51-13.43,4.32-5.43,8.48-11.07,13.44-15.86,9.59-9.26,20.81-15.66,34.74-14a83.54,83.54,0,0,1,34.58,11.73,32.56,32.56,0,0,1,15.18,21c4.88,21.16,4,40.89-13.84,56.4a59.68,59.68,0,0,0-6,6.11c-4.92,5.75-10.38,11.16-14.45,17.5-7.47,11.63-5,28.75,5.41,37.88,5.2,4.58,8,6.09,12.77,3.13,13.42-8.42,28.19-10.65,43.73-8.67,15.39,2,28,9.4,39,19.93,3.05,2.93,5.43,4.12,9.52,1.54,5.94-3.74,12.66-4.39,19.62-2.93,11.31,2.37,21.12,7.77,30.35,14.46,1.51,1.1,3.11,2.07,5.36,3.49a1.2,1.2,0,0,0,1.85-1,28.47,28.47,0,0,0-.1-6.09c-2.5-12.62-.23-24.43,5.89-35.55,5.8-10.51,6.91-21.68,5.41-33.34-.58-4.51-1.66-5.28-5.45-2.75-3.07,2.05-5.93,3-9.45,1.37-6-2.8-12.08-5.39-18.06-8.21-6.43-3-11.16-7.82-13.13-14.7-.65-2.25-.63-5.37.46-7.32,5.69-10.16,19-16.22,30.32-13.35,8.56,2.17,16.81,5.54,25.19,8.41,12,4.1,18.92,12.81,19.47,25.17C482.76,195.77,486.84,215,491.35,232.61Z" />
<style>._black { fill: #333; }</style></svg>