<svg xmlns="http://www.w3.org/2000/svg" viewBox="0 0 480 480">
    <path class="_black" d="M105.88,102.5V38.81A3.86,3.86,0,0,1,108.12,35c15.94-9.27,32.37-17.5,49.89-23.37a207.07,207.07,0,0,1,40.28-9.46A210.72,210.72,0,0,1,241.19.9c24.22,2,47.49,7.62,68.7,20.05,24.28,14.23,40.95,34.94,51.45,60.85,5.28,13,8.34,26.64,11,40.4,1.79,9.26,2,18.54,1.74,27.86-.15,5.74-2.92,10.72-5.72,15.55-2.66,4.61-5.54,9.1-8.51,13.52a8.44,8.44,0,0,0-1.32,6.12c1,9.63,4.66,18.53,7.5,27.66,1.8,5.8,3.67,11.58,5.32,17.44,1.74,6.16.19,8.89-6,10.55-4.74,1.25-9.56,2.22-14.35,3.33-.32.07-.66.1-1,.17-5.65,1.37-7.32,3.33-7.68,9.15-.15,2.41-.12,4.82-.19,7.24-.1,3.23-1.08,6-3.89,8-1.81,1.26-2.54,2.78-1.6,5.14,1.49,3.7.44,7.1-2.25,9.89-2.25,2.34-4.85,4.35-7,6.76a8.35,8.35,0,0,0-2.11,4.48c-.57,6-.93,12.12-1.14,18.19-.33,9.67-8.26,14.33-15.62,14.69a83.35,83.35,0,0,1-36.11-6.37c-7.39-3-14.9-5.78-22.3-8.79-2.76-1.12-4.72-.63-6.92,1.43-8.15,7.61-11.74,17-11.38,28,.26,7.8.82,15.6,1.35,23.39.09,1.39-.29,2.1-1.63,2.21-1.58.14-3.16.3-4.74.3q-24.24-.12-48.49-.28c-1.88,0-3.1-.74-3.13-2.73-.13-10.92-.64-21.83-.23-32.71.46-12.27,4.88-23.52,10.17-34.49,8.74-18.09,21.24-33.38,35.15-47.63Q242,228,263.71,206a185.85,185.85,0,0,0,28.71-37.32A81,81,0,0,0,303,118.93c-1.7-17.26-8.57-31.87-21.46-43.5-9.38-8.47-20.48-13.86-32.46-17.61C238.45,54.5,227.5,54,216.49,53.73c-33.3-.83-62.62,10.09-88.7,30.25-6.64,5.13-12.63,11.09-18.91,16.68-.79.7-1.56,1.42-2.34,2.13Zm150.34-12c0-3,.11-6.09-.06-9.11A11.73,11.73,0,0,0,255,77.81c-1.45-3.46-4.51-4.07-7.76-4.14A6.68,6.68,0,0,1,240.9,70c-.91-1.69-2.38-2.31-4.28-2.55-7.19-.87-14.39-1.77-21.54-2.93-2.88-.47-5.26-.14-7.26,2a10.2,10.2,0,0,1-11.28,3,1.17,1.17,0,0,1-.49-.07,5.84,5.84,0,0,0-6.37,1.65,10.13,10.13,0,0,1-11.27,3,1.17,1.17,0,0,1-.49-.07c-1.77-.55-3.14.07-4.57,1.18-8.17,6.33-16.41,12.56-24.61,18.84a12.48,12.48,0,0,0-2.17,2c-4.18,5.31-8.38,10.58-12.44,16-1.77,2.34-4.26,4.35-4.18,7.73a4.9,4.9,0,0,1-2.72,4.7,5,5,0,0,0-2.5,4.29c-.47,4.39-.92,8.8-1.79,13.12-.73,3.58-.19,6.54,2.5,9s3.21,5.37,2.43,8.84a5,5,0,0,0,.88,3.58c3.82,5.25,7.77,10.4,11.77,15.52a4.68,4.68,0,0,0,2.61,1.6c3.44.63,6.91,1.15,10.39,1.45a5.69,5.69,0,0,0,3.64-1q25.32-19.14,50.52-38.47c2.24-1.71,2.37-2.56.71-4.75Q197.19,123,186,108.33c-1.68-2.19-2.58-2.3-4.76-.64-5.51,4.18-10.94,8.47-16.54,12.54a5.17,5.17,0,0,0-2,5.93c1,3.85,2.46,7.6,3.84,11.35.2.54,1.05.84,1.6,1.26a5.37,5.37,0,0,0,.88-1.61c.47-3,.7-6,1.28-8.9a6.22,6.22,0,0,1,1.85-3.27c2.66-2.27,5.59-4.23,8.28-6.45,1.57-1.29,2.44-1,3.58.56,4.32,5.82,8.66,11.63,13.21,17.28,1.66,2.06,1.22,3-.72,4.49-13.57,10.24-27.06,20.58-40.58,30.89a8.39,8.39,0,0,1-11.79-1.36l-.21-.29c-3.31-4.39-3.24-3.35.82-6.52,2.8-2.2,3.56-2.07,6.1.77a4.48,4.48,0,1,0,6.83-5.79c-.07-.09-.16-.18-.24-.27-1.8-1.91-4.15-1.74-6.66.22a3.57,3.57,0,0,1-2.63.61c-.38-.08-.76-1.47-.69-2.22.24-2.74.76-5.45,1-8.19.06-.8-.57-1.66-.89-2.49-.64.7-1.7,1.32-1.86,2.13-.57,2.77-.81,5.6-1.2,8.4-.23,1.68-3.78,5.54-5.38,5.73a2.27,2.27,0,0,1-1.46-.68c-1.68-1.45-1.43-3.3-1.26-5.28.15-1.71.37-4.13-.59-5.1-4.51-4.5-5.46-9.59-3.74-15.47a8.32,8.32,0,0,0,.29-2.23,5.2,5.2,0,0,1,2.81-4.92c1.71-.93,2.21-2.45,2.49-4.31s.66-4.25,1.78-5.82c3.94-5.47,8.23-10.68,12.36-16,.65-.84,1.17-1.78,1.75-2.67l1,.63c.19,2.86,2.41,5.44.27,8.64-1.35,2-.28,4.68,1.76,5.79a4.44,4.44,0,0,0,5.83-1.11,4.72,4.72,0,0,0-.65-6.33,9.7,9.7,0,0,1-2.13-3.38c-.56-1.46-.62-3.11-1.11-4.61-.6-1.81,0-2.89,1.5-4,4.57-3.35,9.19-6.66,13.48-10.35,2.93-2.51,5.86-3.43,9.57-2.42,1.89.51,3.93.91,5.64-.8a1.85,1.85,0,0,1,1.68.16c3.2,2.66,3.21,4.22,1.29,8-1.5,3-3.36,4-6.51,3a8.59,8.59,0,0,0-3.45-.43A7.89,7.89,0,0,0,178.2,94c-1.28.9-2.24,1.63-4,1a4.41,4.41,0,0,0-5.53,2.86,3.53,3.53,0,0,0-.14.56,4.53,4.53,0,0,0,9,1c.19-3.22,1.18-4.07,4.34-3.67a49.39,49.39,0,0,1,7.66,1.08c6.8,2,12.47.48,17.34-4.62a39.37,39.37,0,0,1,4.75-3.58c.62,5.06,1.2,9.41,1.64,13.78,0,.47-.6,1.1-1,1.53-2.29,2.23-2.42,5-.28,7a4.39,4.39,0,0,0,6.22-.24,2.75,2.75,0,0,0,.22-.26c1.84-2.24,1.24-5-1.34-6.88a3.64,3.64,0,0,1-1.57-2c-.7-4.69-1.21-9.42-1.83-14.12A18.06,18.06,0,0,0,213,85a10.34,10.34,0,0,0-2.65,1c-3.24,2.35-6.52,4.67-9.53,7.29-2.5,2.17-4.91,1.74-7.77.73a8.71,8.71,0,0,1,1-1.88c3.42-3.83,3.26-7.34-.54-10.9-1.51-1.41-.75-3.06,1.36-3.48a5.25,5.25,0,0,1,2.23.12c5.69,1.77,10.48.5,14.69-3.78a5.55,5.55,0,0,1,4-1.07c5.55.58,11.06,1.5,16.6,2.14a5.27,5.27,0,0,1,4.46,2.7,6,6,0,0,0,5.89,3.41c4.05-.12,6.92,1.69,8.89,5.19A22,22,0,0,0,254,89.62a10.91,10.91,0,0,0,1.4,1.23ZM154.28,162.88c-.56,0-1.08-.86-1.62-1.34.49-.55.93-1.44,1.5-1.53s1.2.67,2.25,1.36C155.42,162.11,154.83,162.91,154.28,162.88ZM214.82,109c-.48,0-1.45-.91-1.38-1.23a2.37,2.37,0,0,1,1.36-1.6c.52-.1,1.2.68,2.3,1.4C216,108.25,215.43,109,214.82,109Zm-42-8.25c-.47,0-1.37-1-1.26-1.33.24-.63.93-1.43,1.51-1.49s1.11.8,2.1,1.61c-1.17.57-1.78,1.2-2.39,1.17ZM157.37,111.2a2.38,2.38,0,0,1,1.57-1.43c.34-.09,1.31.87,1.32,1.36s-.71,1.22-1.42,2.3c-.78-1.1-1.59-1.76-1.51-2.27Zm47,305.2c-17.7-1.23-33.51,16.08-32.92,31.28.63,16.12,13.27,31.52,26.92,32,10.6.4,20.14-1.1,27.89-9.17,6-6.27,9.84-13.21,8.83-20.78,0-19.81-12.83-32.12-30.75-33.37Zm49.91-240.61c-.65,1.06-1.34,2.11-1.92,3.22a2.38,2.38,0,0,1-3.06,1.36c-3.07-.75-6.19-1.33-9.29-2-3.56-.76-3.56-.77-3.4,3,.14,3.24.35,6.49.33,9.74a4.14,4.14,0,0,1-1.1,2.79,73.25,73.25,0,0,1-6.93,5.33c-4.15,2.81-4.85,2.56-6.93-1.91l-.42-.92c-1.52-3.14.65-7.5,4.06-8.11,2.83-.53,4.49-2.76,4-5.36a4.51,4.51,0,0,0-5.32-3.54.35.35,0,0,0-.14,0c-2.65.62-3.85,2.86-3.33,5.78a6.71,6.71,0,0,1-.46,3c-1.45,4.46-8.12,4.58-11.1,2.16a4.44,4.44,0,0,0-6.11.59,4.62,4.62,0,0,0,.08,6.16,4.3,4.3,0,0,0,6.07.37h0c1.9-1.91,4.16-1.28,6.3-1.63,3.28-.53,3.3,2.36,4.39,4.12a6,6,0,0,0,.35.66c1,1.39.59,2.22-1,2.83-3.63,1.44-7.18,3.12-10.86,4.44a11.5,11.5,0,0,1-5.26.73,9.31,9.31,0,0,0-7.66,1.73c-1.27,1-3.72.47-5.59.27-.26,0-.35-2.33-.35-3.56a9.67,9.67,0,0,1,.45-3.21,5.38,5.38,0,0,1,1.65-2.48c2.37-1.78,3.06-4.55,1.46-6.75a4.58,4.58,0,0,0-6.4-.93l-.05,0c-2,1.62-2.15,4.29-.49,6.68a5.7,5.7,0,0,1,.89,3.1c0,1.67-.44,3.31-.59,5-.13,1.39-.79,1.68-2.15,1.72-3.33.05-5.47-1.62-7-4.33a9,9,0,0,0-8.22-5,5.33,5.33,0,0,1-3.39-2c-2.87-3.47-5.5-7.13-8.27-10.67a5.61,5.61,0,0,0-1.59-1,5.73,5.73,0,0,0-.9,1.62,49.91,49.91,0,0,0-.8,6.19,5,5,0,0,0,.75,3c2.17,3,4.45,6,6.84,8.92a4.54,4.54,0,0,0,2.78,1.61c3.71.13,6.55,1.46,8.33,4.83a6.4,6.4,0,0,0,1.67,2.15,8.85,8.85,0,0,0,3.49,2c5.34.89,10.73,1.46,16.08,2.29a5.58,5.58,0,0,0,4.61-1.21c1.06-.79,2.6-1.78,3.69-1.56,3.42.7,6.36-.2,9.39-1.56q7-3.09,14.06-5.87a39.08,39.08,0,0,0,12-6.91,28,28,0,0,1,4.18-3.16c2.53-1.47,3.57-3.41,3-6.37a27.2,27.2,0,0,1-.05-4.86,3.91,3.91,0,0,1,1-.19c1.64.31,3.27.63,4.9,1,4.18.89,4.07.83,6.36-2.66,2.84-4.34,4.6-9.57,9.47-12.31a7.05,7.05,0,0,0,3.94-6.91,7.63,7.63,0,0,1,4.39-7.45c.51-.28.91-.76,1.4-1a5,5,0,0,0,2.45-4.07c1.16-8.93,2.52-17.82,3.62-26.75a6.07,6.07,0,0,0-1.12-4.28,7.89,7.89,0,0,1-1.9-7.8,7.14,7.14,0,0,0,.32-2.72,8.14,8.14,0,0,0-1-3.6c-2.32-3.35-5-6.49-7.31-9.81a5.53,5.53,0,0,0-4.44-2.62A78.67,78.67,0,0,1,258.44,96a5.41,5.41,0,0,0-4.61,1.17c-6.71,5.22-13.49,10.34-20.26,15.49-.75.57-1.57,1.06-2.57,1.74-.92-2.2-1.65-4-2.44-5.86a2.15,2.15,0,0,1,.76-2.94l.1-.06c2.57-1.85,5-3.91,7.6-5.69a7.06,7.06,0,0,1,3.57-1.1,4.8,4.8,0,0,0,4.9-4.07A4.45,4.45,0,0,0,242,89.5a4.29,4.29,0,0,0-5.16,3.19l-.06.29c-.49,3.21-3.12,3.91-5.12,5.48-2.43-3.56-2.61-4.88-1.25-8.07a4.53,4.53,0,0,0-8.28-3.66h0a4.36,4.36,0,0,0,2.15,5.78,3.63,3.63,0,0,0,.6.22c3.55.88,3.28,4.12,4.16,6.46.27.71-1.49,2.41-2.58,3.34-2.42,2.07-2.5,2.31-.65,4.75a9.85,9.85,0,0,1,1.19,2.44c2.38,6,2.4,6-2.8,9.82a4.88,4.88,0,0,1-3.32,1.08c-4.31-.91-8.58-2.08-12.82-3.28-2.69-.76-5.6-5.44-5.08-7.88.63-3-.85-5.33-3.64-5.77a4.54,4.54,0,0,0-5.16,3.84c0,.11,0,.22,0,.34-.19,2.73,1.82,4.63,4.85,4.86.94.06,2.31.48,2.69,1.17,2.4,4.35,6.25,6.18,10.91,6.86a27.14,27.14,0,0,1,3.87,1c1,.28,1.91.64,3.33,1.14-1.57,1.22-2.63,2.14-3.77,2.94-1.79,1.25-2.19,2.63-.65,4.35.39.44.7.93,1.06,1.39,1.79,2.29,2.4,2.39,4.69.66,4.45-3.37,8.85-6.81,13.36-10.1a3.43,3.43,0,0,1,2.83-.66,37.85,37.85,0,0,1,7,4.31,2.85,2.85,0,0,0,3.77.33c2.64-1.61,5.25-3.26,8-4.72a6.48,6.48,0,0,1,3.23-.72c2.83.14,4.95-1.22,5.37-3.72a4.57,4.57,0,0,0-3.58-5.22c-2.41-.48-4.56,1-5.35,3.72-.47,1.58-8.71,7.26-10.33,7.11a.51.51,0,0,1-.24-.07l-6-3.44a7.69,7.69,0,0,1,.89-1.17q8.63-6.6,17.29-13.18c1.31-1,7.52-.67,8.58.66,3,3.79,7.39,7.08,5.26,13-.93,2.61,0,4.75,1.77,6.84a6,6,0,0,1,1.36,4c-.79,7.11-1.84,14.2-2.87,21.3-.12.85-.42,2.06-1,2.39a14.23,14.23,0,0,0-7.8,13.11c0,1.25-2.3,2.58-3.75,3.58-.2.14-1.55-1.37-2.37-2.12-3-2.69-3.34-5.49-.87-8.85,1.4-1.89,2.05-4.12,4.94-4.72,2.18-.44,3-3.47,2.08-5.67a4.56,4.56,0,0,0-5.61-2.5c-2.32.81-3.86,3.37-2.82,5.59.91,1.92.43,3.28-.49,4.83s-1.68,3.08-2.44,4.64c-.43.89-1.24,2.12-.94,2.72,1.12,2.23-.43,3-1.75,4a19.55,19.55,0,0,0-3.13,2.47,8.77,8.77,0,0,0-1.12,2.61c1-.14,2.11,0,2.86-.47,1.94-1.25,3.71-2.75,5.5-4.11,3.76,3.4,3.86,3.92,1.5,7.79Zm-26.57-87c0,.47-1,1.34-1.4,1.25-.6-.15-1.44-.92-1.46-1.47s.81-1.14,1.61-2.14c.6,1,1.26,1.68,1.22,2.29ZM241,95.36a2.39,2.39,0,0,1-1.29-1.71c-.06-.32,1-1.21,1.43-1.17.62.06,1.18.77,2.21,1.56C242.19,94.71,241.47,95.48,241,95.36Zm20.64,20.91c0,.49-1,1.47-1.27,1.4a2.4,2.4,0,0,1-1.62-1.42c-.09-.5.72-1.18,1.45-2.25.68,1.07,1.39,1.66,1.4,2.27ZM226.58,183.8a2.3,2.3,0,0,1-1.6,1.37c-.32.07-1.24-.9-1.24-1.4s.69-1.19,1.39-2.24c.69,1.08,1.49,1.74,1.41,2.27Zm-28-74.19c-.49,0-1.48-.91-1.41-1.26a2.27,2.27,0,0,1,1.37-1.58c.54-.09,1.22.68,2.31,1.36-1.06.74-1.66,1.46-2.27,1.48ZM256.94,150a2.3,2.3,0,0,1,1.55-1.39c.36-.07,1.31.86,1.3,1.33s-.7,1.2-1.4,2.25C257.66,151.19,256.86,150.55,256.94,150Zm-68.83,47.14c.06-.53.94-1.25,1.57-1.38.36-.08,1.3.87,1.3,1.36s-.69,1.23-1.38,2.31c-.74-1-1.54-1.68-1.49-2.25Zm18.43-1.83a2.2,2.2,0,0,1-1.48-1.47c-.1-.36.78-1.36,1.27-1.39s1.24.63,2.34,1.27c-1,.83-1.6,1.67-2.13,1.64Zm-15.65-8.57c8-3.37,16.11-6.68,24.1-10.16,2.1-.91,2.36-2.84,1-4.67-1-1.34-2.06-2.62-3-4-1.3-1.86-2.64-1.87-4.38-.52-6.44,5-12.93,9.89-19.41,14.83-.33.26-.83.46-.94.79a4.28,4.28,0,0,0-.36,2.44c.25.7,1.17,1.17,1.69,1.64a5,5,0,0,0,1.3-.31Zm6.86-28.9c-2.21-.31-4.59,1-4.92,3.27-.3,2.09-1.54,3.14-3,4.26-4.8,3.6-9.47,7.36-14.34,10.85a7.75,7.75,0,0,0-3.73,6.33c-.06,1.08-1,2.2-1.66,3.17a4.52,4.52,0,0,0,.43,6.3,4.46,4.46,0,0,0,6.11-.11,4.56,4.56,0,0,0,.45-6.12c-1.86-2.56-1.66-4,.93-6,5-3.86,10-7.75,15.13-11.47a8.71,8.71,0,0,1,4-1.41c2.56-.33,4.42-2,4.46-4.51a4.62,4.62,0,0,0-3.86-4.52Zm-.77,5.9c-.49,0-1.43-1-1.34-1.29.19-.65.88-1.49,1.45-1.57s1.17.77,2.22,1.56c-1.1.7-1.73,1.36-2.31,1.34Zm-22,24.91a2.35,2.35,0,0,1-1.55,1.41c-.34.08-1.29-.87-1.29-1.35s.71-1.19,1.44-2.26c.66,1.1,1.42,1.77,1.35,2.24ZM238.68,157c5.09-5.92,10.06-11.94,15.09-17.92,1-1.22,1.43-2.36.16-3.72s-2.51-.53-3.66.33c-5.22,4-10.43,8-15.67,11.94-6.13,4.65-5.78,3.64-.76,10.2a8.07,8.07,0,0,0,1.71,1.25A14,14,0,0,0,238.68,157Zm-19.45-11.53c-.12,1-.23,2-.36,3a5.71,5.71,0,0,1-6.39,4.89,29.8,29.8,0,0,0-4.21-.47c-.56,0-1.11.73-1.67,1.13.43.53.78,1.36,1.31,1.5,1.44.39,3,.36,4.42.75a6.53,6.53,0,0,1,3.1,1.59c2,2.27,4.65,2.86,6.79,1.17s2.23-4.34.4-6.86a6,6,0,0,1,2-8.23l0,0a49.55,49.55,0,0,0,4.59-3.45c1.57-1.23,3-2.36,5.34-2.06s4.08-1.83,4.28-4.05a4.49,4.49,0,0,0-3.53-4.78c-2.2-.48-4.86.67-5.13,2.83-.33,2.67-2.11,3.79-3.87,5.14s-3.8,2.72-5.52,4.28a17.16,17.16,0,0,0-2.29,3.25Zm15.17-10.11a2.37,2.37,0,0,1-1.45-1.51c-.08-.33.83-1.28,1.33-1.31s1.21.64,2.31,1.29C235.54,134.6,234.92,135.41,234.4,135.35Zm-15,21.5a2,2,0,0,1-1.35-1.31,1.86,1.86,0,0,1,1.19-1.47c.61,0,1.28.6,2.44,1.22-1.11.79-1.68,1.51-2.31,1.56ZM178,142.15c-1.85,1.67-3.93,3.08-5.92,4.59-3,2.27-5.13,1.94-7.41-1.12a4.53,4.53,0,0,0-6.22-1.07,4.43,4.43,0,0,0-1.25,6.14h0c1.39,2.1,4.21,2.93,6.07,1.31,2.27-2,4.39-1.13,6.75-.59a4.78,4.78,0,0,0,3.34-.41c2.7-1.79,5.18-3.9,7.8-5.83a3.36,3.36,0,0,0,1.53-3.6c-.29-2-.12-3.84,1.83-5.3a4.26,4.26,0,0,0,.91-5.95,4.11,4.11,0,0,0-.38-.45,4.43,4.43,0,0,0-6.25-.42l-.21.19c-1.87,1.73-1.86,4.33,0,6.46.6.7,1.1,1.49,1.85,2.52A18.32,18.32,0,0,1,178,142.15Zm3.86-7.8c-.6,0-1.14-.87-1.7-1.37.48-.55.9-1.41,1.47-1.53s1.21.63,2.27,1.25c-.9.81-1.5,1.68-2,1.65ZM159.57,148.1c0-.48,1-1.37,1.38-1.28.62.17,1.47.92,1.5,1.47s-.82,1.17-1.63,2.17C160.2,149.36,159.54,148.71,159.57,148.1ZM145,129a5,5,0,0,1-.61,4.64c-1.11,2-2.25,4.08-3.19,6.19-.26.58.15,1.47.25,2.22.75-.31,1.83-.39,2.19-.93,1.12-1.84,2.15-3.74,3.08-5.68.87-1.7,1.63-3.22,4-3.6s3.38-2.79,2.95-5a4.52,4.52,0,0,0-8.93.5A4.44,4.44,0,0,0,145,129Zm4.14.11a2.33,2.33,0,0,1-1.34-1.62c-.07-.36.92-1.27,1.4-1.25s1.2.75,2.26,1.5c-1.11.67-1.8,1.45-2.33,1.35ZM229,163.53a4.74,4.74,0,1,0,.17,0Zm1.44,4.5a2.21,2.21,0,0,1-1.47,1.44c-.36.09-1.34-.8-1.36-1.27s.64-1.23,1.29-2.31c.78,1,1.59,1.61,1.55,2.1Zm36-40.39a4.43,4.43,0,0,0-4.63,4.21v.27a4.6,4.6,0,0,0,4.63,4.55,4.49,4.49,0,0,0,4.39-4.5,4.6,4.6,0,0,0-4.4-4.53Zm1.31,4.52a2.26,2.26,0,0,1-1.54,1.42c-.34.08-1.3-.84-1.31-1.33s.67-1.23,1.34-2.32c.76,1.06,1.57,1.7,1.5,2.23Z" />
</svg>