<svg xmlns="http://www.w3.org/2000/svg" viewBox="0 0 256 256">
    <rect width="256" height="256" style="fill:#e63428" />
    <path d="M256,88H0V68H256Zm-56,20H0v20H200Zm39.21,26.5-4-13.26,11-8.37-13.85-.28L227.82,99.5l-4.55,13.09-13.85.28,11,8.37-4,13.26,11.37-7.91ZM35,151.84l-.44,8.74h1a8.1,8.1,0,0,1,1.21-4,5.1,5.1,0,0,1,2.45-2,12.67,12.67,0,0,1,3.7-.38h4.48v28.45c0,2.09-.2,3.43-.6,4a3.77,3.77,0,0,1-3.35,1.43H42.18v1H58v-1H56.68a4.1,4.1,0,0,1-3.21-1.15c-.5-.57-.74-2-.74-4.29V154.18H58a7.93,7.93,0,0,1,3.72.75A5.55,5.55,0,0,1,64,157.28a10.49,10.49,0,0,1,.82,3.3h1l-.41-8.74Zm54.71,10.93q5-5.07,5.58-5.63a22.74,22.74,0,0,1,3.52-2.78,11,11,0,0,1,2.41-1.17,8.26,8.26,0,0,1,2.2-.33v-1H89.75v1h.85a3.06,3.06,0,0,1,2,.48,1.4,1.4,0,0,1,.58,1.11,3.62,3.62,0,0,1-.74,1.92q-1.71,2.5-9.86,10l-3.77,3.49v-11.4a12.47,12.47,0,0,1,.33-3.62,2.37,2.37,0,0,1,1.19-1.32,5.29,5.29,0,0,1,2.49-.63H84v-1H68.16v1h1.32a5.22,5.22,0,0,1,2.53.66,2.46,2.46,0,0,1,1.12,1.15,12.53,12.53,0,0,1,.36,3.76V182.5q0,3.34-.66,4.23a4,4,0,0,1-3.35,1.34H68.16v1H84v-1H82.77a5,5,0,0,1-2.49-.66,2.43,2.43,0,0,1-1.16-1.18,12.2,12.2,0,0,1-.36-3.73v-12l12.86,12.72a10.66,10.66,0,0,1,1.72,1.95,2.66,2.66,0,0,1,.26,1.18,1.54,1.54,0,0,1-.7,1.2,3.9,3.9,0,0,1-2.3.53v1h17.72v-1a12.23,12.23,0,0,1-4.78-1.39,24.74,24.74,0,0,1-5.77-4.6L84,168.43Zm54.69,0q5-5.07,5.58-5.63a23.23,23.23,0,0,1,3.51-2.78,11.26,11.26,0,0,1,2.42-1.17,8.26,8.26,0,0,1,2.2-.33v-1H144.44v1h.85a3.06,3.06,0,0,1,2,.48,1.43,1.43,0,0,1,.58,1.11,3.62,3.62,0,0,1-.74,1.92q-1.71,2.5-9.87,10l-3.76,3.49v-11.4a12.47,12.47,0,0,1,.33-3.62,2.39,2.39,0,0,1,1.18-1.32,5.36,5.36,0,0,1,2.5-.63h1.27v-1H122.85v1h1.32a5.22,5.22,0,0,1,2.53.66,2.51,2.51,0,0,1,1.12,1.15,12.53,12.53,0,0,1,.36,3.76V182.5q0,3.34-.66,4.23a4,4,0,0,1-3.35,1.34h-1.32v1h15.88v-1h-1.27a5.05,5.05,0,0,1-2.5-.66,2.45,2.45,0,0,1-1.15-1.18,12.2,12.2,0,0,1-.36-3.73v-12l12.86,12.72a10.06,10.06,0,0,1,1.71,1.95,2.53,2.53,0,0,1,.27,1.18,1.53,1.53,0,0,1-.71,1.2,3.86,3.86,0,0,1-2.29.53v1H163v-1a12.19,12.19,0,0,1-4.78-1.39,24.54,24.54,0,0,1-5.77-4.6l-13.73-13.65ZM187.32,151a3.52,3.52,0,0,1-.73,1.72,1.65,1.65,0,0,1-1.17.42,6.64,6.64,0,0,1-2.17-.68A15.69,15.69,0,0,0,177,151a11,11,0,0,0-7.83,2.9,9.16,9.16,0,0,0-3.07,6.91,8.69,8.69,0,0,0,1,4.23,11.63,11.63,0,0,0,3.06,3.51,57.28,57.28,0,0,0,6.8,4.27,66.26,66.26,0,0,1,5.85,3.51,8.21,8.21,0,0,1,2.35,2.6,5.88,5.88,0,0,1,.76,2.78,5.59,5.59,0,0,1-2,4.28,7.72,7.72,0,0,1-5.42,1.82,11.41,11.41,0,0,1-5.45-1.32,9.25,9.25,0,0,1-3.7-3.31,18.32,18.32,0,0,1-1.92-6h-1v12.77h1a3.23,3.23,0,0,1,.59-1.7,1.44,1.44,0,0,1,1.09-.42,15.9,15.9,0,0,1,3.39.87,29.48,29.48,0,0,0,3.53,1,17.36,17.36,0,0,0,3.05.25,11.88,11.88,0,0,0,8.44-3.06,9.66,9.66,0,0,0,3.28-7.3,9.22,9.22,0,0,0-1-4.25,10.38,10.38,0,0,0-2.93-3.53,56.55,56.55,0,0,0-7.13-4.3q-6.41-3.44-8.1-5.5a4.67,4.67,0,0,1-1.19-3.1,5.35,5.35,0,0,1,1.87-4,6.67,6.67,0,0,1,4.73-1.74,10.1,10.1,0,0,1,4.89,1.29,9.18,9.18,0,0,1,3.63,3.49,15.84,15.84,0,0,1,1.78,5.9h1V151Zm21.39,21.23a23.87,23.87,0,0,0,2.91.2c3.67,0,6.5-1,8.51-2.86a9.79,9.79,0,0,0,3-7.42,9,9,0,0,0-2-5.79,10.88,10.88,0,0,0-4.87-3.48,24.35,24.35,0,0,0-7.88-1H194.76v1h1.4a4,4,0,0,1,3.19,1.21c.49.56.74,2,.74,4.36V182.5c0,2.12-.18,3.47-.55,4a3.74,3.74,0,0,1-3.38,1.54h-1.4v1h16v-1h-1.43a3.94,3.94,0,0,1-3.16-1.21c-.51-.56-.77-2-.77-4.36V171.65C206.55,171.9,207.67,172.09,208.71,172.22Zm-3.35-17.63a16.2,16.2,0,0,1,3.6-.52,8.16,8.16,0,0,1,4.12,1,6.79,6.79,0,0,1,2.8,3.1,10.28,10.28,0,0,1,1,4.49,8,8,0,0,1-2.07,5.73,6.55,6.55,0,0,1-4.93,2.21,16.94,16.94,0,0,1-1.93-.14c-.75-.09-1.61-.23-2.58-.41Z" style="fill:#fff" />
<style>._black { fill: #333; }</style></svg>