<svg xmlns="http://www.w3.org/2000/svg" xmlns:xlink="http://www.w3.org/1999/xlink" viewBox="0 0 256 256">
    <path fill="#1880D0" d="M115.79,4.52,141,30.11c-1,.14-2.24.27-3.47.46A42.85,42.85,0,0,0,102.2,63.16c-2.27,10.1-1.68,20,2.6,29.56,3.14,7,8.18,12.46,14.28,17a74.69,74.69,0,0,0,23.4,11.3,62.08,62.08,0,0,1,13.32,5.39c3.41,2,6.23,4.48,7.69,8.23a19.23,19.23,0,0,1,.38,13.43,12.54,12.54,0,0,1-7.56,7.88,25.71,25.71,0,0,1-21.86-.8c-5.57-2.83-8.62-7.55-9.37-13.72-.23-1.9-.26-3.84-.31-5.76,0-1.62,0-3.23,0-4.94-.32,0-.59-.05-.86-.05q-11.81,0-23.6,0c-.64,0-.9.19-1,.8a39.32,39.32,0,0,0-1.2,4.93,37.76,37.76,0,0,0,0,6.38A43.84,43.84,0,0,0,101.86,158c3.64,7.93,9.46,13.92,16.65,18.68a50.88,50.88,0,0,0,16.43,7,45.87,45.87,0,0,0,12.84,1.07c.22,0,.44,0,.53-.1l-32.6,33L11.93,113.87c0,.36,0,.63,0,.9q0,32,0,64.08a1.31,1.31,0,0,0,.78,1.38,4.11,4.11,0,0,1,1,6.4,1.17,1.17,0,0,0-.27,1.35q3.36,10.4,6.68,20.82c.07.24.13.49.22.81H1c.32-1,.61-2,.91-2.91q3-9.36,5.94-18.72a1,1,0,0,0-.28-1.21,4.1,4.1,0,0,1,1-6.59,1.17,1.17,0,0,0,.69-1.27q0-33.47,0-66.93a2.13,2.13,0,0,1,.71-1.67Q62.56,57.74,115.14,5.14Zm75.08,75.55c0,1.18,0,2.36,0,3.54,0,.58-.21.72-.77.72q-12.37,0-24.75,0c-.65,0-.76-.25-.75-.81,0-1.83,0-3.65,0-5.48a27.79,27.79,0,0,0-1.6-9.68c-1.78-4.67-4.68-8.32-9.55-10a25.57,25.57,0,0,0-12.64-.81,13.72,13.72,0,0,0-10.9,8.09A19.27,19.27,0,0,0,128.37,73a13.76,13.76,0,0,0,4.39,11.23,31.52,31.52,0,0,0,10.1,6.11c4.33,1.7,8.75,3.13,13.12,4.72a65.47,65.47,0,0,1,20.17,11.19c10.66,9,15.78,20.5,15.84,34.36a5.54,5.54,0,0,0,0,.56L192,141l30.17-29.88-31-31.08Zm5.41,97.48c-.68.7-1.4,1.48-2.17,2.19a.93.93,0,0,0-.24,1.26q3.81,8.67,7.59,17.36c.12.27.21.54.38,1l-.9-.36c-5.81-2.53-11.63-5.08-17.44-7.6-.26-.11-.7-.23-.83-.11-.92.84-1.78,1.74-2.5,2.47l16.5,16.57c.64-.62,1.34-1.3,2.14-2.06l-13.4-13a1.61,1.61,0,0,1,.74.17c5.74,2.44,11.5,4.85,17.21,7.35.91.4,1.16-.21,1.65-.59a.94.94,0,0,0,.26-1.32q-3.74-8.7-7.42-17.43c-.07-.17-.11-.35-.21-.68l13.13,13.58,2.09-2.16ZM188.07,219a10.79,10.79,0,0,0,1.86-2.71,6.25,6.25,0,0,0-8.33-8.23,3.13,3.13,0,0,1-.4.09c.12-.41.23-.72.3-1a4.9,4.9,0,0,0-.71-4.26,5.57,5.57,0,0,0-6.67-1.92,9.3,9.3,0,0,0-2.55,1.53c-1.42,1.22-2.72,2.58-4.06,3.89L165,208.82c5.58,5.57,11.07,11.08,16.65,16.66C183.81,223.33,186,221.23,188.07,219Zm-12-3.57a4.62,4.62,0,0,1,.31-.37c1.26-1.27,2.53-2.55,3.81-3.81,1.1-1.09,2.35-1.82,3.94-1.24a5.05,5.05,0,0,1,3.49,3.69,3.59,3.59,0,0,1-1.06,3.32c-1.46,1.51-3,2.92-4.55,4.37ZM169,208.41a3.5,3.5,0,0,1,.25-.35c1-1,2-2,3-3a8.22,8.22,0,0,1,1.08-.87,3.74,3.74,0,0,1,5,5.5c-1.27,1.4-2.7,2.67-4.06,4Zm59.86-63,11.23,11.22a9.11,9.11,0,0,0,.94.81,6.77,6.77,0,0,0,5.11,1.48,10.18,10.18,0,0,0,6.82-4.36c2.48-3.2,3.12-7.27-.64-10.85l-.22-.22-10.3-10.3-.55-.52-2.38,2.39a3.71,3.71,0,0,1,.71.45q5.34,5.29,10.64,10.62a5.32,5.32,0,0,1,1.79,3.4,6.8,6.8,0,0,1-4,6.08c-2.07.94-4,.47-5.9-1.46l-10.59-10.56c-.2-.2-.4-.38-.6-.57l-2.17,2.22A.88.88,0,0,0,228.84,145.44Zm-16,19.51c-4.15-.45-8.62,2.83-9.77,7-1.23,4.47,2.21,8.64,7.11,7.45a21.76,21.76,0,0,0,5.08-2.18,15.17,15.17,0,0,1,3.8-1.59,3.47,3.47,0,0,1,4,4.49,7.44,7.44,0,0,1-2.54,3.51c-2.29,1.93-4.34,2-6.66.39l-2.08,2a5.19,5.19,0,0,0,4.33,1.83c3.93-.07,8.2-3.3,9.53-7.22a5.86,5.86,0,0,0-7-7.86,37.22,37.22,0,0,0-4.75,1.93,30.92,30.92,0,0,1-4.08,1.75,3.4,3.4,0,0,1-4.13-4.17,6.41,6.41,0,0,1,2.19-3.28c2.13-1.93,4.26-2,6.51-.22,0,0,.1,0,.17,0l2-2.1A5.61,5.61,0,0,0,212.82,165ZM160,239.49c-1.6-1.55-3.16-3.16-4.75-4.73a5.19,5.19,0,0,0-6.49-1,9.67,9.67,0,0,0-2,1.5,7,7,0,0,0-2.4,5.92,3.24,3.24,0,0,0,1.08,2.32l2.05-2c-1.06-1.93-.37-4,1.76-5.18,1.85-1,3.45-.34,5.17,2-.86.86-1.74,1.71-2.6,2.59a9.45,9.45,0,0,0-2.59,4.22,4.76,4.76,0,0,0,2.08,5.36,4.62,4.62,0,0,0,5.53,0,6.53,6.53,0,0,0,3-5.68c0-.36,0-.72,0-1.19.64.48,1.14.88,1.69,1.22a.71.71,0,0,0,.65,0c.66-.56,1.28-1.17,1.85-1.7C162.59,241.87,161.29,240.71,160,239.49Zm-2.19,2.16a3.29,3.29,0,0,1,.32,2.88,5.47,5.47,0,0,1-2.14,3.36,2.59,2.59,0,0,1-4.21-1.8,4,4,0,0,1,.71-2.84,6.76,6.76,0,0,1,.73-.89c.84-.88,1.7-1.76,2.66-2.74C156.65,240.39,157.31,241,157.85,241.65Zm63-85.05,14.71,14.85,2.31-2.18-15-15,5.22-5.23-1.67-1.66-12.91,12.76,1.93,1.84Zm-64.12,72.29c.33-.39.57-.36.92,0q3,3,5.93,5.94a27.29,27.29,0,0,0,2.07,2,4.1,4.1,0,0,0,6.55-2,.75.75,0,0,0-.13-.64c-.43-.35-.92-.63-1.41-1-.24.31-.44.58-.66.82a1.73,1.73,0,0,1-2.59.23,6.64,6.64,0,0,1-.63-.56l-6.92-6.92c-.16-.16-.29-.34-.56-.65l2.37-2.18-1.66-1.7-2.21,2.58-2.93-3L152.64,224c.48.44,1,.91,1.47,1.35s1,.88,1.58,1.32l0,.43c-.72.53-1.44,1.06-2.21,1.61.7.66,1.18,1.12,1.81,1.7C155.8,229.91,156.29,229.42,156.74,228.89Zm20.5-57.48a3.89,3.89,0,0,0-3.91,4.62,7.63,7.63,0,0,0,5.14,5.86,4.07,4.07,0,0,0,5.46-3.72,3.24,3.24,0,0,1,.13-.46c.51.56,1,1,1.36,1.5a2.05,2.05,0,0,1,0,2.7,7,7,0,0,1-1.29,1.31c-.54.41-1.17.71-1.77,1.08l.69,1.32a7.88,7.88,0,0,0,3.23-2.1c2-2.21,2-4.4-.11-6.5-2.47-2.48-4.94-4.94-7.41-7.41-.17-.17-.36-.33-.44-.4l-1.19,1,.82,1.23Zm2.06,1.6c1,1,2,2,3,3a2.06,2.06,0,0,1,.51,1.06,2.72,2.72,0,0,1-1.28,2.7,2.45,2.45,0,0,1-2.69.22,7,7,0,0,1-3.47-3.76,2.89,2.89,0,0,1,2.73-3.9A5.51,5.51,0,0,1,179.3,173Zm16.28-11.55a3,3,0,0,1,.36,3.84,3.58,3.58,0,0,1-4,1.84c-2.19-.45-5.94-4.09-6.53-6.33a.83.83,0,0,1,0-.15,3.53,3.53,0,0,1,1.72-4,3.11,3.11,0,0,1,3.92.26l.17.14,1.5-1.22a4.32,4.32,0,0,0-3.41-1.54,5.94,5.94,0,0,0-5.1,3.25,5.34,5.34,0,0,0,.22,5.78,14.62,14.62,0,0,0,4.7,4.72c4.15,2.56,8-.24,8.9-3.6a4.26,4.26,0,0,0-1.39-4.56l-1.29,1.26Zm-50.87,47.86a9.07,9.07,0,0,0-1.47,2.23,3,3,0,0,0,1.22,3.95,3,3,0,0,0,3.94-.37,4.11,4.11,0,0,0,1.48-3.18V211l1.27.86,1.32-1.3c-.86-.8-1.75-1.61-2.61-2.45s-2-2-3-2.93a3.18,3.18,0,0,0-3.53-.85,5.17,5.17,0,0,0-3.43,3.85,2.51,2.51,0,0,0,.68,2.69c.16-.12.28-.21.39-.31.51-.47,1.06-.87.56-1.73-.16-.27,0-.82.16-1.17A2.68,2.68,0,0,1,144,206c1.13-.1,1.78.73,2.55,1.67A19.49,19.49,0,0,0,144.71,209.32Zm3,4.27a1.65,1.65,0,0,1-2,.42,1.86,1.86,0,0,1-1-1.9,2.72,2.72,0,0,1,.44-1.28c.67-.84,1.43-1.59,2.18-2.4C149.36,210.09,149.45,212,147.69,213.59ZM224,127.23a4.43,4.43,0,0,0-6.41,3.77,7,7,0,0,0,5.11,6.7c3.08.73,6.65-2.13,6.46-5.24l-1.28-.34c-1.52,4.12-4.18,5.14-6.47,2.45l2.56-2.54,2.76-2.72A21,21,0,0,0,224,127.23Zm-3.73,6.08a2.84,2.84,0,0,1-.22-4.07c1.17-1.12,2.63-1,3.89.42Zm-17.78,16.22a3.94,3.94,0,0,0-4.3-.36,4.57,4.57,0,0,0-2.63,4.05,6.32,6.32,0,0,0,2.52,5.06,5.34,5.34,0,0,0,9-2.81,8.72,8.72,0,0,0,.16-1l-1.41-.35c-.42,1.81-1.14,3.35-3,3.83-1.36.36-2.45-.37-3.4-1.27l5.29-5.31A28,28,0,0,0,202.46,149.53Zm-4.26,5.79a2.87,2.87,0,0,1-.1-4.19,2.49,2.49,0,0,1,3.75.51C200.63,152.87,199.41,154.09,198.2,155.32Zm7.76-8.79a1.87,1.87,0,0,1-.5-.66,3,3,0,0,1,1.33-3.27,2,2,0,0,1,2.78.35c1.28,1.19,2.5,2.44,3.72,3.68.56.57,1.06,1.18,1.56,1.74l1.32-1.37c-1.84-1.93-3.66-4-5.6-5.85a3.13,3.13,0,0,0-3.78-.61,4,4,0,0,0-2.39,3.59c0,.29,0,.57,0,1l-1.2-.94-1.18,1.17,7.93,7.93,1.36-1.35C209.51,150.08,207.73,148.31,206,146.53Zm-51.43,51.39A1.86,1.86,0,0,1,154,197a3.09,3.09,0,0,1,1.67-3.27c.93-.49,1.79-.25,2.87.82,1.54,1.52,3.06,3,4.59,4.57a4,4,0,0,0,.39.35l1.27-1.16c-1.85-1.92-3.65-3.89-5.57-5.74a3.68,3.68,0,0,0-6.13,3v.94l-1.29-1,.11.22-1.2.87,7.92,7.91,1.34-1.2C158.09,201.48,156.3,199.71,154.53,197.92Zm8.74-13.78L171.1,192l1.37-1.16c-1.82-1.81-3.54-3.57-5.32-5.28a2,2,0,0,1-.65-1.93,3.05,3.05,0,0,1,2-2.46c1-.4,1.73.16,2.41.78.51.47,1,1,1.48,1.46l3.63,3.69,1.3-1.16c-1.87-2-3.66-4-5.58-5.85a3.15,3.15,0,0,0-3.85-.61,3.84,3.84,0,0,0-2.29,3.7c0,.24,0,.47,0,.87l-1.17-.93ZM136,225.88c-2.79-2.8-5.58-5.6-8.4-8.38-.48-.47-.52-.75,0-1.21,1-.91,1.94-1.88,2.84-2.75l-.93-1.08-8.25,8.23,1,1.06,3.37-3.54,9.66,9.76,1.32-1.44C136.38,226.32,136.18,226.09,136,225.88Zm74.66-92.94L209,134.42l2.1,1.75-1.22,1.29,1.16,1.27,1.16-1.56c.49.56.85,1,1.27,1.44,1.26,1.28,2.51,2.56,3.81,3.8a2.58,2.58,0,0,0,3.95.05c1-1,.95-1.31-.24-2.05,0,0-.1,0-.15,0-1,1.22-1.46,1.24-2.59.13l-1.75-1.75c-1-.95-1.92-1.91-3-3l1.68-1.32-1.12-1.2L212.51,135ZM232,131.15l1.32-1.28-5.1-5.09a2.08,2.08,0,0,1,0-3.28l.72-.67-1.29-1.68a8.44,8.44,0,0,0-1.14,1.74,8.73,8.73,0,0,0-.23,2l-1.06-.78-1.19,1.06Zm-94.77,84.46a2.21,2.21,0,0,1,0-3.15,8.24,8.24,0,0,1,.93-.68L137,210.24c-1.4.89-1.51,2.17-1.27,3.7l-1.31-.89-1.08,1,7.86,7.9,1.27-1.2C140.66,219,139,217.25,137.23,215.61Zm11-16.33-1.21,1.1,7.95,8,1.14-1.19Zm12.54-12.52-1.29,1.12,8,8,1.18-1.2Zm-14.79,10.29-1.13-1.36-1.42,1.15,1.32,1.46Zm9.94-12.71,1.3,1.39,1.4-1.34-1.3-1.28Z" />
<style>._black { fill: #333; }</style></svg>