<?xml version="1.0" encoding="utf-8"?>
<!-- Generator: Adobe Illustrator 27.5.0, SVG Export Plug-In . SVG Version: 6.00 Build 0)  -->
<svg version="1.1" id="Слой_1" xmlns="http://www.w3.org/2000/svg" xmlns:xlink="http://www.w3.org/1999/xlink" x="0px" y="0px"
	 viewBox="0 0 250 250" style="enable-background:new 0 0 250 250;" xml:space="preserve">
<style type="text/css">
	.st0{fill:url(#SVGID_1_);}
</style>
<linearGradient id="SVGID_1_" gradientUnits="userSpaceOnUse" x1="125" y1="224.7224" x2="125" y2="25.2776">
	<stop  offset="0" style="stop-color:#FF1814"/>
	<stop  offset="1" style="stop-color:#FF7978"/>
</linearGradient>
<path class="st0" d="M154,165.1c0.1-0.2,0.1-0.5-0.1-0.7L119.5,124c-0.6-0.7-0.4-1.8,0.4-2.2l44.2-22.9c0.3-0.1,0.4-0.5,0.3-0.8
	l-23.1-47c-0.1-0.3-0.1-0.6,0.1-0.9c14.9-18.4,36.3-28.2,59.5-24c6.5,1.2,12.3,3.2,17.4,6c27,15.1,34.5,44.1,25.5,73.1
	c-8,25.6-26.4,47-46.9,65c-21.4,18.7-45.8,35.3-68.7,52.7c-1.7,1.3-2.1,1-1.2-1L154,165.1z M100.3,126.3l41.4,33.8
	c0.4,0.3,0.5,0.7,0.4,1.3l-17.4,62.9c-0.1,0.4-0.6,0.6-0.9,0.3c-15.1-11-30.2-22.2-45.5-33.5C44.5,166,6,131.3,2.8,86.5
	c-2.1-29,17.1-53.7,45.3-59.4c24.6-5,47.7,5.9,62.3,25.7C129.9,79.3,140,93,140.8,94c0.1,0.2,0.1,0.5-0.1,0.6l-40.4,31.1
	C100.1,125.8,100.1,126.1,100.3,126.3z"/>
<style>._black { fill: #333; }</style></svg>
