<svg xmlns="http://www.w3.org/2000/svg" viewBox="0 0 256 256">
    <rect class="_black" width="256" height="256" />
    <path fill="white" d="M53.81,155.58q4.13,7.13,8.93,10.49a21.67,21.67,0,0,0,10.92,3.85v1.29A44.17,44.17,0,0,1,61.71,169a52.15,52.15,0,0,1-12.06-5.68,58.53,58.53,0,0,1-9.82-7.71,39.08,39.08,0,0,1-9.23-5,27.1,27.1,0,0,1-7.68-9.67,31.15,31.15,0,0,1-2.74-13.55q0-12.3,8-20.45A26.08,26.08,0,0,1,47.51,98.8,25.1,25.1,0,0,1,66.14,107Q74,115.12,74,127.55a29,29,0,0,1-5.61,17.7A27.62,27.62,0,0,1,53.81,155.58ZM47,101.91a14.86,14.86,0,0,0-11.87,5.26q-5.67,6.6-5.67,20.21,0,13.34,5.75,20.54A14.37,14.37,0,0,0,47,153.47a15.2,15.2,0,0,0,12.27-5.55q5.48-6.55,5.47-19.36,0-9.84-3-16.57a16.89,16.89,0,0,0-6.14-7.63A15.61,15.61,0,0,0,47,101.91Zm38.89,45.2a4.29,4.29,0,0,1,3.2,1.32,4.37,4.37,0,0,1,1.3,3.18,4.51,4.51,0,1,1-4.52-4.5ZM111.94,103v21.71H124c3.13,0,5.23-.47,6.28-1.42,1.4-1.24,2.19-3.43,2.35-6.56h1.5v19.12h-1.5a20.66,20.66,0,0,0-1.14-5.14,5,5,0,0,0-2.39-2.23,12.15,12.15,0,0,0-5.1-.81H111.94v18.11a16.92,16.92,0,0,0,.32,4.43,2.59,2.59,0,0,0,1.14,1.26,6.83,6.83,0,0,0,3.07.46h9.32a25.26,25.26,0,0,0,6.77-.64,10.28,10.28,0,0,0,4.05-2.56,31.13,31.13,0,0,0,5.14-7.57h1.62L138.63,155H96.3v-1.5h2a7.76,7.76,0,0,0,3.68-.93,3.36,3.36,0,0,0,1.76-1.94,18.61,18.61,0,0,0,.47-5.31V109.6q0-5.22-1-6.44c-1-1.08-2.6-1.62-4.86-1.62h-2V100h42.33l.61,12h-1.58a19,19,0,0,0-1.88-6,6.45,6.45,0,0,0-3.06-2.47A18.11,18.11,0,0,0,127,103ZM154,147.11a4.3,4.3,0,0,1,3.2,1.32,4.55,4.55,0,0,1,0,6.36,4.5,4.5,0,1,1-3.18-7.68ZM164.11,155v-1.5h2.07q3.48,0,4.94-2.23c.6-.89.89-2.89.89-6V109.76c0-3.43-.37-5.57-1.13-6.44a6,6,0,0,0-4.7-1.78h-2.07V100h22.37q12.3,0,18.73,2.8a22.29,22.29,0,0,1,10.33,9.31,28.67,28.67,0,0,1,3.91,15.07q0,11.48-7,19.16-7.81,8.59-23.82,8.59Zm15.68-4a41.16,41.16,0,0,0,8.63,1.13,20.46,20.46,0,0,0,15.59-6.6q6.21-6.6,6.2-17.9T204,109.68a20.9,20.9,0,0,0-15.91-6.56,34.28,34.28,0,0,0-8.31,1.17Zm51.53-3.89a4.3,4.3,0,0,1,3.2,1.32,4.37,4.37,0,0,1,1.3,3.18,4.51,4.51,0,1,1-4.52-4.5Z" />
<style>._black { fill: #333; }</style></svg>