<svg xmlns="http://www.w3.org/2000/svg" viewBox="0 0 256 256">
    <defs>
        <linearGradient id="gradient" x1="14.17" y1="242.34" x2="244.42" y2="12.09" gradientUnits="userSpaceOnUse">
            <stop offset="0" stop-color="#c02200" />
            <stop offset="1" stop-color="#950e00" />
        </linearGradient>
    </defs>
    <path d="M53.2,151.69a58.69,58.69,0,0,1,6.2,4.8L78,173.73c3.88,3.69,13.81,13.72,17.63,18.16,2.6,3,3.73,3.36,5.65,6.35-.7.26-9.39,2.25-14.44,4-10.52,3.62-20.1,9.42-29.26,6.31-1.37-.46-7.6-6.42-10.46-8.43l-5.25-3.68c-5.58-3.9-7.18-1.21.23-18.47,1.93-4.51,3.57-8.57,5.42-13,1.61-3.86,3.83-10.11,5.69-13.27ZM186.79,47.52c3.83,1.33,13.1,6.62,15.37,9.47,1.92,2.4,1.36,2.62.65,6.08L199,92.58c-5.22.19-3.71-.43-6.95-2.6-5.43-3.65-24.06-17.41-30-22.23L150.54,58.5c.85-.79-.29-.38,1.62-.88l17-3.84c8.87-2.22,10.24-2.8,17.59-6.26ZM34.11,53.46c3.9-2.19,6-.53,12.56-5.3,1.76-1.27,5.82-1.15,8.29-.81s8.43,5.25,11.13,6.91c1.56,1,8.58,6.32,9.72,8.17L79.28,68c4.77.23,3.93,0,10,4.36l57.68,38.07c12.4,8.62,26.87,17.42,39.35,26.11l35.55,23.27c-1,2.2-2.23,9.81-2.9,12.86-3.08,14-6.95,19.89-13.22,33.34-9,.35-16.12.28-24.92.14-2.85,0-2.15.55-3.71-1-5.15-5-14.52-15.95-19.74-21-1.8-1.74-3.42-3.38-5.2-5.28-14.41-15.36-7.59-10.73-10.41-14.55l-29-27.41c-6.66-6.47-12.66-13.44-19.54-20.73-1.76-1.87-2.65-3.64-4.49-5.34l-.51-.46a6.57,6.57,0,0,1-.77-.81L79,100.06a22.17,22.17,0,0,1-2.43-2.56L69,89.68c-1.67-1.75-3-3.55-4.55-5.44l-7.24-7.68c-1.08-1.09-1.86-1.42-2.92-2.53-3.45-3.58-6.34-7-9.82-10.59-2.78-2.87-9.56-8.38-10.36-10ZM68.88,10.63,9.37,11.86c-3.21,11.84,0,5.85,0,18.21V52.46c-.49,6.47-2.19,9.76-2.19,18.41,0,2.91-.64,9.59.76,11.87,2.48,4,2.42,7.46,3.46,13.29.93,5.18,1.94,4.64-.4,8.54l-1.09,9.9,5.09,5,0,8.69c-3,2.78.36.8-6,5.42l.57,26.27,6.3,4.57-1.32,22.39c-6.64,4.77-5.21,10.55-5,16.48l.81,22.33L8.88,237c14.9,3.75,11.63,2.59,28.66,2.59,15,0,13.1.15,28-1.65l.39,2.53c2.3-.15,4.68-.27,6.95-.5,6.33-.61,3.8-1.34,6-2.13,1.58-.57,18.53,3.36,21.29,4,1.52-1.7.75-1,2.87-2.39,1.14,2.42,6.05,8,8.05,10.4l6.14-5.76,10.74,4.17,3.15-2.65c1.23,1.45,2,3.27,4.17,3.56,3.19.42,3.71-4.87,10.74-5l40.81-1.36,1.4-1.36,2.09-1.69c2.68,1.61,3.82,3.17,7.5,2.92,11.25-.74,5.36,2.73,19.89,1.95,2.5-.14,1.88-.75,4.09-1.53l4.71-.73c-1-2.75-1.68-2.36-3.71-4.41l25.85,5.22c-.35-30.42-.28-67.55.1-98.85l-7,.52c.25-2,3.28-1.27,3.52-5.36.3-5.15.25-22.78-.5-26.54-.39-1.93-5.29-7.54-6.6-9.29,1.56-4.24,1.71-4,4.6-7.42-.24-2.27-.77-2.88-1.75-5.47l7.58-2.48c.08-4.36.57-21.84.28-27.37l-3.07-29.85,2.35-7.46.1-7.67c-6.54-3.78-5.69-4.19-10.23-4.16a65,65,0,0,1-13.48-1.09c-5-1.15-3.67-2-9.17,3.69l-2.5-5.44c-7.85-.58-33-2.78-39-2.78-7.66,0-6.55.57-9.14,9.27l-11,1.13-1.46-4.76-10-.11,1.06-1.16c1.94-1.86,1.26-1.11,2.78-4.38H106.1a11.59,11.59,0,0,1-6.6,5.26c-4,1.32-2-.81-4.53,1.45-1.89,1.69-2.22,1.59-5.19,1.53-4-.08-8-.21-11.94-.37a30.38,30.38,0,0,1-5.58-.31c-2.69-.63-1.91-1.33-3.38-3.08Z" style="fill-rule:evenodd;fill:url(#gradient)" />
<style>._black { fill: #333; }</style></svg>