<?xml version="1.0" encoding="UTF-8"?>
<svg xmlns="http://www.w3.org/2000/svg" viewBox="0 0 474.75 474.75">
  <path class="_black" d="m219.15,450.13l-12.54,9.35c-.31.23-.65.35-1.02.37-4.95.19-9.87.47-14.76.85-6.67.52-11.56,6.3-17.84,6.39-3.18.04-6.24.35-9.37-.16-3.59-.59-7.2-1.2-10.83-1.81-.26-.04-.44-.28-.41-.54.02-.17.14-.31.3-.38,3.68-1.57,8.29-.45,12.43-1.13,1.89-.31,4.1-1.09,6.61-2.35,9.7-4.86,19.41-9.68,29.14-14.46.85-.41,2.1-1.48,2.56-2.08,3.8-5.01,7.62-10.02,11.45-15.01.2-.26.3-.56.3-.89-.16-17.13-.03-34.24.4-51.35.12-5.01-3.35-7.65-2.82-13.05.48-4.9.86-9.79,1.14-14.67.12-2.12,1.05-3.77,1.23-5.74.69-7.81,1.92-16.5.5-24.24-2.01-10.94-.02-21.41-.92-32.06-.26-3.04,1.09-6.31.73-9.05-.6-4.73-1.99-11.42-4.17-20.09-.1-.37-.34-.58-.72-.61l-4.54-.38c-.29-.03-.56-.11-.81-.25-3.87-2.22-7.64-4.89-12.2-5.45-11.12-1.37-20.64-2.22-31.97-7.17-6.93-3.03-14.37-4.99-21.99-4.49-7.24.48-11.57-.58-17.22-4.73-.84-.62-16.98-10.4-15.9-12.64.15-.33.4-.43.74-.29,5.03,2.11,9.93,4.51,14.68,7.19,3.3,1.85,7.27,2.47,10.77,4.57.29.17.61.23.95.18,4.53-.71,9-.66,13.42.15,4.42.81,9.46,3.24,14.09,4.78.64.21,1.34-.14,1.55-.78.14-.43.04-.89-.27-1.22-5.32-5.66-11.55-10.01-18.68-13.04-.28-.12-.42-.45-.3-.73,0,0,0-.01,0-.02.16-.34.43-.5.81-.49,13.19.68,18.58,8.09,27.12,16.45.24.23.52.39.85.47,2.79.71,5.57,1.49,8.32,2.32,3.52,1.07,7.28.99,11,2.01.33.09.65.08.98,0,4.5-1.29,12.44.13,17.23.53.35.03.66-.08.91-.33l5.21-5.22c.23-.23.27-.49.11-.78-2.21-3.95-5.21-6.68-8.98-8.19-6.16-2.45-11.52-4.96-16.07-7.51-1.78-1-3.57-1.67-5.38-2.02-10.61-2.03-21.21-4.58-32.06-4.83-6.47-.15-12.95-.27-19.42-.37-8.57-.13-19.24-4.7-27.3-7.7-.32-.12-.65-.15-.98-.08-7.83,1.62-15.73,2.07-23.71,1.36-1.07-.09-1.09-.3-.06-.63,5.49-1.72,11.01-3.13,16.58-4.23.42-.09.71-.33.86-.73l1.54-4.22c.15-.4.1-.77-.14-1.12-2.63-3.89-6.11-6.33-10.45-7.32-5.51-1.27-11.67-2.18-18.47-2.73-4.75-.39-8.33-2.12-12.66-3.75-.27-.11-.4-.42-.29-.69.09-.21.29-.34.52-.33,5.69.4,11.37.23,17.02-.5.35-.05.46-.23.32-.56-2.02-4.7-5.36-8.06-10.03-10.09-.34-.14-.5-.53-.36-.86.09-.21.27-.36.5-.4,4.18-.83,6.89-.28,10.22,2.74,7.42,6.74,15.58,12.44,24.48,17.11,3.01,1.57,3.88,4.24,5.86,7.32,2.39,3.71,18.14,7.73,22.75,9.23,4.95,1.61,10.44.74,15.72.51.15,0,.27-.12.27-.27,0-.08-.04-.16-.1-.21l-16.68-14.59c-.29-.25-.48-.56-.59-.93l-11.8-41.19c-.13-.47-.43-.78-.9-.92l-22.44-6.87c-.49-.15-.85-.57-.92-1.07l-1.69-11.28c-.05-.31-.22-.53-.51-.66-7.35-3.18-14.39-6.93-21.12-11.26-.18-.11-.23-.34-.12-.52.08-.13.23-.2.37-.18l9.42,1.01c.22.02.43-.11.5-.33,1.47-4.77.74-9.08-2.18-12.95-.2-.27-.3-.58-.3-.91v-14.4c0-.23.18-.41.41-.41.13,0,.25.06.32.15,1.41,1.74,2.76,3.24,3.11,5.59,1.75,11.6,4.61,23.35,13.73,30.7.27.21.44.48.53.81,1.17,4.31,1.48,8.97,6.94,9.77.38.05.58-.11.61-.5.21-2.81-.19-5.53-1.21-8.14-.25-.64.07-1.37.72-1.62.19-.07.4-.1.6-.07,2.81.37,3.7,4.05,4.62,6.24,1.26,3,5.14,6.51,8.44,6.85,4.81.49,9.62.94,14.43,1.35.32.03.57.31.54.63,0,0,0,0,0,.01-.42,4.38-1.22,8.38-.59,12.78,1.17,8.08,2.33,16.16,3.48,24.25.05.37.22.67.5.91l10.38,8.94c.27.23.57.35.91.38l4.07.26c.35.02.65-.24.67-.59,0-.05,0-.11-.01-.16-1.2-6.51-2.55-12.81-1.82-19.55.43-3.95.75-7.93.96-11.93.01-.25.21-.44.46-.45,1.26-.05,3.6,8.06,3.77,9.34,1.01,7.63,1.19,15.79,3.63,23.03,1.13,3.38,2.32,6.74,3.55,10.08.12.33.35.5.7.53,7.41.54,14.8,1.13,22.15,1.77,1.82.15,3.64.64,5.47,1.45,7.51,3.33,15.32,5.72,23.43,7.17.33.06.47-.08.4-.41-1.78-8.49-2.74-13.18-6.83-19.02-4.62-6.59-12.31-12.67-18.54-17.75-8.18-6.67-13.32-19.35-17.96-29.24-1.78-3.79-10.06-12.94-14.07-14.08-6.95-1.99-15.41-3.57-22.19-6.38-.67-.29-.98-1.06-.69-1.73.2-.46.63-.76,1.13-.8l18.02-.84c.63-.03.82-.33.57-.92l-7.56-17.48c-.15-.34-.38-.61-.69-.8-2.79-1.72-5.87-3.13-8.32-5.24-11.77-10.14-23.57-20.22-35.4-30.25-.16-.14-.18-.38-.05-.53.08-.1.22-.15.35-.13,7,1.16,16.43,9.28,22.39,13.42,1.69,1.17,4.22,1.29,6.07,2.39,4.27,2.54,8.77,4.67,13.49,6.38.66.24,1.02,0,1.09-.7.35-3.55.47-7.05,1.82-10.43,1.36-3.37,3.58-6.84,3.67-10.55.08-3.22.67-6.36,1.77-9.41.11-.3.13-.61.07-.92l-2.11-10.7c-.05-.26.12-.5.38-.55.2-.04.41.06.5.25l6.12,12.28c.19.38.44.43.76.16,1.68-1.44,3.55-2.61,4.86-4.39,2.68-3.66,5.29-7.4,7.82-11.22.16-.25.49-.33.74-.18.22.13.31.4.23.64-.65,2.01-.93,4.06-.85,6.15.01.32-.06.62-.23.89-3.68,5.88-7.4,9.68-12.22,14.58-3.93,3.99-1.97,7.52-1.3,12.07.05.34,0,.66-.15.97-1.56,3.12-3.99,6.36-4.14,9.91-.19,4.61-.35,9.22-.5,13.83,0,.36.12.67.37.94,4.83,4.95,9.12,10.31,12.88,16.1.19.31.47.45.83.43l3.56-.16c.33-.01.55-.17.68-.46,1.08-2.42,2.11-4.84,3.08-7.26.94-2.32,2.81-3.69,4.35-5.62.2-.24.56-.27.8-.07.16.13.23.33.2.53-.79,4.24-1.19,8.58-1.22,13.01-.02,4.41-3.3,7.2-1.16,11.75,2.77,5.9,8.31,17.79,13.87,21.21,4.24,2.6,8.88,5.92,12.61,2.47,5.98-5.51,11.11-11.71,15.39-18.58,2.51-4.04,3.49-8.65,5.05-13.22.14-.41.1-.79-.12-1.16l-11.33-18.73c-.17-.28-.25-.59-.26-.92l-.11-9.98c0-.24.19-.43.43-.43.03,0,.07,0,.1.01.6.14,2.16,6.14,2.42,7.07.43,1.55,1.17,2.99,2.2,4.32,3.37,4.3,6.46,10.77,10.52,14.15.28.23.52.2.73-.1,8.27-11.98,16.34-24.07,24.23-36.26,1.35-2.08,2.38-4.3,3.1-6.66,2.86-9.34,6.32-18.97,7.1-28.45,1.02-12.31.1-24.99-.33-37.22-.01-.28.2-.51.47-.52.21-.01.4.11.49.3,1.29,2.93,3.23,5.23,3.59,8.39.31,2.71.62,5.43.92,8.15.62,5.74-.12,11.57-.15,17.45-.07,10.47-3.47,22.04-5.51,32.36-.33,1.66-.96,3.18-1.91,4.56-9.07,13.22-18.18,26.41-27.31,39.58-1.32,1.9-2.37,3.99-3.15,6.28-4.38,12.77-9.63,25.17-15.76,37.2-1.3,2.56-1.31,4.67-1.64,7.41-.04.35.05.67.28.95l9.33,11.28c.25.31.56.37.92.2,4.21-2.02,9.29-3.73,12.52-7.14,2.67-2.8,5.36-5.19,7.29-8.61,7.47-13.21,13.11-27.13,20.78-40.2.1-.16.31-.2.47-.1.11.07.17.21.15.34-1.61,7.55-3.43,14.99-5.46,22.34-2.24,8.08-7.31,15.56-11.57,22.73-2.75,4.62-8.75,7.81-10.33,12.21-1.21,3.38-3.53,7.45-3.22,11,.41,4.72,1.82,9.15,4.22,13.29.17.29.42.5.75.61l9.36,3.11c.31.11.63.1.94-.01,5.53-2.02,12.71-3.65,17.37-7.2,2.69-2.05,5.38-4.09,8.07-6.11.27-.2.43-.47.48-.8.87-6.19,1.69-16.38,8.02-19.42.63-.3,1.38-.03,1.68.59.14.3.16.65.05.97l-2.9,7.99c-.11.31-.12.62-.01.93,2.38,7.07,1.87,10.84,10.96,11.56,3.51.27,9.34-4.24,10.76-7.31,1.97-4.28,3.97-8.54,6-12.77.14-.29.19-.6.15-.93-.63-4.82-.74-13.02-3.35-17.01-6.75-10.34-13.46-20.69-20.15-31.06-1.29-2.01-2.84-3.8-4.65-5.37-10.16-8.81-18.74-15.86-28.06-27.65-.22-.28-.25-.58-.08-.9l2.7-5.05c.17-.32.56-.44.88-.27.1.05.18.13.24.22,2.34,3.6,4.2,7.05,7.4,10.01,5.66,5.23,11.31,10.47,16.96,15.72,6.58,6.11,11.92,12.49,17.42,19.28.09.11.25.14.36.05.05-.04.08-.09.1-.15,2.01-7.54,4.07-15.06,6.17-22.57,1.07-3.82-.44-8.46-1.17-12.26-1.24-6.46-9.01-10.52-10.65-17.63-1.57-6.8-3.4-13.51-5.51-20.14-.09-.27-.09-.55-.01-.82l1.61-5.66c.06-.21.28-.32.49-.26.12.04.21.12.25.24,3.1,8.67,5.88,17.39,8.35,26.14.86,3.03,2.75,4.28,4.97,6.19.26.22.51.21.76-.03,3.69-3.7,5.33-11.29,7.21-17.72.09-.32.08-.63-.04-.94-1.07-2.69-4.63-10.1-4.09-12.59.62-2.85,1.31-5.66,2.07-8.44.05-.23.27-.37.5-.32.19.04.32.2.33.39.2,2.03.42,4.04.65,6.03.53,4.46,2.58,8.22,4.38,12.27.13.31.18.63.14.96-.42,3.68-.85,7.36-1.3,11.03-.52,4.26-1.97,8.59-2.82,12.96-.88,4.49-.02,8.89.44,13.45.26,2.6,1.58,4.68,2.26,7.28.12.42.55.67.97.55.14-.04.27-.12.37-.22,2.2-2.39,2.87-6.37,3.85-8.6,1.83-4.15,2.88-7.59,7.02-10.15,4.77-2.94,8.99-6.54,12.65-10.81,1.6-1.86,1.23-8.16,1.31-10.64.13-3.64-1.35-6.38-2.82-9.57-.09-.2,0-.43.19-.52.15-.07.32-.04.44.07l7.02,6.64c.26.25.39.55.4.9l.33,12.95c0,.34-.08.65-.27.93-3.14,4.78-7.35,6.93-10.9,10.06-5.53,4.87-9.41,10.53-11.64,16.96-1.37,3.95-3.49,6.86-6.38,8.73-.32.21-.54.49-.67.84l-5.46,15.39c-.11.33-.13.66-.05,1,2.02,8.61,3.29,17.07,6.14,25.71,2.47,7.49,4.14,15.21,5.01,23.14.02.23.22.39.45.37.07,0,.14-.03.19-.07,2.46-1.69,9.87-5.89,10.17-8.87.41-4.06.8-8.12,1.19-12.19.13-1.28-5.71-6.53-6.61-7.42-3.76-3.72-6.01-9.85-8.44-14.54-.13-.22-.06-.5.16-.63.18-.11.42-.08.57.08,5.93,5.61,12.4,10.5,19.39,14.67.33.19.58.12.75-.22,3.01-5.71,5.82-11.5,8.45-17.37.74-1.63-.94-7.06-1.34-9.01-.76-3.66.27-6.42,1.26-9.85.09-.31.06-.6-.11-.87-1.97-3.25-4.87-5.02-8.7-5.32-.39-.03-.7-.19-.95-.5l-6.45-8.03c-.38-.47-.27-.74.34-.81,2.19-.24,4.09-.49,6.08.73,4.61,2.83,9.23,5.63,13.87,8.38.29.17.58.2.89.08,2.15-.84,3.94-1.32,5.27-3.37,3.63-5.61,6.15-11.71,7.57-18.28.07-.33.03-.64-.12-.94l-2.66-5.32c-.1-.19-.03-.42.16-.51.11-.06.25-.06.36,0,2.55,1.38,4.63,3.27,6.24,5.68,3.32,4.98-.7,10.05-3.21,14.04-1.7,2.68-2.25,5.62-3.51,8.6-.13.31-.36.53-.69.66l-7.05,2.75c-.32.13-.47.36-.45.71.98,15.16-1.9,24.79-6.61,41.37-1.02,3.6.02,6.9,3.13,9.89.21.21.47.31.77.29,3.44-.2,6.4-.44,9.65-1.92,7.63-3.49,15.14-7.14,22.53-10.96.3-.15.41-.51.26-.81-.03-.05-.06-.1-.1-.14-3.64-3.79-12.54-11.76-11.21-17.5.81-3.45,2.08-6.61,3.83-9.49.12-.18.37-.24.55-.13.13.08.2.22.18.37-.4,3.9-.68,7.78-.85,11.65-.11,2.47,10.8,8.83,13.07,10.09.29.17.6.21.93.12,3.18-.82,6.42-1.42,8.49-4.23,2.58-3.53,6.83-8.65,3.62-13.31-3.96-5.73-8.07-11.43-12.32-17.09-.18-.24-.13-.59.1-.77.12-.09.27-.13.42-.1l1.95.33c.31.05.57.19.79.42l14.83,14.99c.3.31.8.31,1.1.01.07-.07.13-.15.17-.24l5.23-11.78c.14-.31.35-.37.63-.16,4.6,3.49-6.1,21.59-8.39,25.64-2.07,3.64-3.06,7.52-4.64,11.46-.12.31-.32.56-.61.73-11.92,7.21-24.6,12.88-37.17,18.85-5.7,2.7-6.53,7.87-11.04,11.36-.26.21-.55.33-.88.36-13.73,1.68-21.79,7.32-32.46,16.1-4.07,3.36-11.16,4.78-16.11,6.73-3.15,1.24-6.26,2.89-9.32,4.95-8.81,5.95-17.51,12-26.1,18.15-.36.26-.44.77-.18,1.13.13.18.32.29.53.32,5.24.76,10.46,1.58,15.66,2.46,3.82.64,6.61,3.35,10,3.72,7.12.77,13.6.51,19.45-.79,1.48-.33,3.03-1.27,4.66-2.83.23-.23.31-.5.24-.82-2.58-11.82-6.52-20.42,7.4-27.1.16-.07.36,0,.44.16.05.11.04.24-.04.33-1.75,2.26-3.38,4.6-4.9,7.02-3.54,5.63,1.64,12.84,4.2,17.7.16.31.4.52.73.64,3.12,1.14,6.72,2.29,9.94.78,5.83-2.73,11.57-5.64,17.22-8.72,3.58-1.95,6.88-4.55,10.26-6.97.32-.23.54-.16.66.22,1.69,5.39-16.82,15.76-21.27,18.52-.04.03-1.67,1.2-4.9,3.51-7.04,5.06-12.1,3.13-19.92,3.93-8.03.83-16.06,1.65-24.09,2.46-1.59.16-3.21.64-4.88,1.44-3.45,1.66-7.06,2.94-10.82,3.83-.33.07-.61.24-.82.51-4.57,5.73-6.88,15.12-9.1,22.49-5.09,16.86-1.65,34.22-2.29,51.34-.26,7.04,1.54,13.96,2.88,20.77,1.49,7.54-4.06,14.36-3.18,21.65,2.24,18.54,4.54,37.06,6.9,55.56.17,1.39.67,2.62,1.49,3.71,5.52,7.37,11.47,14.37,17.86,21,1.2,1.25,2.64,2.24,4.32,2.98,5.82,2.56,11.53,5.33,17.14,8.3,5.51,2.92,10.97,4.18,16.8,5.77.24.07.38.33.31.57-.05.16-.18.28-.35.32-4.43.81-8.82.99-13.19.53-6.13-.65-12.69-4.6-18.37-7.28-5.61-2.63-13.41-.76-18.21-4.24-6.83-4.95-13.61-9.94-20.34-14.95-.1-.08-.25-.06-.32.04-.03.04-.05.09-.05.14-.1,5.61,1.01,10.95,3.34,16.02,2,4.35,7.8,6.64,11.76,9,1.63.98,3.66,1.22,5.39,2.25.59.35.56.65-.09.88l-3.17,1.1c-.31.11-.6.07-.87-.1-1.3-.83-2.64-1.15-4.02-.96-5.13.73-5.86-1.81-9.47-3.8-1-.55-1.98-1.13-2.93-1.75-.28-.19-.59-.29-.93-.3-6.59-.33-7.03-4.05-11.13-7.33-2.58-2.07-5.41-3.71-8.48-4.94-.31-.12-.62-.1-.91.05-8.7,4.68-13.82,9.09-20.83,16.47-.21.23-.48.35-.79.37l-15.01,1.12c-.21.02-.41-.13-.43-.35-.01-.14.05-.28.17-.36,4.26-3.09,9.48-6.09,12.46-10.46,2.11-3.08,4.15-6.2,6.14-9.36.44-.7.33-.8-.33-.31Zm16.64-164.08l-10.73.33c-.33,0-.56.16-.69.45l-1.47,3.12c-.09.18-.01.41.17.49.06.03.13.04.2.04l10.46-1.02c.41-.04.78.26.82.68,0,.02,0,.04,0,.05.71,35.93,1.27,71.85,1.66,107.75.07,6.65,1.55,12.87,4.44,18.64.11.21.36.29.57.18.08-.04.14-.11.18-.19,3.03-6.44,4.19-11.83,4.3-19.45.47-33.6.99-67.2,1.54-100.81.03-1.97.2-4.02.5-6.15.05-.41.29-.6.71-.56l10.21.94c.57.05.73-.18.49-.69l-1.46-3.1c-.17-.37-.46-.55-.87-.56l-10.1-.09c-.68,0-1.25-.53-1.31-1.21l-2.02-24.08c-.03-.35.1-.63.4-.83,1.14-.78,4.63-1.34,3.7-3.53-1.29-3.05-15.44-2.81-12.87,1.46.17.29.42.51.73.66l2.88,1.31c.3.13.43.37.4.7l-2.2,24.87c-.03.39-.25.59-.64.6Z"/>
  <path class="_black" d="m220.49,53.98c-2.35-5.32-1.2-9.89-1.81-14.49-.51-3.91-1.34-7.78-2.48-11.6-.09-.31-.09-.62.02-.93,1.3-3.62,2.56-7.24,3.78-10.85,1.11-3.27,2.98-5.54,5.05-8.14.16-.2.45-.22.65-.06.12.1.19.26.16.42-1.63,10.07-2.65,20.21-3.06,30.4-.01.33.06.65.21.94.23.41.17.84-.17,1.29-.2.27-.29.58-.28.92.09,2.04.46,4,1.13,5.89,2.49,7.03,4.49,14.21,6.95,21.25.13.39.36.71.67.97l12.33,10.2c.31.25.34.54.09.85l-3.71,4.7c-.16.22-.47.25-.69.08-.09-.07-.15-.17-.18-.27-.37-1.53-.69-2.36-1.92-3.47-4.46-4.05-13.25-12.61-14.65-18.48-.08-.35-.29-.57-.63-.68-5.97-1.94-11.94-3.84-17.91-5.71-3.61-1.13-5.61-3.4-7.98-6.09-2.52-2.88-2.12-6.83-.76-10.02.14-.32.52-.47.85-.32.17.08.3.23.35.41l1.79,6.62c.1.36.3.66.59.89,4.94,3.97,11.47,4.98,17.25,6.91.91.31,2.26.02,4.07-.85.35-.17.44-.43.29-.78Z"/>
</svg>