<svg xmlns="http://www.w3.org/2000/svg" viewBox="0 0 256 256">
    <rect width="256" height="256" style="fill:#1a6b9a" />
    <path d="M193.47,59.68l-60.4-18.56a17.35,17.35,0,0,0-10.14,0L62.53,59.68a5.1,5.1,0,0,0,0,9.87l10.53,3.23a17.07,17.07,0,0,0-3.87,10.16,6.68,6.68,0,0,0-.55,11.48l-5.53,24.87a3.47,3.47,0,0,0,3.38,4.22H78.64A3.46,3.46,0,0,0,82,119.29L76.49,94.42a6.65,6.65,0,0,0-.39-11.37,10.22,10.22,0,0,1,4.48-8l42.35,13a17.36,17.36,0,0,0,10.13,0l60.41-18.56a5.1,5.1,0,0,0,0-9.87ZM135.1,94.73a24.19,24.19,0,0,1-14.2,0L89.5,85.08l-3.08,24.57c0,7.66,18.62,13.86,41.58,13.86s41.57-6.2,41.57-13.86L166.5,85.08Z" style="fill:#fff" />
    <path d="M74.15,192.38,59.48,170.1h14.1l8.84,14.5,8.92-14.5h14.09L90.6,192.38l15.52,23.26H92L82.42,200l-9.62,15.6H58.71Z" style="fill:#a5cae5" />
    <path d="M126.45,215.64H114V156.08h34.13v10.35H126.45v15.36h20.21v10.3H126.45Z" style="fill:#fff" />
    <path d="M197.29,215.64H155.66v-8.76l15-15.11q4.51-4.65,7.27-7.76a26.4,26.4,0,0,0,4-5.68,12.48,12.48,0,0,0,1.24-5.5,6.76,6.76,0,0,0-2-5.32,7.63,7.63,0,0,0-5.28-1.77,15.2,15.2,0,0,0-6.72,1.59,34.49,34.49,0,0,0-6.8,4.52l-6.84-8.11a62.68,62.68,0,0,1,5.43-4.15,25.32,25.32,0,0,1,6.68-3.16,30.67,30.67,0,0,1,9.15-1.2,22.25,22.25,0,0,1,10.08,2.12,15.82,15.82,0,0,1,6.5,5.76,15.23,15.23,0,0,1,2.28,8.25,20.4,20.4,0,0,1-2,9,32.33,32.33,0,0,1-5.68,8.07q-3.72,4-9,8.84l-7.66,7.21v.57h25.95Z" style="fill:#fff" />
<style>._black { fill: #333; }</style></svg>