<svg xmlns="http://www.w3.org/2000/svg" viewBox="0 0 443 443">
    <path class="_black" d="M439.21,218,375,165.1V58.76a9.21,9.21,0,0,0-9.21-9.21h-43a9.21,9.21,0,0,0-9.15,9.21v55.75L244.87,58A36.83,36.83,0,0,0,198,58L3.71,218a9.21,9.21,0,0,0-1.27,13l0,0h0L22,254.81a9.21,9.21,0,0,0,13,1.29l0,0h0L215.66,107.29a9.37,9.37,0,0,1,11.75,0L408,256a9.2,9.2,0,0,0,13-1.17l0-.05h0L440.54,231a9.22,9.22,0,0,0-1.23-13l0,0h-.06ZM254.78,290.56q10.77-7.38,10.77-25.21,0-15.51-10.12-22.62t-29.08-7.11H203.51v62.3h21.8Q244,297.92,254.78,290.56ZM227.37,138.77a9.37,9.37,0,0,0-11.75,0h0L74.07,255.35V381.17a12.28,12.28,0,0,0,12.28,12.28h0l84.18-.21V207.58h55.81q34.28,0,53.22,13.5t18.95,43.09q0,16.36-5.32,28a50.71,50.71,0,0,1-14.93,19.21,62.18,62.18,0,0,1-23.1,11,118.75,118.75,0,0,1-29.86,3.51h-21.8v67.25h67l86,.23a12.28,12.28,0,0,0,12.28-12.28V255.26Z" />
<style>._black { fill: #333; }</style></svg>