<svg xmlns="http://www.w3.org/2000/svg" viewBox="0 0 512 512">
    <path class="_black" d="M480,336V48A48,48,0,0,0,432,0H128A96,96,0,0,0,32,96V416a96,96,0,0,0,96,96H448c17.67,0,32-14.33,32-31.1,0-11.72-6.61-21.52-16-27.1V372.44C473.8,362.8,480,350.2,480,336ZM180.34,237.35a52.77,52.77,0,0,1,15,2.31V130.89a16,16,0,0,1,10.54-14.35L356,72.11a28.72,28.72,0,0,1,5.36-.7,15.07,15.07,0,0,1,15.05,15L376,244c0,20.77-20.21,37.62-44.71,37.62s-44.72-16.85-44.72-37.2c0-20.77,20.21-37.19,44.72-37.19a52.82,52.82,0,0,1,15.05,2.3V141.05L225.91,176.74v97.85c-.42,20.74-20.21,37.57-45.56,37.57s-44.72-16.83-44.72-37.61S155.83,237.35,180.34,237.35ZM416,448H128a32,32,0,0,1,0-64H416Z" />
<style>._black { fill: #333; }</style></svg>