<svg xmlns="http://www.w3.org/2000/svg" viewBox="0 0 256 256">
    <defs>
        <linearGradient id="gradient" x1="39.82" y1="230.23" x2="213.8" y2="56.24"
            gradientUnits="userSpaceOnUse">
            <stop offset="0" stop-color="#00b43d" />
            <stop offset="0.5" stop-color="#00d660" />
            <stop offset="1" stop-color="#00aa32" />
        </linearGradient>
    </defs>
    <path d="M237.28,127.21c1.68.89,3.29,1.64,4.77,2.59a5.41,5.41,0,0,1,1.48,1.9,6.07,6.07,0,0,1,.34,1.5c.83,3.14.64,5.87-2.77,7.44-1.72.78-1.76,2.08-.8,3.48,1.29,1.89,2.7,3.69,4,5.58,1.5,2.2,3.4,4.29,4.31,6.73a11.09,11.09,0,0,1-5.07,13.36,51.17,51.17,0,0,1-9.53,3.79c-4,1.3-8.15,2.27-12.22,3.44-7.06,2-11.86,6.52-13.66,13.67a132.1,132.1,0,0,0-3.54,18c-.74,6.82-.59,13.74-.84,20.61a34.26,34.26,0,0,0,5.86,20.83,14.28,14.28,0,0,1,2,4.06c-3.87-5-7.95-9.82-11.55-15-3.18-4.57-4.12-10.05-4.6-15.5a99.32,99.32,0,0,1,3.72-37.24,47.65,47.65,0,0,1,1.9-5,12.87,12.87,0,0,1,8.4-7.36c4.36-1.38,8.86-2.27,13.26-3.55a50.07,50.07,0,0,0,7.71-2.82,12,12,0,0,0,6.26-7.41,9.68,9.68,0,0,0-1.62-9.57c-1.1-1.39-2.38-2.64-3.51-4a21.15,21.15,0,0,1-2.2-3.06A3.62,3.62,0,0,1,230,139l1-1c3.23-3.23,2.61-7.14-1.4-9.19-1.14-.59-2.17-1.37-3.26-2.06l-.13-.6a3,3,0,0,0,.81-.34c3.17-2.74,3.55-5.43,1.18-8.91a36.36,36.36,0,0,0-2.56-3c-.85-1-1.8-1.94-2.55-3a6.75,6.75,0,0,1,.91-9.32c1.93-1.79,4.12-3.3,6.18-4.94a5.76,5.76,0,0,0-.44-9.37c-7.77-5.19-15.39-10.64-23.41-15.41-5.1-3-8.58-6.75-9.56-12.66a8.83,8.83,0,0,0-3.41-5.36c-1.94-1.62-3.66-3.49-5.62-5.08-4.08-3.31-7-7.61-9.73-11.95C168.3,21.54,153.49,15,136.53,12.1c-9.54-1.61-19.06-.33-28.5,1.33A151.2,151.2,0,0,0,67.76,26.35c-12.3,6-22.26,14.87-30.66,25.54A100.34,100.34,0,0,0,17,95.48C13.52,113.25,18.78,128.41,30,142a50.14,50.14,0,0,0,14.87,12.34c13.18,7.12,26.89,5.36,37.92-4.8,5-4.63,8.85-10.18,12.41-16,7.87-12.79,15.86-25.51,23.84-38.23a54.87,54.87,0,0,1,3.56-4.64,2.38,2.38,0,0,1,1.38-.8,12.12,12.12,0,0,1-.6,2.26c-2.94,6-5.71,12-8.94,17.82a272.38,272.38,0,0,1-27.06,40.39c-2.21,2.71-4.59,5.27-6.92,7.88-7.39,8.34-16.67,10.39-27.18,8-8.62-2-16-6.41-22.66-12.14-10.95-9.43-18.86-20.86-22.55-35-1.69-6.49-1.52-13.07-.83-19.66a119.29,119.29,0,0,1,6.34-28.45C16.7,62.35,21.7,55,27.43,48.07c8-9.69,16.72-18.65,27.43-25.33A212,212,0,0,1,74.47,12.09,104.66,104.66,0,0,1,107.06,2.3c7.35-.95,14.87-.74,22.3-.64A85.63,85.63,0,0,1,157,6.49a48.4,48.4,0,0,1,23.5,18l.21.27c6,8.93,13.36,16.58,21.38,23.66A7.63,7.63,0,0,1,204,51.4c1,2.52,1.81,5.08,2.51,7.68a8.25,8.25,0,0,0,3.11,4.8c5,3.57,9.86,7.27,15,10.53s10.83,6.23,16.3,9.23a3.84,3.84,0,0,1,2.17,3c.92,5.34,0,7.61-4.64,10.51l-.3.17c-7.63,4.17-6.67,10.57-1.77,15.51.81.81,1.64,1.6,2.43,2.43,2.53,2.66,2.83,4.9,1,8.1C239.1,124.61,238.24,125.76,237.28,127.21ZM152.77,65c-3.88-.19-7.76-.48-11.63-.4A64.46,64.46,0,0,0,117,69.85c-15.63,6.71-25.76,18.27-29.74,35-.69,2.88-1.49,5.89-1.34,8.79a148.73,148.73,0,0,0,1.93,15c.3,1.94,1,3.82,1.44,5.73l.5,0c.18-1,.4-2.08.53-3.13a103.44,103.44,0,0,1,8.43-30.86,54.55,54.55,0,0,1,11.46-16.79c9.1-8.81,20.31-12.51,32.78-12.85a14.79,14.79,0,0,1,1.69.19,4.38,4.38,0,0,1-.4.87c-6,7.45-8.34,16.48-10.68,25.47-1.78,6.87-3.27,13.82-5.28,20.61-3.46,11.74-11.31,19.4-22.77,23.45-2.32.82-4.64,1.64-7,2.49a17,17,0,0,0-1.67.84A14.7,14.7,0,0,0,99,145c2.33,0,4.68.14,7,0,12-.78,21.34-6.18,27.68-16.38,6.12-9.86,9.6-20.77,11.53-32.16,1.19-7,2.25-14.05,4.9-20.69,1.36-3.38,3.16-6.58,4.87-10.11A10.76,10.76,0,0,0,152.77,65ZM117.72,187c0-1,.08-1.95.08-2.92,0-2-.33-2.41-2.38-2.43-3.61,0-7.22,0-10.83,0-8.53,0-7-.75-13.09,5.5-2.21,2.25-4.67,3.46-7.81,3a2.43,2.43,0,0,1-1.58-1.1c-1-1.94-2.42-3.14-4.76-3a30.19,30.19,0,0,1-3.43,0c-2.2-.09-3.46,1.12-4.45,2.91A2.29,2.29,0,0,1,68,190.14c-5.64,0-9.47,4.43-9.46,10.05,0,14.8,0,29.6,0,44.4a9.42,9.42,0,0,0,9.85,9.83q39,0,78,0a9.44,9.44,0,0,0,9.87-9.83q0-22.36,0-44.74a11.69,11.69,0,0,0-.84-4.16,7.85,7.85,0,0,0-4.44-4.54c-.11.83.53,6.88.54,9.3.08,14.57,0,29.14,0,43.71,0,3.91-1.6,5.5-5.54,5.51H68.47c-3.52,0-5.21-1.65-5.21-5.12q0-22.28,0-44.57c0-3.52,1.49-5,5-5,5.73,0,11.46.08,17.18-.06a9.16,9.16,0,0,0,4.73-1.18,63.5,63.5,0,0,0,7.18-6.05,4.36,4.36,0,0,1,3.33-1.35c4.07.06,8.14,0,12.21,0C114.42,186.42,117.71,187.16,117.72,187Zm0,15.6a3.1,3.1,0,0,0-1.38-2,22.51,22.51,0,0,0-15.93-.83A23.54,23.54,0,0,0,113.37,245a24,24,0,0,0,17.42-22.41c0-1-.33-1.52-1.36-1.51-.52,0-1,0-1.55,0-1.24-.1-1.65.4-1.74,1.68a21,21,0,0,1-.9,5.23,18.77,18.77,0,1,1-31.58-18.57A17.52,17.52,0,0,1,110,203.74a64.87,64.87,0,0,1,7.83,2.2A16,16,0,0,0,117.75,202.63Zm8.71-11.19c1.44-.1,1.86.44,1.84,1.85-.07,5.05,0,10.09-.05,15.13,0,1.28.36,1.7,1.65,1.66,2.8-.08,5.61-.12,8.41,0,1.68.08,2.28-.32,2.23-2.14-.14-4.81,0-9.63-.07-14.44,0-1.5.3-2.23,2-2.07,1.44.14,2.9,0,4.78,0l-12.84-17.15-12.82,17.15C123.52,191.47,125,191.55,126.46,191.44ZM96.62,222.18a10.76,10.76,0,1,0,21.51.14c0-6.43-5.52-11.2-10.77-10.77C102.43,211.07,96.69,215.71,96.62,222.18Zm4.65.11a6.13,6.13,0,0,1,12.25-.08,6.13,6.13,0,0,1-12.25.08ZM72.69,198.82c-6-.26-5.69.5-5.62,6.06a2.71,2.71,0,0,0,2.83,2.8c1.6.06,3.2-.05,4.8,0,5.76.3,5.67-1,5.54-6.29a2.26,2.26,0,0,0-.08-.51,2.29,2.29,0,0,0-2.49-2.09c-1.37,0-2.75,0-4.12,0C73.26,198.82,73,198.83,72.69,198.82Z" style="fill:url(#gradient)" />
</svg>