<svg xmlns="http://www.w3.org/2000/svg" viewBox="0 0 430 430">
    <path d="M429.49,113.74v210.6L247.11,429.65.51,287.28V73.73L247.11,216.1Zm-7.83-11.43L384.76,81,361.44,94.5l36.87,21.29ZM384.76,83.6l32.42,18.71L398.31,113.2l-32.4-18.71ZM164.48,30.4l25.46,14.67a3.9,3.9,0,0,0,2.06.49,4,4,0,0,0,2.06-.49l9.9-5.69a1.24,1.24,0,0,0,.75-.75A1.26,1.26,0,0,0,204,37L178.51,22.38l4.8-2.76,29.65,17a4.64,4.64,0,0,0,4.11,0l10.75-6.17a1.24,1.24,0,0,0,.75-.75,1.26,1.26,0,0,0-.75-1.62L180.41.83a4.71,4.71,0,0,0-4.11,0l-49.24,28.3a1.27,1.27,0,0,0-.76.76,1.25,1.25,0,0,0,.76,1.61l48.22,27.69a4.09,4.09,0,0,0,2.06.48,4.24,4.24,0,0,0,2-.48L190.09,53a1.28,1.28,0,0,0,.75-.76,1.25,1.25,0,0,0-.75-1.61L159.68,33.16Zm55,51.89,34.9-20.13,23.7,13.62a4.53,4.53,0,0,0,4.12,0l12.27-7a1.35,1.35,0,0,0,.83-1.18,1.4,1.4,0,0,0-.83-1.18l-41.4-23.79a4.66,4.66,0,0,0-4.12,0l-49.23,28.3a1.25,1.25,0,0,0-.77.77,1.24,1.24,0,0,0,.77,1.59l15.66,9A4.62,4.62,0,0,0,219.5,82.29Zm88.12,29.3a12.24,12.24,0,0,1-6.55,1.14,16.55,16.55,0,0,1-6.94-2.24q-6.25-3.57-4.57-7.53.76-1.83-.69-2.67l-15-8.62a3.32,3.32,0,0,0-1.67-.39,3.4,3.4,0,0,0-1.68.39q-7.17,4.13-5.49,12.14T279.22,119q17.14,9.86,34.13,8.5a39.16,39.16,0,0,0,16.59-5.07l8.77-5q7.53-4.31,8.82-9.53,2.36-9.76-14.79-19.62a63.12,63.12,0,0,0-26-8.35q-13.56-1.18-20.25,2.65a1,1,0,0,0-.6.92,1.17,1.17,0,0,0,.72.95L301.53,93a7.44,7.44,0,0,0,4.21.65,21.11,21.11,0,0,1,12.16,3.17c2.25,1.29,3.66,2.56,4.25,3.79s.25,2.3-1,3.22l-12.42-7.14a4.6,4.6,0,0,0-4.12,0l-9.37,5.39a1.26,1.26,0,0,0,0,2.36ZM54.32,67Q62,68,72.48,69c2.93.25,5.26.36,7.11.33s3.84-.09,6-.23a22.49,22.49,0,0,0,10-2.68q8-4.61,6.64-10.39T89.65,43.79a54.71,54.71,0,0,0-22.9-7.38Q55,35.48,46.58,40.34a1.28,1.28,0,0,0-.79,1.11,1.35,1.35,0,0,0,.81,1.07l15.34,8.86a4.17,4.17,0,0,0,3,.76c.15,0,.68-.19,1.6-.48a20.18,20.18,0,0,1,2.28-.61,8.77,8.77,0,0,1,2.4,0,7.48,7.48,0,0,1,2.84,1q1.34.78,1.53,1.44a.91.91,0,0,1-.25,1.06,7.19,7.19,0,0,1-1.34.91Q71.35,57,60.14,56t-32.2-3.79a9.26,9.26,0,0,0-6,1.18l-9.21,5.3a1.34,1.34,0,0,0-.81,1.17,1.42,1.42,0,0,0,.85,1.17l46,26.42a4.6,4.6,0,0,0,4.12,0L74.4,80.85a1.25,1.25,0,0,0,0-2.36ZM166.68,94q-2.12-7.11-13.17-13.46A57.91,57.91,0,0,0,130.09,73a36.4,36.4,0,0,0-22.25,4.46L94.61,85q-10,5.74-8.07,12.69T100,111.23A57.8,57.8,0,0,0,123.54,119a36.25,36.25,0,0,0,22-4.53l13.53-7.78Q168.77,101.07,166.68,94ZM129.1,88.85a9.1,9.1,0,0,1,4.69-1.1A10.08,10.08,0,0,1,138.71,89c1.42.8,2.15,1.75,2.21,2.8s-.6,2-1.94,2.74l-14.42,8.28a8.9,8.9,0,0,1-4.76,1.08,9.89,9.89,0,0,1-4.88-1.23,3.65,3.65,0,0,1-2.17-2.78c-.1-1.07.56-2,1.9-2.76l14.42-8.28Zm54.79,52.62q7.74,1.08,18.16,2a69.92,69.92,0,0,0,7.11.34q2.76,0,6-.23a22.42,22.42,0,0,0,10-2.68q8-4.6,6.63-10.39t-12.57-12.22a54.46,54.46,0,0,0-22.95-7.38q-11.7-.94-20.16,3.92a1.28,1.28,0,0,0-.79,1.11,1.34,1.34,0,0,0,.8,1.07l15.48,8.9a4.19,4.19,0,0,0,2.94.76c.15,0,.69-.19,1.61-.5a21.63,21.63,0,0,1,2.27-.6,8,8,0,0,1,2.4,0,7.58,7.58,0,0,1,2.84,1c.89.51,1.4,1,1.54,1.44A.94.94,0,0,1,205,129a9.13,9.13,0,0,1-1.35.91q-2.64,1.51-13.85.56t-32.21-3.79a9.24,9.24,0,0,0-6,1.18l-9.21,5.3a1.31,1.31,0,0,0-.81,1.16,1.34,1.34,0,0,0,.84,1.18l46,26.42a4.64,4.64,0,0,0,4.11,0L204,155.32a1.22,1.22,0,0,0,.76-.76A1.26,1.26,0,0,0,204,153Zm109.6,21.87a1.26,1.26,0,0,0,0-2.36l-15.7-9a4.11,4.11,0,0,0-1.53-.53l-28-3.37a4.49,4.49,0,0,0-2.56.33,2.72,2.72,0,0,0-1.1,1l-3.43,9.07a1.13,1.13,0,0,0,.42,1.47,5.06,5.06,0,0,0,1.87.55l12.8,1.48L238,172.5l-14.1-8.11a4.6,4.6,0,0,0-4.12,0L208.24,171a1.21,1.21,0,0,0-.77.76,1.25,1.25,0,0,0,.77,1.6l46,26.45a4.58,4.58,0,0,0,4.11,0l11.5-6.61a1.23,1.23,0,0,0,.76-.75,1.26,1.26,0,0,0-.76-1.62l-12.11-7,35.64-20.5Z" style="fill:#2b239b" />
    <path d="M66.58,234.84v-5.06l-11-6.34v5.07l-5-2.89V215.29l2,1.16a3.15,3.15,0,0,0,.92-1.57,15.32,15.32,0,0,0,.35-2.6L55,185.4l14.44,8.3v32.46l2.25,1.29v10.36Zm-7.69-19.78a9.53,9.53,0,0,1-.45,3,2,2,0,0,1-1,1.19l6.77,3.9v-27.1l-4.36-2.51Zm15.25-9.63c0-3,.68-5,2-5.88s3.28-.56,5.82.89a15.17,15.17,0,0,1,5.8,5.8,16.43,16.43,0,0,1,2,8.2v19.62c0,3.06-.66,5-2,5.88s-3.26.57-5.8-.89a15,15,0,0,1-5.82-5.8,16.37,16.37,0,0,1-2-8.19Zm5.15,23a6.39,6.39,0,0,0,.74,3.29,5,5,0,0,0,1.94,2,2,2,0,0,0,2,.28c.48-.28.73-1.1.73-2.47V211.09a6.65,6.65,0,0,0-.73-3.3,5.21,5.21,0,0,0-2-1.95,2,2,0,0,0-1.94-.28c-.49.28-.74,1.1-.74,2.47Zm20.61,5.43-1.61,2.54V248l-5.16-3V207.29l5.16,3v16.44l6.76-12.56,5.16,3L103,229.88l7.17,25-5.3-3Zm11.16-16.28,16,9.16v5.4l-5.4-3.1V261.4l-5.16-3V226.09L111.11,223Zm17.78,19.28c0-3.05.66-5,2-5.87s3.27-.57,5.82.89a15.13,15.13,0,0,1,5.82,5.79,16.59,16.59,0,0,1,2,8.2v19.63q0,4.56-2,5.87c-1.34.86-3.28.57-5.82-.89a15.2,15.2,0,0,1-5.82-5.79,16.43,16.43,0,0,1-2-8.2Zm5.16,23a6.43,6.43,0,0,0,.72,3.3,5.37,5.37,0,0,0,2,2,2,2,0,0,0,1.95.28c.48-.29.72-1.1.72-2.46V242.53a6.7,6.7,0,0,0-.72-3.31,5.52,5.52,0,0,0-1.95-1.95,2,2,0,0,0-2-.28c-.48.27-.72,1.1-.72,2.46Zm21.43-16.78a15,15,0,0,1,5.8,5.7,16.57,16.57,0,0,1,1.89,8v4.91q0,4.58-1.89,5.86c-1.26.86-3.2.54-5.8-1l-2.44-1.4v14.18l-5.17-3V238.72Zm-2.44,4v12.78l2.44,1.4c.82.47,1.44.58,1.88.32s.66-1,.66-2.42v-5.66a6.4,6.4,0,0,0-.66-3.18,5.18,5.18,0,0,0-1.88-1.84ZM204,271l4.47,2.56-13,30.29L191,301.29Zm89.54,44.53v-5.06l-11,6.33v5.07l-5,2.88V314.4l2-1.16a11.37,11.37,0,0,0,.91-2.63,23.16,23.16,0,0,0,.35-3l1.18-28.23,14.44-8.3v32.46l2.26-1.3v10.35Zm-7.69-10.94a15.76,15.76,0,0,1-.46,3.49,9.11,9.11,0,0,1-1,2.36l6.75-3.88V279.5l-4.36,2.5ZM301,277.44a16.63,16.63,0,0,1,2-8.19,15.32,15.32,0,0,1,5.83-5.8q3.79-2.18,5.81-.89t2,5.88v19.62a16.59,16.59,0,0,1-2,8.2,15.13,15.13,0,0,1-5.81,5.8q-3.8,2.18-5.83.89t-2-5.87Zm5.17,17c0,1.36.25,2.19.73,2.47a2,2,0,0,0,1.95-.29,5.42,5.42,0,0,0,2-1.95,6.7,6.7,0,0,0,.72-3.3V271q0-2-.72-2.46a2,2,0,0,0-2,.28,5.07,5.07,0,0,0-1.95,2,6.49,6.49,0,0,0-.73,3.3Zm20.6-18.15-1.6,4.37v11.63l-5.17,3V257.47l5.17-3v16.44L332,250.59l5.16-3-7.18,21,7.18,16.79-5.3,3ZM338,247.17,353.92,238v5.4l-5.39,3.1v32.35l-5.18,3V249.47l-5.39,3.1ZM355.74,246a16.43,16.43,0,0,1,2-8.2,15.08,15.08,0,0,1,5.8-5.79c2.55-1.46,4.47-1.76,5.83-.89s2,2.82,2,5.87v19.63a16.62,16.62,0,0,1-2,8.2,15.09,15.09,0,0,1-5.83,5.79c-2.53,1.46-4.47,1.75-5.8.89s-2-2.82-2-5.88Zm5.16,17c0,1.36.23,2.18.73,2.46a1.92,1.92,0,0,0,1.94-.28,5.27,5.27,0,0,0,2-1.95,6.77,6.77,0,0,0,.73-3.31V239.59c0-1.36-.25-2.19-.73-2.47a2,2,0,0,0-2,.29,5.07,5.07,0,0,0-1.94,2,6.38,6.38,0,0,0-.73,3.29Zm21.44-41.35q3.89-2.24,5.79-.95c1.27.85,1.9,2.81,1.9,5.86v4.91a16.26,16.26,0,0,1-1.9,8,14.78,14.78,0,0,1-5.79,5.71l-2.44,1.4v14.18l-5.16,3V226Zm-2.44,6.8v12.83l2.44-1.41a4.81,4.81,0,0,0,1.87-1.82,6.19,6.19,0,0,0,.66-3.18v-5.66c0-1.38-.21-2.19-.66-2.43s-1.06-.14-1.87.33Z" style="fill:#fff" />
    <path d="M403,96l-2,1.17-16.29,5.38-2.33-1.33,16.12-5.36-4.65-2.66L396,92ZM165.51,286.62V248.88l5.16,3v14.18l2.44,1.4a15,15,0,0,1,5.79,5.7,16.46,16.46,0,0,1,1.89,8v4.9c0,3.06-.63,5-1.89,5.87s-3.2.53-5.79-1Zm7.6-1c.81.47,1.43.57,1.87.32s.66-1.06.66-2.42v-5.67a6.51,6.51,0,0,0-.66-3.18,5.21,5.21,0,0,0-1.87-1.83l-2.44-1.4v12.78Zm10.63,11.5V259.37l5.16,3v37.75ZM409.12,244l-5.21,3-.9-6.33-6.27,3.59-.9,7.36-4.74,2.72,5.25-40.76,7.55-4.34Zm-11.78-5.21,5-2.85-2.52-17.68Z" style="fill:#f7523c" />
</svg>