<svg xmlns="http://www.w3.org/2000/svg" viewBox="0 0 211.15 212">
    <path class="_black" d="M189,41.2,175.4,54.8a86.79,86.79,0,0,1,0,102.4L189,170.8A106,106,0,0,0,189,41.2ZM156.35,176.29A87,87,0,0,1,19.2,119.5H0a106,106,0,0,0,169.94,70.39ZM19.2,92.5A86.95,86.95,0,0,1,156.35,35.71l13.59-13.6A106,106,0,0,0,0,92.5Zm121-29.73V118a31.74,31.74,0,0,1-4.23,16.57,27.48,27.48,0,0,1-12.22,10.9,43.63,43.63,0,0,1-18.9,3.8q-16.45,0-25.55-8.43t-9.1-23.07v-55h18V115q0,9.87,4,14.47t13.12,4.61c5.92,0,10.2-1.55,12.87-4.64s4-7.94,4-14.55V62.77Z" />
</svg>