<svg xmlns="http://www.w3.org/2000/svg" viewBox="0 0 256 256">
    <path d="M113.89,223.25c-3,3.41-6,6.76-8.88,10.26-6.27,7.67-15.33,8.3-21.62,1.41a12.42,12.42,0,0,1-.57-16.53c5-6.37,10.53-12.37,15.86-18.51q7.21-8.32,14.52-16.59a5.7,5.7,0,0,0,1.43-4c0-9.81-.07-19.63,0-29.44,0-2.61-.83-2.85-2.91-1.69-7.12,3.94-14.24,7.85-21.42,11.66-1.53.81-1.81,2.19-2.27,3.51-4.53,13.15-9,26.33-13.56,39.47-2.07,6-6.65,9.38-12.39,9.46a13.29,13.29,0,0,1-13-17.88c1.52-4.61,3.08-9.21,5-14.8L39.62,187.4c-4,2.17-8,4.48-12,6.51a13.36,13.36,0,0,1-17.66-5.28,13.09,13.09,0,0,1,4.55-17.85c7.07-4.23,14.43-8,21.66-11.92,1.35-.74,2.67-1.53,4.92-2.82-5-1-9.19-1.9-13.34-2.69-8-1.52-12.54-6.06-12.76-12.76-.31-9.59,7-15.75,16.73-13.83,14.49,2.85,29,5.87,43.42,8.86,1.11.23,2.25.68,3.27.14,6.76-3.55,13.48-7.18,20.83-11.12-4.78-2.66-13.71-7.51-14-7.72-9.8-5.19-16.27-5.73-25.43-3.48-11.21,2.74-22.65,4.55-34,6.61a13.09,13.09,0,0,1-14.64-9.37c-1.86-6.84,1.65-14.15,8.3-16.14,5.37-1.61,11-2.5,17.21-3.87-4.78-2.64-9-5-13.24-7.32-2.73-1.5-5.5-2.94-8.22-4.46A13.39,13.39,0,0,1,9.7,61a13.06,13.06,0,0,1,17.7-5.79c7.74,3.94,15.31,8.19,23.6,12.65C49.14,62.23,47.39,57.16,45.8,52a13.32,13.32,0,0,1,25.46-7.85q6.69,19.59,13.12,39.27a7.66,7.66,0,0,0,3.81,4.74Q100.1,94.6,112,101.12c2.11,1.17,2.7.54,2.67-1.7q-.12-9,0-18.07a6.8,6.8,0,0,0-2-4.74c-9.81-11.25-19.66-22.45-29.28-33.85-5-6-4.36-13.92,1.13-18.58,5.75-4.9,13.56-4.51,18.91,1.15,3.65,3.86,7,8,11.25,12.75V30c0-5.46,0-10.93,0-16.39A13.07,13.07,0,0,1,126.45.84a13.21,13.21,0,0,1,14.41,10.63c1,4.87.36,9.78.5,14.67.1,3.41,0,6.82,0,11.15,3-3.38,5.45-6,7.72-8.82,4.05-5,8.85-8.28,15.6-6.63A13.09,13.09,0,0,1,171.87,43c-5.93,7.23-12.28,14.11-18.46,21.13-3.6,4.1-7.21,8.19-10.88,12.23a4.54,4.54,0,0,0-1.16,3.35c0,6.35.08,12.71,0,19.06,0,2.55.85,2.52,2.71,1.5q13.63-7.44,27.34-14.78a6.15,6.15,0,0,0,2.85-3.87q6.94-20.39,14-40.74c1.73-5,5-8.23,10.35-9.35,9.48-2,18.1,7.2,15.31,16.53-1.64,5.53-3.6,11-5.69,17.27,4-2.13,7.29-4,10.69-5.68,3.84-1.9,7.26-4.78,12-4.73,6.6.07,11.52,3.66,13.29,10,1.63,5.85-.94,11.78-6.6,15-4.45,2.52-9,4.94-14.39,7.93,5.08,1,9.21,1.88,13.35,2.7,6.62,1.3,11.19,6.33,11.39,12.58A13.26,13.26,0,0,1,237.66,117c-2.82.74-5.54.09-8.25-.46q-20.25-4.08-40.48-8.3a6.08,6.08,0,0,0-4.47.57c-8.81,4.79-17.61,9.59-26.47,14.29-2.29,1.21-1.85,2,0,3q11.76,6.36,23.49,12.76a4.77,4.77,0,0,0,3.54.17q22.38-4.47,44.78-8.86c7.86-1.53,14.92,3,16.5,10.46,1.53,7.23-3,13.9-10.94,15.72-4.85,1.12-9.75,2-15.57,3.2,4,2.25,7.3,4.06,10.55,5.85,2.54,1.4,5.17,2.64,7.62,4.18,6.63,4.14,8.5,11.63,4.69,18.28a13.28,13.28,0,0,1-17.76,4.94c-6.05-3.08-12-6.43-18.66-10.06,1.81,5.35,3.47,10,4.95,14.67,1.76,5.57,0,11.72-4.11,14.85-7.83,6-18,2.89-21.36-6.59-2.84-8.09-5.44-16.26-8.15-24.39-1.69-5.07-3.4-10.13-5.07-15.2a4.36,4.36,0,0,0-2.07-2.85c-9.51-5.09-19-10.25-28.54-15.43-.85.85-.52,1.78-.53,2.58,0,9.82,0,19.63,0,29.44a7,7,0,0,0,1.9,5.13c9.29,10.37,18.51,20.8,27.77,31.2,5.45,6.13,5.18,14.8-.65,19.68-6.16,5.16-14.52,4.17-19.85-2.25a68.37,68.37,0,0,0-9.14-9.38c0,5.41,0,10.82,0,16.22-.05,6.53-2.82,11.35-9,13.94-7.78,3.27-17.47-2.82-17.71-11.27-.19-6.46,0-12.92,0-19.38Z" style="fill:#87ccfe" />
<style>._black { fill: #333; }</style></svg>