<svg xmlns="http://www.w3.org/2000/svg" viewBox="0 0 503 503">
    <path class="_black" d="M502.86,251.44c0,138.94-112.59,251.63-251.56,251.45C110.48,502.7-1.69,387.75.17,248.07,2,110,115.27-1.55,254.68.13,390.49,1.76,502.51,111.91,502.86,251.44ZM220.61,211.28l4.14,1.73c13.15,5.44,20.39,15.22,21.14,29.45.91,17.41-2.51,33.46-15.94,46.07a49.79,49.79,0,0,1,15,21.75c5.75,16.14,2.31,27.11-11.42,36.66a3.59,3.59,0,0,0,.23.94c8.1,14.75,10.83,30,4.12,46.06a3.57,3.57,0,0,0-.13,2.73c5.1,8.88,19.47,13.61,27.2,4.58,1.64-1.93,2.23-3.58.86-6.19A37.53,37.53,0,0,1,262,369.35c1.66-7.72,4.4-15.22,6.73-23C256.94,338.89,253,329,256.78,314.4a50,50,0,0,1,16.12-25.82c-12.65-14.25-17.34-28.35-15.81-46.79,1.12-13.6,7.93-23,20.37-28.47,1.57-.69,3.17-1.31,5.17-2.13C281,209.78,280,208.94,279,208c-14.54-13.44-20.39-39.43-12.84-57.25,2.84-6.69,6.93-12.58,14.5-13.89,2.87-.5,6.22,1.75,9.35,2.75-1.63,2.08-2.86,4.74-4.95,6.12-4.94,3.26-9,7-10.09,13-2.71,14.66-.07,28.18,9.17,40.11,4.12,5.31,10.07,8.63,16.32,8.65,15.31.05,30.64-.94,45.93-1.95,3.63-.24,7.13-2.27,10.72-3.36,1.73-.52,3.54-.78,5.31-1.16.41,2,1.71,4.36,1,5.83a12.1,12.1,0,0,1-5.32,5.54A33.26,33.26,0,0,1,346.77,216c-14.59,1.24-29.29,1.43-43.83,3.1-7.95.92-15.84,3.51-23.39,6.33A15.9,15.9,0,0,0,269.38,237c-2.94,14.1-1.88,32.47,15,41.33a72.81,72.81,0,0,1,8.43,5.37c4.68,3.38,4.41,6.32-.7,8.79-2.7,1.31-5.53,2.35-8.17,3.76-10.38,5.58-17.14,19.63-15,30.94,1.34,7,8.32,9.4,14.31,5.69,6.44-4,13.22-7.85,20.38-10.12,8.61-2.72,16.92-.63,23.09,6.65,1,1.2,1.84,3.55,1.33,4.78s-2.72,2.38-4.31,2.58a51.08,51.08,0,0,1-10,.18c-18.06-1.24-29.66,7.69-37,23.33-5.59,11.84-5.63,23.39,3,33.74,9.21,11,21.08,16.64,35.49,13.42,18.78-4.2,30.21-18.18,41.14-32.83-10.63.26-21,1-31.39,2.05a61.51,61.51,0,0,0-12.17,2.72c-7.06,2.25-7.47,4.44-2.21,9.45,2.48,2.35,2.08,4.45-1.05,5.51-5.37,1.83-13.68-.55-16.33-4.69-2.47-3.83-1.84-9.19,3.33-13.89a53.79,53.79,0,0,1,15-9.32c4.17-1.76,9.1-2,13.73-2.29,11.3-.83,22.67-.92,33.92-2.13a90.44,90.44,0,0,0,21.8-4.84c7.91-3,10.1-10.58,6.65-18.76-.77.27-1.55.52-2.32.82-.93.36-1.83.8-2.77,1.13-13.11,4.59-25.86,4.66-37.82-3.33-4.7-3.15-8.52-7.22-8.79-13.23-.1-2.26,1.15-4.57,1.79-6.86,2,.84,4.13,1.61,6.11,2.58a8.38,8.38,0,0,1,2.3,1.91c11.7,12.44,24.21,11,36.92,4.68,9.48-4.74,15.76-12,15-23.25-.8-11.77-7.72-19.64-17-25.7-2.41,2.3-4.12,4.47-6.31,5.88-3,1.91-6.37,6.05-9.91,1.7s.33-7.05,3.55-9.66a20.57,20.57,0,0,0,4.54-5.25A15.33,15.33,0,0,0,371,251.37a6.81,6.81,0,0,0-4.17-2.12c-10.16-.17-20.36-.63-30.46.18a35.77,35.77,0,0,0-15.25,5.2c-5.42,3.32-7.59,9.13-6.44,15.69s5.44,10.62,11.56,12.53c3,.92,6.25.75,9.34,1.32a22.18,22.18,0,0,1,4.22,1.67c-.61,1.44-.87,3.23-1.89,4.27-5,5.1-11.19,7.56-18.2,5.65-11.06-3-17-11.26-20-21.75-2.84-9.88-.9-18.87,6.68-26.17a40.52,40.52,0,0,1,24.95-11.56c9.43-.82,19-.82,28.44-.85,10.56,0,20.18-2.49,28-9.88,7.33-6.91,8.69-15.65,4.12-24.61-6.07-11.9-17.41-17.64-31.77-15.55-6.08.89-12,3-18,4-10.81,1.71-21.72,4.26-32.55,4.1-16.41-.25-25.63-11.74-24.7-28.2.59-10.44,6.61-17.22,15.4-21.75,12.91-6.67,26.74-7.81,40.9-5.82,3.6.51,7.38,1.23,10.52,2.91,1.82,1,2.53,4,3.73,6.16-1.83,1-3.57,2.59-5.52,2.91-2.57.42-5.32-.43-8-.24-9.77.7-19.6,1.09-29.25,2.59-6.7,1-11.65,5.6-14.59,11.85-2.39,5.06-1.63,10.41,3,13.39A21.91,21.91,0,0,0,313,180.85c6.93-.3,13.77-2.24,20.67-3.36,12-1.93,23.93-3.74,35.88-5.69a3.75,3.75,0,0,0,2.59-1.62c3.68-9,5.59-18.19-1.93-26.22-11.81-12.6-26-21.08-43.72-21-6.42,0-12.86,2.81-19.24,4.54-4.9,1.32-9.7,3.45-15.48.36,9.17-15.25,24.08-17.61,39.67-18.79-9-13.75-21.1-17.59-37-12.17-13.92,4.76-20.4,16.31-13.9,28.79.62,1.2-.37,3.23-.61,4.88-1.51-.25-3.3-.06-4.49-.81-8-5.09-10.7-13.93-7-22.69.87-2.09,2-4.08,3.07-6.32-8.93-4.56-18-6.24-27.45-4.62a23,23,0,0,0-7.7,3.32c-2.81,1.71-3.71,3.87-2,7.48,3.84,8.25,1.92,15.83-5.11,21.45-1.64,1.31-4.27,1.38-6.44,2,.08-2.1-.4-4.42.32-6.27,3.76-9.7,1.23-18.33-7.6-23.86a35.9,35.9,0,0,0-25.43-5.12c-8.32,1.38-13.92,6.73-18.74,13.89,24.63,2.83,36.36,8.71,39.2,20.25-2.8,0-5.45.44-7.88-.09a74.8,74.8,0,0,1-11.9-3.68,39.06,39.06,0,0,0-25-1.55,67.71,67.71,0,0,0-29.83,16.59,35.25,35.25,0,0,0-7,10.16c-3.27,6.83-.69,13.68,2.39,19.62.92,1.77,6.52,1.12,10,1.56,2.31.3,4.66.4,6.93.89,10.59,2.25,21.13,4.8,31.75,6.85a51.27,51.27,0,0,0,14.36,1.17c10.82-1,15.52-11.84,8.56-20.13-3.15-3.74-7.89-6.5-12.42-8.62-3.49-1.64-7.76-2.05-11.72-2.18-8.64-.3-17.31.08-25.95-.19-1.75-.06-4.72-1.64-4.87-2.81-.24-1.84,1.07-4.23,2.4-5.83.93-1.11,2.95-1.43,4.54-1.86a65.13,65.13,0,0,1,36,0,59.87,59.87,0,0,1,17.86,8.47c9.28,6.7,11.11,16.5,8.45,27.31-2.6,10.59-9.42,16.75-20.09,18.16a54.61,54.61,0,0,1-15.89.11c-10.66-1.78-21.17-4.46-31.74-6.77-9.31-2-18.64-2.83-27.17,2.41s-13.94,12.68-13.66,22.93c.26,9.82,6.67,16,15.11,19.34,6,2.38,12.79,3.42,19.32,4.08s13-.12,19.48.08c9.95.3,19.53,2.16,28.06,7.75,18.73,12.27,18.11,38.61-1.2,50.21-7.89,4.73-16.81,3.93-23.48-2.39-1.3-1.23-1.85-3.25-2.75-4.9a38.87,38.87,0,0,1,5.11-1.81c2.1-.44,4.33-.31,6.42-.77,7.67-1.7,12.79-6.82,13.66-13.46,1-7.15-2.23-14-9.27-17.28a40.74,40.74,0,0,0-14.38-3.36c-8.47-.49-17,.44-25.47-.15-5.4-.37-8.21,2-10,6.25A15.58,15.58,0,0,0,132,272.67a32,32,0,0,0,4.86,4.27c2.73,2.08,3.2,4.7,1.64,7.49-1.76,3.14-4.53,2.49-6.89.86-3.37-2.34-6.5-5-10-7.77-6.91,4.16-12.93,9.89-15,18.06a33.53,33.53,0,0,0-.19,16.53c3.78,13.91,32.43,26.77,47,12.43a54.19,54.19,0,0,1,6.86-5.81c1.38-1,4-2.15,4.71-1.57,1.27,1,2,3.3,2.11,5.11.34,5.86-2.83,10.16-7.2,13.56-9.77,7.6-20.89,9.1-32.68,6.52-4.13-.91-8.12-2.48-12.16-3.74-3.08,9.55-.23,16,8.57,19.59a26.59,26.59,0,0,0,7.17,2.07c11.76,1.18,23.55,2,35.31,3.17,8.45.81,17,1.34,25.26,3a25.87,25.87,0,0,1,18.43,14.14c2.85,5.56.88,11-5,12.91-3.35,1.09-7.16,1-10.76.94a4.37,4.37,0,0,1-3.1-2.51c-.29-.73.83-2.35,1.71-3.16,5-4.59,4.73-6.79-1.79-9.05-14.34-5-29.33-4.39-45.18-5.34,9.78,12.82,19.7,23.93,33.67,30.48s29.3,3.72,40.67-7.13c10.16-9.69,12.63-21.7,7.23-35.2-6.49-16.24-18.52-25.36-33.64-25.48-4.5,0-9,.26-13.49-.14-1.87-.17-4.64-1.37-5.15-2.78s.85-4,2.13-5.46c4.49-5.05,10.39-7,17.08-6.68,9.55.48,17.79,4.51,24.92,10.46,3.59,3,6.66,2.8,10.4,1.29s4.42-4.7,4.8-8.1c1.31-11.62-5.71-24.54-16.23-29.82-2.53-1.27-5.19-2.28-7.71-3.56-4.23-2.15-4.56-5-.81-8a41.94,41.94,0,0,1,7.13-4.61c14.55-7.23,18.74-19.74,18.27-34.87-.3-9.64-4.46-17-13.38-20.41A85.66,85.66,0,0,0,199.86,219c-12.24-1.28-24.64-1-36.9-2.13-6.2-.58-12.36-2.51-18.32-4.49-3.61-1.2-6.15-4.19-5.58-8.5.42-3.25,3-4.75,5.31-2.69,5.44,4.86,12,4.57,18.36,4.9,11.32.58,22.69.32,34,1.26,12.44,1,20.7-4.39,26.4-14.81,4.6-8.42,6.22-17.53,5.87-27-.31-8.32-3.13-15.28-10.87-19.52a22.77,22.77,0,0,1-3.62-2.66c-2.73-2.27-2.14-4.24.74-5.78,4.36-2.33,8.44-1.17,12.24,1.34,6.72,4.42,10.09,11.16,11.41,18.7C242.54,178.48,236.93,196.44,220.61,211.28ZM257.25,45.14c0-7.87-.18-15,.06-22.14.14-4-1.16-5.87-5.31-5.91s-6,1.57-5.81,6c.27,7.25.07,14.52.07,22.09-7,0-13.31.15-19.61,0-3.84-.13-6,.9-6.09,5.17-.06,4.45,2.1,5.73,6.23,5.58,6.41-.22,12.83-.06,19.47-.06,0,8.28.11,15.77,0,23.25-.07,3.29,1.52,4.43,4.45,4.69,5.13.45,6.56-.78,6.58-6,0-7.24,0-14.49,0-22,7.46,0,14.11-.11,20.76,0,4.18.1,5.08-2.31,5.05-5.73s-1.54-5.1-5.22-5C271.19,45.28,264.54,45.14,257.25,45.14Zm-9.92,419.63c-.59,5.85-.87,10.67-1.61,15.42-.71,4.59,2,4.88,5.31,4.88s6-.39,5.29-4.94c-.73-4.81-1-9.69-1.56-15.33,4.79,3.46,8.92,6.23,12.79,9.31,3.64,2.88,5,.17,6.44-2.31s3.35-5-1-6.75c-4.69-1.91-9.26-4.08-14.76-6.52,5.6-2.47,10.27-4.57,15-6.58,3.93-1.67,2.37-4.12.9-6.41s-2.43-5.66-6.3-2.72c-4.05,3.08-8.25,6-13.1,9.45.58-5.75.95-10.68,1.62-15.56.66-4.71-2.3-4.7-5.51-4.7s-5.73.2-5.11,4.57c.68,4.85,1,9.75,1.59,15.7-4.76-3.45-8.76-6.09-12.45-9.11s-5.19-.63-6.87,2.14-2.71,5.33,1.61,7c4.61,1.75,9,3.94,14.26,6.25-5.53,2.46-10.21,4.62-14.95,6.62-4,1.67-2.39,4.11-1,6.41s2.52,5.6,6.33,2.69S242.3,468.42,247.33,464.77Zm-126-217.7a74.78,74.78,0,0,0-8.82-3.92c-1.64-.53-4.35-.44-5.48.58-8.54,7.64-11.11,17.46-9.15,28.49.39,2.19,2.16,4.13,3,5.57,5.57-3.5,10.48-6.51,15.27-9.68a5,5,0,0,0,1.93-2.88C119.19,259.33,120.19,253.38,121.31,247.07Zm260.33.06c1.14,6.27,2.19,12.2,3.31,18.12.17.89.44,2.08,1.08,2.49,5.22,3.36,10.54,6.57,16.14,10,.07-.08.51-.58.9-1.12,6.17-8.62.87-29.67-8.68-34.21a3.69,3.69,0,0,0-2.71-.1C387.92,244,384.25,245.87,381.64,247.13ZM49,253.3c-6.5,0-13,.06-19.49,0-2.76,0-3.92,1.11-3.9,3.86s1,3.92,3.86,3.91c12.66-.07,25.32-.09,38,0,3,0,4.24-1.24,4.19-4.14s-1.51-3.69-4.15-3.65C61.32,253.36,55.15,253.29,49,253.3Zm406.78,12c4.49,0,9-.08,13.46,0,3.5.08,4.14-2,4.1-4.84-.05-2.63-.14-5.19-3.76-5.2-9.14,0-18.28,0-27.43,0-3.57,0-3.89,2.44-3.89,5.1s.5,5,4.05,4.94C446.79,265.19,451.28,265.25,455.77,265.26ZM42.68,238.47c-.16,4,1.29,6.45,5.6,6.57,4,.1,6.22-1.6,6.35-5.76.15-4.62-1.57-6.56-5.89-6.67C44.6,232.5,42.6,234.45,42.68,238.47Zm0,37c-.17,4.05,1.11,6.6,5.5,6.74,4,.12,6.29-1.45,6.45-5.66.19-4.67-1.48-6.58-5.8-6.75C44.69,269.63,42.61,271.48,42.68,275.46Z" />
<style>._black { fill: #333; }</style></svg>