<svg xmlns="http://www.w3.org/2000/svg" viewBox="0 0 210 210">
    <defs>
        <linearGradient id="red-gradient" x1="13.15" y1="157.83" x2="104.37" y2="105.17"
            gradientUnits="userSpaceOnUse">
            <stop offset="0" stop-color="#eb4305" />
            <stop offset="1" stop-color="#fb8a73" />
        </linearGradient>
        <linearGradient id="blue-gradient" x1="114.52" y1="94.72" x2="188.05" y2="168.25"
            gradientUnits="userSpaceOnUse">
            <stop offset="0" stop-color="#5897cd" />
            <stop offset="1" stop-color="#1d5e9e" />
        </linearGradient>
        <linearGradient id="green-gradient" x1="104.51" y1="1.3" x2="104.51" y2="96.18"
            gradientUnits="userSpaceOnUse">
            <stop offset="0" stop-color="#4eaa3e" />
            <stop offset="1" stop-color="#a5ce60" />
        </linearGradient>
    </defs>
    <rect width="210" height="210" style="fill:#fff" />
    <path d="M71.68,116.94a17,17,0,0,1-1.76-.7c-3.64-2-7.16-4.18-10.92-5.86-3.48-1.55-4.61-4.45-5.82-8,.89.36,1.44.53,1.94.79,3.72,2,7.48,3.94,11.13,6a28.41,28.41,0,0,1,4.49,3.41A3.7,3.7,0,0,1,71.68,116.94Zm9.81,48.23c-1.38,3.82-.27,8-2.45,11.21H76.17v18.39l8.45,4.6,8.75,4.76c2.79,1.5,5.52,3.11,8.69,4.57V176.31ZM102,171.22V138.66L80.39,127l-4.12.58v28.5l1.52-2.69c2-.6,3.07.69,4.23,1.9v5.09Zm-42.56-55c2.38,5.18,4.76,10.36,7.23,15.77L53.14,144.74l18.62,10.07v-32.5L59.9,115.86Zm20.2,5.25L102,133.59V101.06c-8.51-4.52-16.86-9.32-25.81-13.85V105.7l2.43,2.24C79,112.43,79.32,116.89,79.68,121.51ZM35.53,150.05,42,143.74l-26.42-14.3V162c4.19,2.26,8.43,4.55,12.68,6.82s8.36,4.94,13.11,6.85V157.12l-5.8-3.56Zm10.32,28.27c8.53,4.72,17,9.38,26,14.09V173.78c-4.93-3.52-24.06-13.53-26-13.57ZM41.33,105.8l-25.8-14v32.53l25.8,14ZM71.79,84.68l-25.9-14v19l25.9,14ZM38.47,95.84c-.9-2-1.9-3.87-2.71-5.87s-.45-3.24,1.53-4.69l4,1.69V68.18l-25.75-14V86.55C21.23,90.4,37.9,99.05,39.9,99.08,39.39,97.93,39,96.88,38.47,95.84Zm7.74,16.56c-.76,3.14-.64,25.39.12,27.52l8.93-8.25Z" style="fill:url(#red-gradient)" />
    <path d="M138.32,154.68c-.06-1-.09-1.68-.14-2.47,5.08-1.32,8.17-4.78,10.64-9,1.74-3,1.82-2.93,4.43-3.95,3.42,2.32,7,2.15,10.52-.49,1,1.91-.32,2.33-1.3,2.86q-7.91,4.3-15.85,8.56Zm-9.48,15.77,4.77-2.72v-5.24l-3.22,1.82C129.89,166.27,129.45,168.05,128.84,170.45Zm4.6-18c-.5,1.91-.92,3.48-1.36,5.18C134,156.92,134.29,155.9,133.44,152.49Zm4.76,12.85,25.78-14V146L138.2,160ZM161.1,110l-19.28,10.45c-2,7.65-4.9,15-3.35,23,1.93.05,2.85-1.08,3.67-2.22a45.09,45.09,0,0,1,3-4.46,33.51,33.51,0,0,1,5.54-5,6.82,6.82,0,0,1,7.18-.26c2.21,1.1,3.07.89,4.6-1a6.56,6.56,0,0,0,1.8-4.9,23.69,23.69,0,0,1,0-4C164.52,117.52,162.54,114.07,161.1,110Zm7.58,38.86,5.35-3.06-1.45-4.41-3.9,2.15Zm.51-11,1.68-1-1.45-4C168.35,134.62,168.19,137.42,169.19,137.92Zm-24.77-32.07a29,29,0,0,1-.18,4.83,35.17,35.17,0,0,1-.78,3.63l16.1-8.73c-3.73-8.12-.8-14.52,4.43-20V70.82l-25.75,14V99.57c.77.31,1.42.62,2.09.84A5.61,5.61,0,0,1,144.42,105.85Zm-10.65,13.68V87.19l-25.69,14c-.58,7-.31,30.24.38,32.12Zm46.35,19.83c2.85,5.77-.63,12.68-6.06,15-1.87.81-3.59,2-5.42,3v18.48L194.31,162V129.64l-14.71,8A12.49,12.49,0,0,0,180.12,139.36Zm-11.59-71c.06,10.74-.08,21.32.08,32.28l25.86-14V54.33Zm9.39,64.84,16.49-8.94V92l-26.23,14.22Zm-44.23-8.38-25.6,13.87v32.33L124,162.47C127.18,150,130.36,137.73,133.69,124.86Zm4.58,67.48,25.86-14V159.76l-25.86,14.05Zm-17-16.81a18.79,18.79,0,0,1,.4-4.26c.1-.74.32-1.46.58-2.61l-14.13,7.67v32.33l25.58-13.86V176.34c-2.1,1.08-3.87,2.09-5.72,2.93C124.73,180.75,121.66,179.08,121.28,175.53Z" style="fill:url(#blue-gradient)" />
    <path d="M73.61,51.34,99.55,65.17c-2.58,2.16-4.93,3.43-8.22,2.72-5.92-1.28-11.73-2.77-16.84-6.14C71.8,60,69.24,58,67.83,54.58Zm13.24,1.39-.13.32,14,7.53.52-.38-2-6.39ZM193,48.32,167.47,34.68l-7.12,3.79L161,41c-1.23,2.1-1.31,2.07-3.58,2.45-3.18.53-6.35,1.15-9.5,1.83a12.8,12.8,0,0,0-2.54,1.21l.75,4.93,21.29,11.36L193,49.11ZM60.6,58.32l-13.25,7.1L73.71,79.49l11.52-6.21C75.34,70.62,66.7,67,60.6,58.32Zm80.82-18.71c8-.19,14.3-3.48,20.92-7.67L136.18,18l-18.59,9.9C127,30.16,135.3,33.32,141.42,39.61ZM84.78,46c5.36.53,10.7,1.11,16.07,1.53a8.09,8.09,0,0,0,3.61-.68c3.05-1.31,6-2.79,9-4.23.86-.41,1.69-.9,3.11-1.65l-11.68-6.24L84.65,45.47Zm47.14-4.39c-3.24-3.52-11.78-7.09-18.2-7.44L129,42.3ZM77.83,43.91c5.84-3.15,11.71-6.24,17.56-9.36.52-.28,1-.67,1.69-1.16-8-.43-22.94,4.51-27.14,10.76a20.91,20.91,0,0,0,2.7.76A8.51,8.51,0,0,0,77.83,43.91Zm-15-3.64c7.61-7.87,17.1-11,27.23-12.84l.11-.61L73.67,18l-12.92,7c-4.27,2.29-8.69,4.33-13,7.11a14.16,14.16,0,0,0,1.4,1.06C53.66,35.47,58.18,37.83,62.86,40.27ZM96.22,24.83a12.3,12.3,0,0,0,4.21,1.59,68.51,68.51,0,0,0,8.6.16,6.66,6.66,0,0,0,2.81-.79c5.7-3,11.37-6.1,17-9.17.58-.32,1.11-.73,2.14-1.39L105,1.3C96.2,6,87.65,10.39,78.93,15.23a17.62,17.62,0,0,0,1.65,1.24C85.79,19.28,91,22.09,96.22,24.83ZM58.81,50.23,43.37,48.65l-1.22-1.73c.83-4.26,1.68-4.79,5.61-4.27,3.55.47,7.13.69,10.7,1l0-.39-16-8.6L16.08,48.73,42.42,62.82,59,53.91ZM121,53.54H107.57c.78,2.27,1.48,4.29,2.29,6.61l11.16-6Zm2.16,18.92,13.1,7,26.25-14.08-17.1-9.2C140.26,64.45,135.41,67.93,123.11,72.46Zm-8.17,1.76c.24,3.29,2.33,5.75,1.86,8.64-2,1.65-3.76,1.94-7.2,1.08-1-2.76-2.17-5.73-3.22-8.52-4.28-.26-8.22-.53-12.16-.73a4.34,4.34,0,0,0-2.1.29c-4.38,2.24-8.72,4.56-13.58,7.11l26.34,14.09,13.08-7c4.26-2.28,8.67-4.32,13-7.26-4.87-2.61-9.29-5-13.74-7.33A8,8,0,0,0,114.94,74.22Zm19.52-22c-7,3.78-14.06,7.53-21.08,11.31-.61.33-1.17.76-1.71,1.11-.07,2.06,1.36,2.44,2.57,2.9a39.6,39.6,0,0,0,16.64-6.17c3.24-2.21,5.85-4.92,6.82-8.85C136.6,51.29,135.58,51.6,134.46,52.2Z" style="fill:url(#green-gradient)" />
    <path d="M35.59,154.75l-.39-.8a4.75,4.75,0,0,1,1.41-6.09l.14-.14,7.57-7,9.25-8.55c.23-.21.46-.41.69-.59l-.13-.27c-6.53-14.13-12.9-27.9-19.25-41.67A3,3,0,0,1,35,87L35,87l.56-.87.06-.07a3.05,3.05,0,0,1,.75-.59A3.32,3.32,0,0,1,37.74,85l.3,0a3.11,3.11,0,0,1,1.5.37q18.62,10,37.21,20.12a11.58,11.58,0,0,1,1.18.76l.44.31,1.13.75,1.24,19.77-2.32.5a5.46,5.46,0,0,1-1.11.12c-2,0-3.31-1.3-3.65-3.58-.08-.54-.15-1.07-.23-1.61a42.77,42.77,0,0,0-.72-4.25,11.06,11.06,0,0,0-5.27-7.4c-4.33-2.43-8.72-4.82-13-7.14l13.32,28.47-16.91,15.7,2.55,1.39c4.82,2.63,9.8,5.34,14.73,7.93a18.29,18.29,0,0,0,4.58,1.65,5.33,5.33,0,0,0,.94.11c.39,0,.76,0,1.47-1.43.28-.58.55-1.25.86-2l.58-1.43,2-4.85,2.83,4.43c.12.18.25.35.37.51a3.92,3.92,0,0,1,1.08,3c-.5,4.69-1,9.29-1.63,14.16l-.91,7.7Z" style="fill:#333" />
    <path d="M38,86a2.12,2.12,0,0,1,1,.25l37.21,20.12c.39.22.74.46,1.07.69l.47.33.72.48,1.15,18.41-1.48.32a4.2,4.2,0,0,1-.9.1c-1.48,0-2.39-.94-2.66-2.73-.08-.53-.15-1.07-.23-1.6-.2-1.45-.4-3-.74-4.35a12,12,0,0,0-5.75-8c-4.83-2.71-9.72-5.37-14.46-7.93l-1.22-.67L66.55,132,49.16,148.09l3.66,2c4.86,2.65,9.88,5.39,14.86,8a19.05,19.05,0,0,0,4.84,1.75,5.68,5.68,0,0,0,1.14.13c.76,0,1.46-.14,2.36-2,.31-.62.58-1.3.9-2.1.18-.43.36-.89.58-1.41l1.29-3.08,1.8,2.82c.14.21.28.4.43.59a3,3,0,0,1,.87,2.23c-.5,4.64-1,9.26-1.63,14.14l-.74,6.23L36.35,154l-.25-.51a3.81,3.81,0,0,1,1.18-4.93l.15-.13,7.57-7q4.62-4.28,9.25-8.54a16.09,16.09,0,0,1,1.24-1l-.45-1C48.5,116.77,42.14,103,35.79,89.23a2.06,2.06,0,0,1,.07-1.79l.48-.74a2.44,2.44,0,0,1,.52-.4,2.3,2.3,0,0,1,1-.3H38M38,87.75h0M38,84l-.37,0a4.26,4.26,0,0,0-1.8.55,4.42,4.42,0,0,0-1,.78l-.11.13-.1.15-.47.73-.08.12-.06.13A4,4,0,0,0,34,90.07c6.29,13.64,12.59,27.27,19.06,41.25l-.13.13L43.64,140l-7.57,7-.14.12c-2.37,2.17-2.92,4.62-1.63,7.28l.25.51.28.58.57.31,43.17,23.36,2.59,1.41.35-2.93.74-6.23c.58-4.87,1.13-9.48,1.63-14.17a5,5,0,0,0-1.28-3.67c-.13-.17-.24-.3-.33-.44l-1.8-2.82-2-3.22-1.48,3.53-1.29,3.08c-.22.53-.41,1-.58,1.44-.31.76-.57,1.41-.84,2a3.34,3.34,0,0,1-.54.87h0a3.74,3.74,0,0,1-.73-.09,17.37,17.37,0,0,1-4.33-1.56c-4.92-2.58-9.9-5.29-14.71-7.92l-.11-.06-1.22-.66,15.35-14.26,1.07-1-.62-1.32L56.64,106c3.43,1.87,6.89,3.76,10.31,5.68a10.09,10.09,0,0,1,4.78,6.76,40.77,40.77,0,0,1,.71,4.15c.08.55.15,1.09.23,1.63.42,2.77,2.15,4.43,4.64,4.43a6.31,6.31,0,0,0,1.33-.15l1.47-.31,1.69-.36-.11-1.72-1.16-18.42-.06-1-.82-.55-.72-.49-.41-.28c-.36-.25-.79-.55-1.29-.83L40,84.48A4.15,4.15,0,0,0,38,84Z" style="fill:#fff" />
    <path d="M125.6,180.81c-2.93,0-5-2.17-5.28-5.41a15.43,15.43,0,0,1,.49-4.87c3.67-14.2,7.42-28.63,11.06-42.6l4-15.23a10.54,10.54,0,0,0,.53-3.31l-3.52-2.34,4-8.37,2.15.5c4,.93,6.29,2.41,6.46,7.25a21.64,21.64,0,0,1-.59,5.81c-1.73,6.88-3.54,13.86-5.29,20.61l-2.32,9c.5.25,1,.49,1.51.69a1,1,0,0,0,.36.08c.15,0,.59-.09,1.35-1a24.22,24.22,0,0,0,2.28-3.21l.53-.84a18.12,18.12,0,0,1,7-6.71,8.62,8.62,0,0,1,8.13-.12,4.1,4.1,0,0,0,1.6.49c.18,0,.71,0,1.74-1.39s1.85-2.7,2.79-4.18l.75-1.18-.87-2.44-3.1-8.67-.89-2.52c-.79-2.24-1.61-4.56-2.48-6.77-2-5-1.37-9.87,1.86-14.8.49-.74,1-1.42,1.56-2.2l.08-.11.8-1.1L164.34,83l5.55,6.77-1.1,1.68c-.14.23-.28.44-.4.65a12.54,12.54,0,0,1-1.24,1.8c-1.22,1.44-1.38,2.87-.56,5.08,1.65,4.44,3.28,9,4.86,13.34l9.72,27c2.32,6.44.19,12.22-5.71,15.48-5.54,3.06-11.33,6.19-16.43,8.95l-6.32,3.42-22,11.93-.24.13a20.51,20.51,0,0,1-2.2,1.09A7.07,7.07,0,0,1,125.6,180.81ZM130.51,168c11.15-5.52,35.94-18.86,42-22.63A89.47,89.47,0,0,0,169,134.6l-.27.35a28,28,0,0,1-4.26,4.51,9.81,9.81,0,0,1-6.18,2.38,9.1,9.1,0,0,1-4.69-1.36,1.41,1.41,0,0,0-.67-.23c-.11,0-.46,0-1.07.64a16,16,0,0,0-1.55,2c-.4.57-.84,1.22-1.35,1.85l-.84,1.06L148,146a32.86,32.86,0,0,1-3.91,4.41,9.78,9.78,0,0,1-6.48,2.69h0a8.81,8.81,0,0,1-3.13-.59Z" style="fill:#333" />
    <path d="M164.4,84.61l4.25,5.19L168,90.88c-.17.25-.32.49-.46.72a12,12,0,0,1-1.11,1.63c-1.46,1.71-1.68,3.53-.73,6.07,1.65,4.45,3.28,9,4.86,13.37l1.67,4.63q3.51,9.72,7,19.45l1,2.86c2.14,5.93.18,11.27-5.25,14.27s-11,6-16.43,8.94l-6.31,3.42-22,11.93-.25.13a21.64,21.64,0,0,1-2.1,1,6.05,6.05,0,0,1-2.25.47c-2.41,0-4.09-1.76-4.28-4.48a14.56,14.56,0,0,1,.46-4.55c3.67-14.2,7.42-28.63,11.05-42.6l4-15.23a9.59,9.59,0,0,0,.49-4.14l-3.17-2.11,3.31-6.86,1.36.32c3.66.85,5.54,2.06,5.69,6.3a20.41,20.41,0,0,1-.56,5.54c-1.73,6.88-3.54,13.86-5.29,20.62l-.13.5q-1.06,4.06-2.11,8.11c-.09.36-.18.73-.26,1.11a24.81,24.81,0,0,0,2.29,1.09,2.07,2.07,0,0,0,.73.15,3.07,3.07,0,0,0,2.1-1.28,24.15,24.15,0,0,0,2.38-3.36l.53-.83a17.27,17.27,0,0,1,6.58-6.36,8,8,0,0,1,3.72-1,8,8,0,0,1,3.51.86,5.07,5.07,0,0,0,2,.59c.37,0,1.22,0,2.54-1.79,1-1.34,1.9-2.77,2.86-4.28l.15-.24.83-1.31-1-2.9-3.09-8.67-.9-2.52c-.81-2.29-1.62-4.59-2.49-6.81-1.85-4.71-1.27-9.25,1.77-13.88.47-.72,1-1.39,1.53-2.17l.07-.09.82-1.12,1.33-1.85m-6.1,56.23a8.13,8.13,0,0,1-4.18-1.22,2.35,2.35,0,0,0-1.18-.37,2.52,2.52,0,0,0-1.79.95,18.29,18.29,0,0,0-1.66,2.16c-.38.56-.81,1.19-1.3,1.79-.29.36-.58.73-.86,1.1l-.08.09a31.74,31.74,0,0,1-3.79,4.28,8.74,8.74,0,0,1-5.81,2.44,8.1,8.1,0,0,1-3.8-1L129,169.83c10-4.8,39.42-20.6,44.67-24a88.62,88.62,0,0,0-4.43-13.29c-.41.62-.82,1.22-1.28,1.79a27.47,27.47,0,0,1-4.11,4.36,8.83,8.83,0,0,1-5.55,2.16m6-59.52-1.52,2.12-1.33,1.85c-.28.4-.55.76-.8,1.1l-.07.1c-.59.81-1.1,1.49-1.6,2.26-3.37,5.14-4,10.42-1.95,15.7.86,2.2,1.68,4.51,2.47,6.74.29.85.59,1.69.89,2.53q1.56,4.34,3.1,8.67l.7,2-.21.34-.1.15-.15.23c-1,1.51-1.84,2.9-2.78,4.17a3.56,3.56,0,0,1-.93,1,3.29,3.29,0,0,1-1.16-.39,9.63,9.63,0,0,0-9,.13,19.21,19.21,0,0,0-7.35,7.05l-.53.84a23.44,23.44,0,0,1-2.18,3.09,2.94,2.94,0,0,1-.64.59c-.22-.08-.44-.18-.67-.29l2-7.64.13-.5c1.76-6.77,3.57-13.75,5.3-20.63a22.54,22.54,0,0,0,.62-6.1c-.19-5.43-3-7.2-7.23-8.18l-1.37-.32-1.56-.36L135.63,99l-3.31,6.86-.76,1.57,1.45,1,2.36,1.57a13.37,13.37,0,0,1-.51,2.5l-4,15.24c-3.24,12.44-7.26,27.91-11.06,42.6a16.84,16.84,0,0,0-.52,5.19c.27,3.79,2.79,6.34,6.28,6.34a8,8,0,0,0,3-.62,21.52,21.52,0,0,0,2.3-1.13l.25-.13,22-11.93,6.31-3.42c5.11-2.76,10.9-5.89,16.44-9,6.27-3.47,8.64-9.87,6.17-16.7l-1-2.86-.86-2.39-6.15-17.06L172.4,112c-1.59-4.43-3.22-9-4.87-13.4-.79-2.11-.46-3.09.38-4.08a13.34,13.34,0,0,0,1.3-1.88l0,0c.12-.2.25-.41.39-.62l.7-1.08.8-1.22-.93-1.13-4.26-5.2-1.65-2Zm-6,61.52a10.75,10.75,0,0,0,6.8-2.59,25.45,25.45,0,0,0,3.6-3.67c1.11,3,2.16,6.23,2.7,8.29-6.52,3.92-28,15.5-39.37,21.23l3.2-12.35a9.51,9.51,0,0,0,2.42.31,10.77,10.77,0,0,0,7.14-2.94,33.75,33.75,0,0,0,4-4.53l.08-.12.85-1.06c.53-.67,1-1.33,1.39-1.91a16.51,16.51,0,0,1,1.45-1.92,2.24,2.24,0,0,1,.37-.31l.14.07a10.12,10.12,0,0,0,5.2,1.5Z" style="fill:#fff" />
    <path d="M106,75.58h-.59q-1.64.06-3.24.06a66.81,66.81,0,0,1-27.7-5.51c-5.72-2.53-9.79-5.61-12.81-9.68a15.68,15.68,0,0,1-3.37-9.81L41.59,49.12l.92-7.33,17.74,1.46a25.93,25.93,0,0,1,6.59-7.32A46.93,46.93,0,0,1,84.75,28a80,80,0,0,1,17.84-2.06,73.77,73.77,0,0,1,20.85,3c7.71,2.27,13.69,5.67,18.27,10.38l17-3.18,4.82,6.65-17.73,3.48c2,6.13.26,11.72-5.14,17.06a34,34,0,0,1-13.2,8c-2.91,1-5.9,1.71-8.78,2.42l-3.43.86,3.11,9.54-8.95,1.27ZM67.53,51.47a9.39,9.39,0,0,0,2.19,5.35,22.57,22.57,0,0,0,9,6.66c6.86,3.14,14.58,4.66,23.6,4.66h1.17L98.73,54.25Zm45.26,15.9A44.81,44.81,0,0,0,129,61.9c3.71-2.19,6-4.36,7.25-7a8.24,8.24,0,0,0,.48-6.92l-9.22,1.78-1.06,4.57-18.3-.49ZM70.22,44.21c10.43.94,21.21,1.9,31.93,2.79h.1a3.45,3.45,0,0,0,1.34-.37c2.66-1.21,16.77-7.12,17.36-7.37l1.7-.71-.82,4.55,9.61-1.83a23.22,23.22,0,0,0-5-2.93,60.1,60.1,0,0,0-23.85-5A65.46,65.46,0,0,0,81.4,37C76.5,38.71,72.84,41.06,70.22,44.21Z" style="fill:#333" />
    <path d="M102.59,26.93a72.27,72.27,0,0,1,20.57,3c7.74,2.28,13.7,5.72,18.21,10.51l16.89-3.17,3.53,4.87-17.33,3.41c2.37,6.14.9,11.75-4.52,17.1a32.87,32.87,0,0,1-12.81,7.74c-2.87,1-5.84,1.69-8.7,2.4h-.05c-1.19.3-2.38.59-3.57.9l-.85.21L117,83.3l-7,1-3.37-9.71h-1.33c-1.09,0-2.15.06-3.21.06a66,66,0,0,1-27.3-5.42c-5.55-2.46-9.49-5.44-12.41-9.36a14.63,14.63,0,0,1-3.13-10.13L42.71,48.21l.67-5.35L60.77,44.3a25.54,25.54,0,0,1,6.66-7.57A46,46,0,0,1,85,29a79.37,79.37,0,0,1,17.62-2M102.25,48a4.31,4.31,0,0,0,1.75-.46c2.68-1.22,17.34-7.36,17.34-7.36l-.76,4.18,13.1-2.49a23.21,23.21,0,0,0-6.81-4.44,61,61,0,0,0-24.24-5.13,66.31,66.31,0,0,0-21.55,3.77c-5.33,1.83-9.26,4.44-12,8a11.36,11.36,0,0,0-.67,1h.13l1.54.14c10.47.94,21.3,1.91,32,2.8h.19m23.45,5.27-18.92-.51,5.33,15.72a46.63,46.63,0,0,0,17.43-5.73c3.9-2.3,6.26-4.6,7.65-7.46a9.1,9.1,0,0,0,.18-8.48l-12.54,2.41,1.62.83-.75,3.22M102.31,69.14c.83,0,1.69,0,2.56,0l-5.4-15.79L66.54,50.37a10.11,10.11,0,0,0,2.38,7.06,23.64,23.64,0,0,0,9.37,7c7,3.2,14.85,4.75,24,4.75m.28-44.21v0A81.35,81.35,0,0,0,84.53,27a47.8,47.8,0,0,0-18.29,8.12,26.44,26.44,0,0,0-6.51,7.07L43.55,40.87l-1.91-.16-.24,1.9L40.73,48,40.47,50l2.06.19,14.76,1.35a16.8,16.8,0,0,0,3.56,9.5c3.13,4.21,7.32,7.39,13.2,10a68,68,0,0,0,28.11,5.59c1,0,2.07,0,3.12-.06l2.9,8.35.54,1.56,1.63-.23,7-1,2.36-.34-.74-2.26-2.4-7.4,2.33-.58h.06c2.89-.71,5.9-1.45,8.85-2.45A34.73,34.73,0,0,0,141.35,64c5.3-5.24,7.21-11,5.69-17l15.14-3,3.06-.6-1.83-2.53-3.53-4.88-.74-1-1.25.23-15.84,3c-4.65-4.64-10.66-8-18.32-10.26a74.73,74.73,0,0,0-21.14-3ZM72.34,43.4A24.8,24.8,0,0,1,81.73,38a64.25,64.25,0,0,1,20.9-3.66,58.09,58.09,0,0,1,19.46,3.4l-1.52.64c-.6.25-14.72,6.16-17.4,7.39a2.65,2.65,0,0,1-.92.27h0c-10-.84-20.1-1.74-29.89-2.61Zm50.73-1.54.24-1.31.41-2.24c.79.3,1.57.62,2.36,1a21.82,21.82,0,0,1,2.84,1.48l-5.85,1.11Zm5.31,8.73,7.72-1.49a7.38,7.38,0,0,1-.71,5.33c-1.21,2.48-3.32,4.52-6.86,6.61a43.23,43.23,0,0,1-15.07,5.21l-3.86-11.4,16.05.43,1.63,0,.37-1.59.73-3.14Zm-26.3,16.55c-8.77,0-16.29-1.52-23-4.57a21.72,21.72,0,0,1-8.61-6.35,9.46,9.46,0,0,1-1.82-3.65L98,55.18l4.08,12Z" style="fill:#fff" />
<style>._black { fill: #333; }</style></svg>