<svg xmlns="http://www.w3.org/2000/svg" viewBox="0 0 256 256">
    <path class="_black" d="M22,112.56c.91-4,1.58-8,2.77-11.94C37.74,58.21,65.93,32.05,109.5,24c29.58-5.49,56.85,1.77,81.14,19.69.32.24.61.51.84.71-4.51,4.52-9,9-13.49,13.49-26.31-17.7-54.62-22-84.22-9.65S47.25,83.44,41,114.83c-4.17,0-8.41,0-12.65,0-2.12,0-4.23.13-6.35.2Zm0,31.28c.81,3.59,1.55,7.19,2.43,10.75,9.79,39.59,43.53,70.92,83.79,77.81,3.5.59,7,1.06,10.51,1.59H135.2a5.31,5.31,0,0,1,1.14-.34,104.24,104.24,0,0,0,35.89-9.71,100.06,100.06,0,0,0,19.11-11.71l-13.49-13.56c-26.25,17.6-54.48,21.86-84,9.58S47.31,173.08,41,141.78H22ZM198.52,75.58c-1.31,1.24-1.15,2-.24,3.38,17.7,26.89,20.38,55.23,7.69,84.84-2.33,5.44-5.62,10.46-8.43,15.59l13.25,13.27c29.1-36.37,29.64-91.69-.18-129.12C206.59,67.57,202.63,71.66,198.52,75.58Zm-97.32,35c-1.29,10.26-1.17,30.42.18,35.2h51.36a167.67,167.67,0,0,0,0-35.2Zm40.64-39.68a27,27,0,0,0-7.76-9.19c-4.75-3.35-9.62-3.45-14.26.1a26.54,26.54,0,0,0-5.64,5.9c-7,10.1-9.69,21.72-11.87,33.75H151.6C149.74,90.69,147.17,80.37,141.84,70.94ZM102.36,155c1.54,9.4,3.83,18.4,7.84,26.89a35.23,35.23,0,0,0,8.25,11.67c5.31,4.69,11.64,4.83,16.87.05a32.55,32.55,0,0,0,5.62-6.76c6.06-9.71,8.67-20.61,10.65-31.85Zm-10.45-9.25V110.52H60.41a67,67,0,0,0,0,35.27Zm101.62-35.24H162v35.36h31.49A67.75,67.75,0,0,0,193.53,110.55ZM107.17,62.39C90.4,65.62,66.65,87.07,63.7,101.52H93.46C95.79,87.68,99.22,74.33,107.17,62.39Zm39.61.17a64,64,0,0,1,8.87,18.71c1.93,6.62,3.45,13.36,5.21,20.25h29.39C187.14,87,160.46,63,146.78,62.56ZM107.12,193.82a64.39,64.39,0,0,1-8.87-18.71c-1.94-6.6-3.43-13.33-5.15-20.14H63.6C68.74,171.29,94.24,194,107.12,193.82ZM160.85,155c-1.74,6.89-3.23,13.64-5.18,20.25a65.44,65.44,0,0,1-8.91,18.7c15.36-2,40.48-24.56,43.48-38.95Z" />
<style>._black { fill: #333; }</style></svg>