<svg xmlns="http://www.w3.org/2000/svg" viewBox="0 0 256 256">
    <path d="M84.49,44.86c-8-7.75-16.13-15.47-24.15-23.25C53,14.54,45.44,7.76,38.39.43h66.75a10.37,10.37,0,0,1,2,1.42c4.63,5,10,9.18,14.62,14.13a108.73,108.73,0,0,0,8.88,8.29c6,6.32,12.65,11.94,18.69,18.19a5.4,5.4,0,0,0,4.23,1.65c5.71,0,11.42,0,17.14,0,1.12,0,2.35-.28,3.27.72-.41,1.3-1.55,1.09-2.47,1.09-6.36,0-12.72.1-19,0a92.11,92.11,0,0,1,9.92,9.1c.33.34.71.73.36,1.29-1,.82-2.18.72-3.33.72q-30,0-60.11,0a8.82,8.82,0,0,1-2.94-.35c-1.33-.57-2.15-1.75-3.15-2.71a85.37,85.37,0,0,0-7-6.58A3.71,3.71,0,0,1,84.49,44.86Z" style="fill:#fe7058" />
    <path d="M173.92,44.8c-6.95,0-13.9-.07-20.84,0a5.07,5.07,0,0,1-3.94-1.56c-5.74-5.7-11.59-11.3-17.38-16.95A26.72,26.72,0,0,1,130,24.23c-.07-1.27,1-1.83,1.69-2.6,4.48-4.87,9.68-9,14.26-13.77,1.54-1.61,3.19-3.12,4.72-4.75A10.74,10.74,0,0,1,154.46.43h65.76c-3,3.83-6.8,6.94-10.28,10.32-11.71,11.38-23.5,22.67-35.26,34A.47.47,0,0,1,173.92,44.8Z" style="fill:#f0543f" />
    <path d="M174.88,70.66q32.13,17.7,45.28,51.93a94.14,94.14,0,0,1,6.13,30.54c.91,24.91-6.41,47.09-22.16,66.33s-35.83,31-60.23,34.78c-28.94,4.51-55.2-2.38-78-20.91-18-14.63-29.63-33.49-34.13-56.27-5.84-29.6.51-56.6,18.94-80.58A94.62,94.62,0,0,1,81.23,70.66a5.3,5.3,0,0,1,2.58-2.23c.75-.35,1.53-.61,2.27-1C91.65,64.67,90.94,66,91,59.79a12.73,12.73,0,0,1,.15-3c.14-.58.21-1.4,1.21-1,1,1.89.42,3.91.52,5.87.14,2.41.33,2.65,2.67,1.84a101,101,0,0,1,19.31-4.63A96.73,96.73,0,0,1,159,63c4.17,1.38,4.15,1.39,4.19-3,0-1.39-.26-2.83.46-4.14,1.53-.42,1.28.86,1.35,1.57A45.53,45.53,0,0,1,165.1,63a3,3,0,0,0,2,3.09c1.67.73,3.29,1.58,5,2.29A5.23,5.23,0,0,1,174.88,70.66Z" style="fill:#fed05c" />
    <path d="M174.88,70.66c-2.94-1.46-5.84-3-8.85-4.32a2.16,2.16,0,0,1-1.6-2.37c0-2,0-4,0-5.94,0-.79.29-1.67-.49-2.31a.61.61,0,0,1-.9.05,3.42,3.42,0,0,1-1.14-.42c-3.38-3.22-6.6-6.6-10.25-9.54l.25-.57c5.31,0,10.63.06,15.94,0,2,0,4.11.5,6.08-.41l.76-.06c.47,7.07.08,14.15.2,21.22C174.91,67.53,174.88,69.09,174.88,70.66Z" style="fill:#f7b54c" />
    <path d="M92.18,55.72c-1.08,2.36-.41,4.84-.45,7.26,0,1.85-.36,3-2.31,3.69a89.62,89.62,0,0,0-8.19,4V48.28c0-3.3,0-3.3,3.26-3.43A135.88,135.88,0,0,1,95.7,55.63,2.54,2.54,0,0,1,92.18,55.72Z" style="fill:#f7b54c" />
    <path d="M128,231.56A74.28,74.28,0,0,1,53.51,157c.13-41,33-75.28,76.47-74.3,40.12.91,72.47,33,72.61,74.41A74.24,74.24,0,0,1,128,231.56Z" style="fill:#f7b54c" />
    <path d="M128.34,90.78c.93,2.79,1.87,5.58,2.79,8.38C135,111,139,122.73,142.75,134.55a2.93,2.93,0,0,0,3.34,2.41c14.61-.08,29.22-.05,43.83-.05h3.21l-10.69,7.72c-9.57,6.93-19.12,13.89-28.72,20.77-1.37,1-.82,1.93-.45,3q5.68,17.09,11.36,34.18c1.11,3.35,2.1,6.73,3.26,10.46l-27.25-20c-3.73-2.74-7.48-5.44-11.19-8.21a2,2,0,0,0-2.67-.1q-15.06,11.11-30.15,22.17c-2.66,1.95-5.34,3.88-8.37,6.07,1.12-3.65,2.08-7,3.17-10.27q5.68-17.22,11.48-34.4c.5-1.46.38-2.25-1-3.25-12.57-9-25-18.09-37.56-27.16-.24-.18-.46-.4-1.18-1H66c14.45,0,28.89,0,43.33.06,2.39,0,3.48-.66,4.22-3,4.39-13.72,8.94-27.39,13.45-41.07.23-.7.49-1.39.73-2.09Z" style="fill:#fed05c" />
<style>._black { fill: #333; }</style></svg>