<svg xmlns="http://www.w3.org/2000/svg" viewBox="0 0 576 576">
    <path fill="#00a8ee" d="M234.8,543.7,196,532.4a8.08,8.08,0,0,1-5.5-9.9L331.3,37.8a8.08,8.08,0,0,1,9.9-5.5L380,43.6a8.08,8.08,0,0,1,5.5,9.9L244.7,538.2A8,8,0,0,1,234.8,543.7ZM151.6,422.6l27.2-29a8.09,8.09,0,0,0-.5-11.5L72.2,288l106.1-94.1a8,8,0,0,0,.5-11.5l-27.2-29a8,8,0,0,0-11.3-.4L2.5,282.2a8,8,0,0,0,0,11.7L140.3,423A8,8,0,0,0,151.6,422.6Zm284.1.4L573.4,293.9a8,8,0,0,0,0-11.7L435.7,153a7.94,7.94,0,0,0-11.3.4l-27.2,29a8.09,8.09,0,0,0,.5,11.5L503.8,288,397.7,382.1a8,8,0,0,0-.5,11.5l27.2,29a8,8,0,0,0,11.3.4Z"/>
</svg>