<?xml version="1.0" encoding="UTF-8"?><svg xmlns="http://www.w3.org/2000/svg" viewBox="0 0 398.37 492.36"><path d="m169.1,492.36c7.07-18.32,14.31-36.57,21.06-55,1.45-3.95,1.11-8.55,1.55-12.86.04-.36-.17-.97-.43-1.09-3.27-1.51-1.75-4.45-2.07-6.82-.06-.48.04-1.36.28-1.45,3.42-1.24,2.16-4.13,2.17-6.39.09-17.28.08-34.57.1-51.85,0-.21.12-.47.02-.61-1.61-2.49-3.17-4.99-2.87-8.16.02-.18-.67-.62-1.01-.6-3.65.26-3.19-2.25-3.16-4.54.04-2.49,0-4.98,0-7.97,2.51,0,4.88.19,7.19-.1.82-.1,2.12-1.35,2.13-2.1.16-8.53.16-17.07.02-25.61-.01-.78-1.11-1.76-1.93-2.24-.73-.42-1.78-.27-3.04-.4,0-6.44-.06-12.76.1-19.07.02-.61,1.5-1.7,2.26-1.67,2.41.09,2.75-1.12,2.71-3.09-.09-3.95-.1-7.91,0-11.87.05-1.97-.59-2.98-2.66-2.79-2.01.18-2.52-.94-2.39-2.7.07-.93.02-1.87.02-2.81q-.02-4.64,4.98-5.24c0-5.19.08-10.46-.11-15.72-.02-.56-1.61-1.45-2.51-1.5-1.96-.1-2.46-.96-2.42-2.76.1-4.06,0-8.12.08-12.18.03-1.63-.48-2.44-2.22-2.73-.8-.13-2.06-1.19-2.07-1.85-.16-6.02-.09-12.04-.09-18.22.91-.13,1.61-.34,2.29-.3,1.85.11,2.26-.77,2.2-2.47-.15-4.37-.06-8.75-.21-13.11-.08-2.11.32-3.51,2.83-3.25,2.15.23,2.29-1.15,2.28-2.77-.04-6.77-.1-13.54.03-20.3.02-1.08.99-2.13,1.46-3.22.39-.89.98-1.82.98-2.73.09-8.22.09-16.45.03-24.67,0-.93-.54-1.91-.99-2.78-1.21-2.35-1.76-4.54.44-6.72.65-.64,1.14-1.77,1.15-2.68.09-6.97.08-13.95,0-20.93,0-.81-.49-1.78-1.05-2.39-2.76-2.97-2.17-6.16,1.68-7.57v-39.13h4.69v39.02c3.51,1.35,4.2,4.37,2.12,7.22-.73,1-1.28,2.37-1.31,3.59-.15,6.76-.15,13.53-.09,20.3,0,.93.36,2.06.96,2.74,1.9,2.12,2.1,4.45.53,6.83-.52.8-.85,1.88-.85,2.83-.05,8.12-.08,16.24.08,24.36.02.98,1.23,1.92,1.79,2.93.5.89,1.22,1.84,1.23,2.77.09,6.77.09,13.54-.01,20.3-.03,2.16.47,3.46,2.92,3.2,1.69-.18,2.15.73,2.12,2.26-.08,4.27.06,8.54-.17,12.8-.14,2.61.51,4.04,3.98,3.55,0,2.35,0,4.48,0,6.6,0,3.33-.03,6.66,0,9.99.02,1.96.54,4.14-2.7,4.02-.36-.01-1.07,1.38-1.1,2.14-.11,3.33-.02,6.66-.01,9.99q0,4.74-4.92,5.53c0,5.2-.06,10.47.08,15.74.01.56,1.09,1.3,1.82,1.59.81.32,1.8.22,3.01.33,0,2.84.4,5.61-.18,8.15-.26,1.14-2.52,1.82-3.87,2.7-.3-.2-.59-.39-.89-.59,0,5.36-.07,10.73.1,16.08.02.54,1.44,1.51,2.17,1.48,2.4-.13,2.73,1.05,2.7,3.05-.09,5.81-.03,11.63-.03,17.23-.44.32-.59.53-.77.55-4.16.46-4.18.46-4.19,4.77-.02,7.6.04,15.2-.07,22.8-.03,2.18.69,2.87,2.87,2.86,5.94,0,5.94.09,6,6.1.01,1.15-.04,2.3.08,3.43.19,1.74-.15,2.86-2.25,2.71-2.14-.15-2.76,1.1-2.41,2.98.33,1.78.29,3.25-1.77,4.08-.46.18-.71,1.38-.71,2.12-.01,18.22,0,36.44.1,54.66,0,1.14.63,2.5,1.4,3.37,1.67,1.89,1.56,6.78-.39,8.58-.43.39-.99.99-.97,1.47.18,3.71-.36,7.73.89,11.06,6.44,17.22,13.36,34.26,20.07,51.38.68,1.73,1.07,3.56,1.6,5.35h-62.48ZM178.48,0c1.11.19,2.21.55,3.32.55,10.48.06,20.97.1,31.45.05,2.37-.01,4.73-.39,7.1-.6-13.95,0-27.91,0-41.86,0Zm57.14,396.36c19.8-3.9,38.51-10.75,56.57-19.81,27.36-13.73,49.16-33.81,67.07-58.13,22.62-30.71,36.11-65.04,38.63-103.43,1.39-21.24-.17-42.18-5.18-62.86-4.28-17.68-10.92-34.4-19.74-50.33-9.16-16.54-20.89-30.91-34.41-44.11-23.46-22.92-50.6-39.45-81.95-48.88-19.15-5.76-38.83-7.86-58.85-7.14-13.61.49-27.2.33-40.63,3.42-24.99,5.74-48.53,14.9-69.5,29.72-30.87,21.83-55.49,48.92-70.75,84.18C.95,155.8-3.5,193.87,2.66,233.14c5.17,32.97,18.44,62.79,39.33,88.85,8.49,10.59,17.94,20.53,27.83,29.85,12.11,11.41,26.81,19.18,41.41,27.04,16.5,8.89,34.06,14.17,52.36,17.51,2.6.47,3.57-.14,3.53-2.94-.12-8.02-.19-16.04.11-24.05.13-3.45-.89-4.84-4.3-5.61-38.43-8.72-70.02-28.62-94.71-59.2-22.46-27.82-35.02-59.7-37.22-95.49-1.22-19.85,1.94-39.22,7.32-58.22,9.61-33.96,29.5-61.11,57.07-82.53,37.85-29.42,80.72-41.55,128.45-34.52,20.22,2.98,39.31,9.57,57.14,19.73,25.07,14.29,45.56,33.54,61.2,57.68,11.94,18.44,18.69,39.02,22.84,60.57,3.27,16.99,3.4,34.04.74,50.93-3.74,23.78-11.28,46.33-24.67,66.75-17.66,26.94-40.5,48.02-69.68,61.65-11.42,5.33-23.73,8.74-35.6,13.11-1.07.39-2.7,1.41-2.72,2.17-.18,9.98-.12,19.96-.12,30.29,1.23-.16,1.95-.22,2.65-.36Zm94.99-215.55c-4.38-30.45-17.67-56.78-40.66-77.75-16.78-15.3-36.03-26.05-58.81-31.88,0,4.36-.1,8.17.1,11.97.03.63,1.34,1.38,2.19,1.75,8.17,3.57,16.82,6.29,24.49,10.72,24.29,14.02,42.68,33.43,52.96,60.05,12.03,31.17,11.2,62.19-1.47,92.69-9.67,23.29-26.62,40.88-48,53.9-8.87,5.4-18.67,9.28-28.37,14.01v11.99c61.74-15.18,107.57-77.9,97.57-147.45Zm-164.69-109.43c-10.71,4.22-22.02,7.38-31.97,12.98-17.86,10.04-32.8,23.79-44.33,40.96-17.61,26.22-25.84,54.95-22.75,86.55,2.4,24.66,10.77,47.22,25.91,66.87,6.49,8.42,13.94,16.18,21.64,23.54,4.52,4.32,10.26,7.45,15.66,10.76,10.66,6.54,21.74,12.21,33.99,15.29,2.23.56,3.12.11,3.04-2.25-.09-2.6-.09-5.21.04-7.81.1-2.02-.72-2.95-2.65-3.52-19.47-5.74-36.18-16.11-50.47-30.44-18.76-18.8-30.24-41.47-34.13-67.62-2.85-19.19-.35-38.17,5.65-56.63,8.78-26.99,26.87-46.51,50.04-61.84,9.07-6,19.02-10.19,29.39-13.46,1.33-.42,3.16-1.82,3.31-2.96.44-3.35.16-6.8.16-10.46-1.29,0-1.98-.18-2.51.03Zm-3.01,183.22c-3.44-2.32-6.91-4.71-9.85-7.6-31.96-31.31-23.08-81.83,11.78-102.79,3.9-2.35,4.67-5.06,2.87-9.78-21.73,9.55-40.81,33.78-41.47,62.67-.77,33.34,19.12,57.87,40.35,67.75,1.45-6.03.88-7.18-3.68-10.26Zm107.37-70.73c-4.5-20.05-26.79-48.45-38.91-48.51q-.95,6.8,4.36,10.4c7.91,5.4,14.68,12.05,19.82,20.08,8.23,12.86,10.83,27.15,8.6,42.14-2.79,18.78-11.13,34.62-27.02,45.54-4.36,3-4.59,6.21-3.92,10.48,23.5-10.47,45.25-43.73,37.07-80.13Z" style="fill:#333;"/></svg>